;TYPE=PLATED
;Layer: PTH_Through_Via
;EasyEDA Pro v3.2.91, 2026-03-27 22:23:04
;Gerber Generator version 0.3
M48
METRIC,LZ,0000.00000
;Hole size 1 = 0.25400 METRIC
T01C0.25400
;Hole size 2 = 0.30480 METRIC
T02C0.30480
%
G05
G90
T01
X25.73828Y3.80173
X24.62989Y5.72557
X24.384Y0.762
X16.16646Y2.14263
X17.6784Y2.16613
X18.42467Y1.9812
X18.88287Y2.31827
X16.8656Y2.1336
X6.27735Y3.048
X7.20938Y3.048
X8.14142Y3.048
X9.07345Y3.048
X10.00549Y3.048
X10.93753Y3.048
X11.86956Y3.048
X12.8016Y3.048
X13.37996Y2.5908
X13.4112Y1.91085
X13.4112Y1.23091
X14.3256Y1.0668
X13.9192Y1.5748
X23.5204Y0.9652
X6.9596Y5.9944
X5.69829Y13.58875
X2.9464Y12.7508
X2.9464Y11.95718
X2.9464Y11.14051
X6.35Y11.7856
X20.13506Y14.96774
X21.7932Y12.04623
X23.6728Y11.52903
X8.7376Y5.334
X13.5636Y4.5212
X10.8712Y12.3952
X6.7941Y9.7028
X7.7216Y9.6012
X19.36257Y2.03245
X17.65419Y13.21266
X15.34355Y15.50966
X20.54701Y6.28683
X20.58638Y6.91783
X20.574Y12.0904
X9.94608Y13.23861
X20.51567Y5.7142
X20.25445Y3.54293
X20.2688Y2.91954
X19.8628Y2.286
X20.66965Y2.53058
X20.41115Y2.02348
X18.92736Y19.1516
X14.478Y19.48657
X15.9512Y19.6596
X18.3388Y21.4376
X13.57641Y21.47839
X15.9512Y23.23444
X20.13506Y19.36727
X17.4244Y9.0932
X17.7292Y11.684
X19.30801Y16.1044
X17.03048Y15.494
X23.9268Y10.414
X26.924Y13.208
X9.4996Y10.3124
X12.3952Y7.2136
X22.6568Y6.1976
X13.3604Y16.4592
X21.0312Y16.8148
T02
X17.88173Y5.72453
X16.88173Y5.72453
X17.88147Y3.72478
X16.88173Y3.72478
X18.88173Y5.72453
X18.88173Y3.72453
X17.88173Y4.72453
X18.88122Y4.72504
X16.88173Y4.72453
M30