G04 Layer: BottomPasteMaskLayer*
G04 EasyEDA Pro v3.2.91, 2026-03-27 22:23:04*
G04 Gerber Generator version 0.3*
G04 Scale: 100 percent, Rotated: No, Reflected: No*
G04 Dimensions in millimeters*
G04 Leading zeros omitted, absolute positions, 4 integers and 5 decimals*
G04 Generated by one-click*
%FSLAX45Y45*%
%MOMM*%
%ADD10R,1.5X0.8*%
%ADD11R,2.0X1.45001*%
%ADD12C,0.4929*%
G75*


G04 PolygonModel Start*
G36*
G01X683138Y1375959D02*
G01X763138Y1375959D01*
G01X768139Y1370957D01*
G01X768139Y1348161D01*
G01X731139Y1348161D01*
G01X731139Y1315161D01*
G01X768139Y1315161D01*
G01X768139Y1290958D01*
G01X763138Y1285959D01*
G01X683138Y1285959D01*
G01X678139Y1290958D01*
G01X678139Y1370957D01*
G01X683138Y1375959D01*
G37*
G36*
G01X922142Y1285961D02*
G01X842142Y1285961D01*
G01X837141Y1290963D01*
G01X837141Y1313759D01*
G01X874141Y1313759D01*
G01X874141Y1346759D01*
G01X837141Y1346759D01*
G01X837141Y1370962D01*
G01X842142Y1375961D01*
G01X922142Y1375961D01*
G01X927141Y1370962D01*
G01X927141Y1290963D01*
G01X922142Y1285961D01*
G37*
G36*
G01X684909Y1674220D02*
G01X764909Y1674220D01*
G01X769910Y1669219D01*
G01X769910Y1646422D01*
G01X732910Y1646422D01*
G01X732910Y1613422D01*
G01X769910Y1613422D01*
G01X769910Y1589219D01*
G01X764909Y1584220D01*
G01X684909Y1584220D01*
G01X679910Y1589219D01*
G01X679910Y1669219D01*
G01X684909Y1674220D01*
G37*
G36*
G01X923913Y1584223D02*
G01X843913Y1584223D01*
G01X838911Y1589224D01*
G01X838911Y1612020D01*
G01X875912Y1612020D01*
G01X875912Y1645020D01*
G01X838911Y1645020D01*
G01X838911Y1669224D01*
G01X843913Y1674222D01*
G01X923913Y1674222D01*
G01X928911Y1669224D01*
G01X928911Y1589224D01*
G01X923913Y1584223D01*
G37*
G36*
G01X684909Y1525089D02*
G01X764909Y1525089D01*
G01X769910Y1520088D01*
G01X769910Y1497292D01*
G01X732910Y1497292D01*
G01X732910Y1464292D01*
G01X769910Y1464292D01*
G01X769910Y1440088D01*
G01X764909Y1435090D01*
G01X684909Y1435090D01*
G01X679910Y1440088D01*
G01X679910Y1520088D01*
G01X684909Y1525089D01*
G37*
G36*
G01X923913Y1435092D02*
G01X843913Y1435092D01*
G01X838911Y1440093D01*
G01X838911Y1462890D01*
G01X875912Y1462890D01*
G01X875912Y1495890D01*
G01X838911Y1495890D01*
G01X838911Y1520093D01*
G01X843913Y1525092D01*
G01X923913Y1525092D01*
G01X928911Y1520093D01*
G01X928911Y1440093D01*
G01X923913Y1435092D01*
G37*
G36*
G01X684909Y1823351D02*
G01X764909Y1823351D01*
G01X769910Y1818349D01*
G01X769910Y1795553D01*
G01X732910Y1795553D01*
G01X732910Y1762553D01*
G01X769910Y1762553D01*
G01X769910Y1738350D01*
G01X764909Y1733351D01*
G01X684909Y1733351D01*
G01X679910Y1738350D01*
G01X679910Y1818349D01*
G01X684909Y1823351D01*
G37*
G36*
G01X923913Y1733353D02*
G01X843913Y1733353D01*
G01X838911Y1738355D01*
G01X838911Y1761151D01*
G01X875912Y1761151D01*
G01X875912Y1794151D01*
G01X838911Y1794151D01*
G01X838911Y1818355D01*
G01X843913Y1823353D01*
G01X923913Y1823353D01*
G01X928911Y1818355D01*
G01X928911Y1738355D01*
G01X923913Y1733353D01*
G37*

G04 Pad Start*
G54D10*
G01X1607757Y1473149D03*
G01X1607757Y1363142D03*
G01X1607757Y1253160D03*
G01X1607757Y1143152D03*
G01X1607757Y1033145D03*
G01X1607757Y923138D03*
G01X1607757Y813156D03*
G01X1607757Y703148D03*
G54D11*
G01X2177758Y465658D03*
G01X1347762Y465658D03*
G01X1347762Y1840636D03*
G01X2177758Y1840662D03*
G04 Pad End*

M02*

