G04 Layer: TopPasteMaskLayer*
G04 EasyEDA Pro v3.2.91, 2026-03-27 22:23:04*
G04 Gerber Generator version 0.3*
G04 Scale: 100 percent, Rotated: No, Reflected: No*
G04 Dimensions in millimeters*
G04 Leading zeros omitted, absolute positions, 4 integers and 5 decimals*
G04 Generated by one-click*
%FSLAX45Y45*%
%MOMM*%
%ADD10R,0.5X0.54*%
%ADD11R,0.54X0.5*%
%ADD12R,0.54X0.54*%
%ADD13R,1.5X2.2*%
%ADD14R,0.521X0.25001*%
%ADD15R,0.9X1.6*%
%ADD16R,0.9X0.3*%
%ADD17R,0.3X0.9*%
%ADD18R,1.2X0.85001*%
%ADD19R,1.4005X0.3*%
%ADD20R,1.4X0.3*%
%ADD21R,2.49999X2.0*%
%ADD22R,0.95001X0.4*%
%ADD23R,0.35001X1.3*%
%ADD24R,2.3X0.35001*%
G75*


G04 PolygonModel Start*
G36*
G01X2527160Y149060D02*
G01X2573160Y149060D01*
G01X2577160Y145059D01*
G01X2577160Y94996D01*
G01X2573160Y90996D01*
G01X2527160Y90996D01*
G01X2523160Y94996D01*
G01X2523160Y145059D01*
G01X2527160Y149060D01*
G37*
G36*
G01X2527160Y176060D02*
G01X2523160Y180061D01*
G01X2523160Y230124D01*
G01X2527160Y234125D01*
G01X2573160Y234125D01*
G01X2577160Y230124D01*
G01X2577160Y180061D01*
G01X2573160Y176060D01*
G01X2527160Y176060D01*
G37*
G36*
G01X2141360Y1324140D02*
G01X2095360Y1324140D01*
G01X2091360Y1328141D01*
G01X2091360Y1378204D01*
G01X2095360Y1382205D01*
G01X2141360Y1382205D01*
G01X2145360Y1378204D01*
G01X2145360Y1328141D01*
G01X2141360Y1324140D01*
G37*
G36*
G01X2141360Y1297140D02*
G01X2145360Y1293139D01*
G01X2145360Y1243076D01*
G01X2141360Y1239076D01*
G01X2095360Y1239076D01*
G01X2091360Y1243076D01*
G01X2091360Y1293139D01*
G01X2095360Y1297140D01*
G01X2141360Y1297140D01*
G37*
G36*
G01X2094720Y1090995D02*
G01X2140720Y1090995D01*
G01X2144720Y1086995D01*
G01X2144720Y1036931D01*
G01X2140720Y1032931D01*
G01X2094720Y1032931D01*
G01X2090720Y1036931D01*
G01X2090720Y1086995D01*
G01X2094720Y1090995D01*
G37*
G36*
G01X2094720Y1117995D02*
G01X2090720Y1121996D01*
G01X2090720Y1172059D01*
G01X2094720Y1176060D01*
G01X2140720Y1176060D01*
G01X2144720Y1172059D01*
G01X2144720Y1121996D01*
G01X2140720Y1117995D01*
G01X2094720Y1117995D01*
G37*
G36*
G01X1013967Y413533D02*
G01X1013967Y459532D01*
G01X1017967Y463532D01*
G01X1068031Y463532D01*
G01X1072031Y459532D01*
G01X1072031Y413533D01*
G01X1068031Y409532D01*
G01X1017967Y409532D01*
G01X1013967Y413533D01*
G37*
G36*
G01X986967Y413533D02*
G01X982966Y409532D01*
G01X932903Y409532D01*
G01X928902Y413533D01*
G01X928902Y459532D01*
G01X932903Y463532D01*
G01X982966Y463532D01*
G01X986967Y459532D01*
G01X986967Y413533D01*
G37*
G36*
G01X1480657Y222458D02*
G01X1480657Y202458D01*
G01X1414155Y202458D01*
G01X1414155Y222458D01*
G01X1480657Y222458D01*
G37*
G36*
G01X1480657Y502442D02*
G01X1480657Y482443D01*
G01X1414155Y482443D01*
G01X1414155Y502442D01*
G01X1480657Y502442D01*
G37*
G36*
G01X1414155Y442438D02*
G01X1414155Y462437D01*
G01X1480657Y462437D01*
G01X1480657Y442438D01*
G01X1414155Y442438D01*
G37*
G36*
G01X1414155Y722447D02*
G01X1414155Y742447D01*
G01X1480657Y742447D01*
G01X1480657Y722447D01*
G01X1414155Y722447D01*
G37*
G36*
G01X1480657Y262438D02*
G01X1480657Y242438D01*
G01X1414155Y242438D01*
G01X1414155Y262438D01*
G01X1480657Y262438D01*
G37*
G36*
G01X1480657Y542447D02*
G01X1480657Y522448D01*
G01X1414155Y522448D01*
G01X1414155Y542447D01*
G01X1480657Y542447D01*
G37*
G36*
G01X1480657Y302443D02*
G01X1480657Y282443D01*
G01X1414155Y282443D01*
G01X1414155Y302443D01*
G01X1480657Y302443D01*
G37*
G36*
G01X1480657Y582452D02*
G01X1480657Y562453D01*
G01X1414155Y562453D01*
G01X1414155Y582452D01*
G01X1480657Y582452D01*
G37*
G36*
G01X1480657Y342448D02*
G01X1480657Y322448D01*
G01X1414155Y322448D01*
G01X1414155Y342448D01*
G01X1480657Y342448D01*
G37*
G36*
G01X1480657Y622457D02*
G01X1480657Y602458D01*
G01X1414155Y602458D01*
G01X1414155Y622457D01*
G01X1480657Y622457D01*
G37*
G36*
G01X1414155Y402458D02*
G01X1414155Y422458D01*
G01X1480657Y422458D01*
G01X1480657Y402458D01*
G01X1414155Y402458D01*
G37*
G36*
G01X1414155Y682442D02*
G01X1414155Y702442D01*
G01X1480657Y702442D01*
G01X1480657Y682442D01*
G01X1414155Y682442D01*
G37*
G36*
G01X1480657Y382453D02*
G01X1480657Y362453D01*
G01X1414155Y362453D01*
G01X1414155Y382453D01*
G01X1480657Y382453D01*
G37*
G36*
G01X1480657Y662437D02*
G01X1480657Y642437D01*
G01X1414155Y642437D01*
G01X1414155Y662437D01*
G01X1480657Y662437D01*
G37*
G36*
G01X1518153Y98438D02*
G01X1518153Y164937D01*
G01X1538153Y164937D01*
G01X1538153Y98438D01*
G01X1518153Y98438D01*
G37*
G36*
G01X1538153Y846445D02*
G01X1538153Y779945D01*
G01X1518153Y779945D01*
G01X1518153Y846445D01*
G01X1538153Y846445D01*
G37*
G36*
G01X1558158Y98438D02*
G01X1558158Y164937D01*
G01X1578158Y164937D01*
G01X1578158Y98438D01*
G01X1558158Y98438D01*
G37*
G36*
G01X1578158Y846445D02*
G01X1578158Y779945D01*
G01X1558158Y779945D01*
G01X1558158Y846445D01*
G01X1578158Y846445D01*
G37*
G36*
G01X1598163Y98438D02*
G01X1598163Y164937D01*
G01X1618163Y164937D01*
G01X1618163Y98438D01*
G01X1598163Y98438D01*
G37*
G36*
G01X1618163Y846445D02*
G01X1618163Y779945D01*
G01X1598163Y779945D01*
G01X1598163Y846445D01*
G01X1618163Y846445D01*
G37*
G36*
G01X1658142Y846445D02*
G01X1658142Y779945D01*
G01X1638143Y779945D01*
G01X1638143Y846445D01*
G01X1658142Y846445D01*
G37*
G36*
G01X1658142Y164937D02*
G01X1658142Y98438D01*
G01X1638143Y98438D01*
G01X1638143Y164937D01*
G01X1658142Y164937D01*
G37*
G36*
G01X1678148Y98438D02*
G01X1678148Y164937D01*
G01X1698147Y164937D01*
G01X1698147Y98438D01*
G01X1678148Y98438D01*
G37*
G36*
G01X1698147Y846445D02*
G01X1698147Y779945D01*
G01X1678148Y779945D01*
G01X1678148Y846445D01*
G01X1698147Y846445D01*
G37*
G36*
G01X1718153Y98438D02*
G01X1718153Y164937D01*
G01X1738152Y164937D01*
G01X1738152Y98438D01*
G01X1718153Y98438D01*
G37*
G36*
G01X1738152Y846445D02*
G01X1738152Y779945D01*
G01X1718153Y779945D01*
G01X1718153Y846445D01*
G01X1738152Y846445D01*
G37*
G36*
G01X1758158Y98438D02*
G01X1758158Y164937D01*
G01X1778157Y164937D01*
G01X1778157Y98438D01*
G01X1758158Y98438D01*
G37*
G36*
G01X1778157Y846445D02*
G01X1778157Y779945D01*
G01X1758158Y779945D01*
G01X1758158Y846445D01*
G01X1778157Y846445D01*
G37*
G36*
G01X1798163Y98438D02*
G01X1798163Y164937D01*
G01X1818162Y164937D01*
G01X1818162Y98438D01*
G01X1798163Y98438D01*
G37*
G36*
G01X1818162Y846445D02*
G01X1818162Y779945D01*
G01X1798163Y779945D01*
G01X1798163Y846445D01*
G01X1818162Y846445D01*
G37*
G36*
G01X1838142Y98438D02*
G01X1838142Y164937D01*
G01X1858142Y164937D01*
G01X1858142Y98438D01*
G01X1838142Y98438D01*
G37*
G36*
G01X1858142Y846445D02*
G01X1858142Y779945D01*
G01X1838142Y779945D01*
G01X1838142Y846445D01*
G01X1858142Y846445D01*
G37*
G36*
G01X1878147Y98438D02*
G01X1878147Y164937D01*
G01X1898147Y164937D01*
G01X1898147Y98438D01*
G01X1878147Y98438D01*
G37*
G36*
G01X1898147Y846445D02*
G01X1898147Y779945D01*
G01X1878147Y779945D01*
G01X1878147Y846445D01*
G01X1898147Y846445D01*
G37*
G36*
G01X1938152Y846445D02*
G01X1938152Y779945D01*
G01X1918152Y779945D01*
G01X1918152Y846445D01*
G01X1938152Y846445D01*
G37*
G36*
G01X1938152Y164937D02*
G01X1938152Y98438D01*
G01X1918152Y98438D01*
G01X1918152Y164937D01*
G01X1938152Y164937D01*
G37*
G36*
G01X1958157Y98438D02*
G01X1958157Y164937D01*
G01X1978157Y164937D01*
G01X1978157Y98438D01*
G01X1958157Y98438D01*
G37*
G36*
G01X1978157Y846445D02*
G01X1978157Y779945D01*
G01X1958157Y779945D01*
G01X1958157Y846445D01*
G01X1978157Y846445D01*
G37*
G36*
G01X1998162Y98438D02*
G01X1998162Y164937D01*
G01X2018162Y164937D01*
G01X2018162Y98438D01*
G01X1998162Y98438D01*
G37*
G36*
G01X2018162Y846445D02*
G01X2018162Y779945D01*
G01X1998162Y779945D01*
G01X1998162Y846445D01*
G01X2018162Y846445D01*
G37*
G36*
G01X2038142Y98438D02*
G01X2038142Y164937D01*
G01X2058142Y164937D01*
G01X2058142Y98438D01*
G01X2038142Y98438D01*
G37*
G36*
G01X2058142Y846445D02*
G01X2058142Y779945D01*
G01X2038142Y779945D01*
G01X2038142Y846445D01*
G01X2058142Y846445D01*
G37*
G36*
G01X2162165Y742447D02*
G01X2162165Y722447D01*
G01X2095665Y722447D01*
G01X2095665Y742447D01*
G01X2162165Y742447D01*
G37*
G36*
G01X2162165Y462437D02*
G01X2162165Y442438D01*
G01X2095665Y442438D01*
G01X2095665Y462437D01*
G01X2162165Y462437D01*
G37*
G36*
G01X2095665Y482443D02*
G01X2095665Y502442D01*
G01X2162165Y502442D01*
G01X2162165Y482443D01*
G01X2095665Y482443D01*
G37*
G36*
G01X2095665Y202458D02*
G01X2095665Y222458D01*
G01X2162165Y222458D01*
G01X2162165Y202458D01*
G01X2095665Y202458D01*
G37*
G36*
G01X2162165Y702442D02*
G01X2162165Y682442D01*
G01X2095665Y682442D01*
G01X2095665Y702442D01*
G01X2162165Y702442D01*
G37*
G36*
G01X2162165Y422458D02*
G01X2162165Y402458D01*
G01X2095665Y402458D01*
G01X2095665Y422458D01*
G01X2162165Y422458D01*
G37*
G36*
G01X2162165Y662437D02*
G01X2162165Y642437D01*
G01X2095665Y642437D01*
G01X2095665Y662437D01*
G01X2162165Y662437D01*
G37*
G36*
G01X2162165Y382453D02*
G01X2162165Y362453D01*
G01X2095665Y362453D01*
G01X2095665Y382453D01*
G01X2162165Y382453D01*
G37*
G36*
G01X2162165Y622457D02*
G01X2162165Y602458D01*
G01X2095665Y602458D01*
G01X2095665Y622457D01*
G01X2162165Y622457D01*
G37*
G36*
G01X2162165Y342448D02*
G01X2162165Y322448D01*
G01X2095665Y322448D01*
G01X2095665Y342448D01*
G01X2162165Y342448D01*
G37*
G36*
G01X2095665Y522448D02*
G01X2095665Y542447D01*
G01X2162165Y542447D01*
G01X2162165Y522448D01*
G01X2095665Y522448D01*
G37*
G36*
G01X2095665Y242438D02*
G01X2095665Y262438D01*
G01X2162165Y262438D01*
G01X2162165Y242438D01*
G01X2095665Y242438D01*
G37*
G36*
G01X2162165Y582452D02*
G01X2162165Y562453D01*
G01X2095665Y562453D01*
G01X2095665Y582452D01*
G01X2162165Y582452D01*
G37*
G36*
G01X2162165Y302443D02*
G01X2162165Y282443D01*
G01X2095665Y282443D01*
G01X2095665Y302443D01*
G01X2162165Y302443D01*
G37*
G36*
G01X1628148Y312453D02*
G01X1628148Y632452D01*
G01X1948147Y632452D01*
G01X1948147Y312453D01*
G01X1628148Y312453D01*
G37*
G36*
G01X2327016Y1318567D02*
G01X2327016Y1288565D01*
G01X2217016Y1288565D01*
G01X2217016Y1318567D01*
G01X2327016Y1318567D01*
G37*
G36*
G01X2217016Y1338577D02*
G01X2217016Y1368580D01*
G01X2327016Y1368580D01*
G01X2327016Y1338577D01*
G01X2217016Y1338577D01*
G37*
G36*
G01X2217016Y828558D02*
G01X2217016Y888558D01*
G01X2327016Y888558D01*
G01X2327016Y828558D01*
G01X2217016Y828558D01*
G37*
G36*
G01X2327016Y1268555D02*
G01X2327016Y1238552D01*
G01X2217016Y1238552D01*
G01X2217016Y1268555D01*
G01X2327016Y1268555D01*
G37*
G36*
G01X2217016Y1388577D02*
G01X2217016Y1448577D01*
G01X2327016Y1448577D01*
G01X2327016Y1388577D01*
G01X2217016Y1388577D01*
G37*
G36*
G01X2327016Y1528562D02*
G01X2327016Y1468562D01*
G01X2217016Y1468562D01*
G01X2217016Y1528562D01*
G01X2327016Y1528562D01*
G37*
G36*
G01X2327016Y1218568D02*
G01X2327016Y1188565D01*
G01X2217016Y1188565D01*
G01X2217016Y1218568D01*
G01X2327016Y1218568D01*
G37*
G36*
G01X2327016Y1168555D02*
G01X2327016Y1138552D01*
G01X2217016Y1138552D01*
G01X2217016Y1168555D01*
G01X2327016Y1168555D01*
G37*
G36*
G01X2217016Y908568D02*
G01X2217016Y968568D01*
G01X2327016Y968568D01*
G01X2327016Y908568D01*
G01X2217016Y908568D01*
G37*
G36*
G01X2327016Y1118568D02*
G01X2327016Y1088565D01*
G01X2217016Y1088565D01*
G01X2217016Y1118568D01*
G01X2327016Y1118568D01*
G37*
G36*
G01X2327016Y1068581D02*
G01X2327016Y1038578D01*
G01X2217016Y1038578D01*
G01X2217016Y1068581D01*
G01X2327016Y1068581D01*
G37*
G36*
G01X2327016Y1018568D02*
G01X2327016Y988565D01*
G01X2217016Y988565D01*
G01X2217016Y1018568D01*
G01X2327016Y1018568D01*
G37*
G36*
G01X2227176Y1615542D02*
G01X2227473Y1618518D01*
G01X2227920Y1621478D01*
G01X2228512Y1624409D01*
G01X2229251Y1627309D01*
G01X2230133Y1630167D01*
G01X2231156Y1632979D01*
G01X2232317Y1635735D01*
G01X2233615Y1638432D01*
G01X2235048Y1641058D01*
G01X2236607Y1643611D01*
G01X2238291Y1646083D01*
G01X2240100Y1648468D01*
G01X2242022Y1650759D01*
G01X2244057Y1652953D01*
G01X2246198Y1655041D01*
G01X2248441Y1657022D01*
G01X2250780Y1658887D01*
G01X2253209Y1660632D01*
G01X2255723Y1662255D01*
G01X2258314Y1663751D01*
G01X2260976Y1665117D01*
G01X2263701Y1666347D01*
G01X2266488Y1667439D01*
G01X2269322Y1668394D01*
G01X2272203Y1669204D01*
G01X2275119Y1669870D01*
G01X2278065Y1670388D01*
G01X2281034Y1670761D01*
G01X2284019Y1670985D01*
G01X2287008Y1671058D01*
G01X2367008Y1671058D01*
G01X2369998Y1670985D01*
G01X2372982Y1670761D01*
G01X2375952Y1670388D01*
G01X2378898Y1669870D01*
G01X2381814Y1669204D01*
G01X2384694Y1668394D01*
G01X2387529Y1667439D01*
G01X2390315Y1666347D01*
G01X2393041Y1665117D01*
G01X2395703Y1663751D01*
G01X2398293Y1662255D01*
G01X2400808Y1660632D01*
G01X2403236Y1658887D01*
G01X2405576Y1657022D01*
G01X2407818Y1655041D01*
G01X2409960Y1652953D01*
G01X2411994Y1650759D01*
G01X2413917Y1648468D01*
G01X2415725Y1646083D01*
G01X2417409Y1643611D01*
G01X2418969Y1641058D01*
G01X2420402Y1638432D01*
G01X2421700Y1635735D01*
G01X2422860Y1632979D01*
G01X2423884Y1630167D01*
G01X2424765Y1627309D01*
G01X2425504Y1624409D01*
G01X2426096Y1621478D01*
G01X2426543Y1618518D01*
G01X2426840Y1615542D01*
G01X2426990Y1612555D01*
G01X2426990Y1609562D01*
G01X2426840Y1606575D01*
G01X2426543Y1603599D01*
G01X2426096Y1600639D01*
G01X2425504Y1597708D01*
G01X2424765Y1594808D01*
G01X2423884Y1591950D01*
G01X2422860Y1589138D01*
G01X2421700Y1586382D01*
G01X2420402Y1583685D01*
G01X2418969Y1581059D01*
G01X2417409Y1578506D01*
G01X2415725Y1576034D01*
G01X2413917Y1573649D01*
G01X2411994Y1571358D01*
G01X2409960Y1569164D01*
G01X2407818Y1567076D01*
G01X2405576Y1565095D01*
G01X2403236Y1563230D01*
G01X2400808Y1561485D01*
G01X2398293Y1559862D01*
G01X2395703Y1558366D01*
G01X2393041Y1557000D01*
G01X2390315Y1555770D01*
G01X2387529Y1554678D01*
G01X2384694Y1553723D01*
G01X2381814Y1552913D01*
G01X2378898Y1552247D01*
G01X2375952Y1551729D01*
G01X2372982Y1551356D01*
G01X2369998Y1551132D01*
G01X2367008Y1551059D01*
G01X2287008Y1551059D01*
G01X2284019Y1551132D01*
G01X2281034Y1551356D01*
G01X2278065Y1551729D01*
G01X2275119Y1552247D01*
G01X2272203Y1552913D01*
G01X2269322Y1553723D01*
G01X2266488Y1554678D01*
G01X2263701Y1555770D01*
G01X2260976Y1557000D01*
G01X2258314Y1558366D01*
G01X2255723Y1559862D01*
G01X2253209Y1561485D01*
G01X2250780Y1563230D01*
G01X2248441Y1565095D01*
G01X2246198Y1567076D01*
G01X2244057Y1569164D01*
G01X2242022Y1571358D01*
G01X2240100Y1573649D01*
G01X2238291Y1576034D01*
G01X2236607Y1578506D01*
G01X2235048Y1581059D01*
G01X2233615Y1583685D01*
G01X2232317Y1586382D01*
G01X2231156Y1589138D01*
G01X2230133Y1591950D01*
G01X2229251Y1594808D01*
G01X2228512Y1597708D01*
G01X2227920Y1600639D01*
G01X2227473Y1603599D01*
G01X2227176Y1606575D01*
G01X2227026Y1609562D01*
G01X2227026Y1612555D01*
G01X2227176Y1615542D01*
G37*
G36*
G01X2227026Y744565D02*
G01X2227026Y747558D01*
G01X2227176Y750545D01*
G01X2227473Y753521D01*
G01X2227920Y756481D01*
G01X2228512Y759412D01*
G01X2229251Y762312D01*
G01X2230133Y765170D01*
G01X2231156Y767982D01*
G01X2232317Y770738D01*
G01X2233615Y773435D01*
G01X2235048Y776061D01*
G01X2236607Y778614D01*
G01X2238291Y781086D01*
G01X2240100Y783471D01*
G01X2242022Y785762D01*
G01X2244057Y787956D01*
G01X2246198Y790044D01*
G01X2248441Y792025D01*
G01X2250780Y793890D01*
G01X2253209Y795635D01*
G01X2255723Y797258D01*
G01X2258314Y798754D01*
G01X2260976Y800120D01*
G01X2263701Y801350D01*
G01X2266488Y802442D01*
G01X2269322Y803397D01*
G01X2272203Y804207D01*
G01X2275119Y804873D01*
G01X2278065Y805391D01*
G01X2281034Y805764D01*
G01X2284019Y805988D01*
G01X2287008Y806061D01*
G01X2367008Y806061D01*
G01X2369998Y805988D01*
G01X2372982Y805764D01*
G01X2375952Y805391D01*
G01X2378898Y804873D01*
G01X2381814Y804207D01*
G01X2384694Y803397D01*
G01X2387529Y802442D01*
G01X2390315Y801350D01*
G01X2393041Y800120D01*
G01X2395703Y798754D01*
G01X2398293Y797258D01*
G01X2400808Y795635D01*
G01X2403236Y793890D01*
G01X2405576Y792025D01*
G01X2407818Y790044D01*
G01X2409960Y787956D01*
G01X2411994Y785762D01*
G01X2413917Y783471D01*
G01X2415725Y781086D01*
G01X2417409Y778614D01*
G01X2418969Y776061D01*
G01X2420402Y773435D01*
G01X2421700Y770738D01*
G01X2422860Y767982D01*
G01X2423884Y765170D01*
G01X2424765Y762312D01*
G01X2425504Y759412D01*
G01X2426096Y756481D01*
G01X2426543Y753521D01*
G01X2426840Y750545D01*
G01X2426990Y747558D01*
G01X2426990Y744565D01*
G01X2426840Y741578D01*
G01X2426543Y738602D01*
G01X2426096Y735642D01*
G01X2425504Y732711D01*
G01X2424765Y729811D01*
G01X2423884Y726953D01*
G01X2422860Y724141D01*
G01X2421700Y721385D01*
G01X2420402Y718688D01*
G01X2418969Y716062D01*
G01X2417409Y713509D01*
G01X2415725Y711037D01*
G01X2413917Y708652D01*
G01X2411994Y706361D01*
G01X2409960Y704167D01*
G01X2407818Y702079D01*
G01X2405576Y700098D01*
G01X2403236Y698233D01*
G01X2400808Y696488D01*
G01X2398293Y694865D01*
G01X2395703Y693369D01*
G01X2393041Y692003D01*
G01X2390315Y690773D01*
G01X2387529Y689681D01*
G01X2384694Y688726D01*
G01X2381814Y687916D01*
G01X2378898Y687250D01*
G01X2375952Y686732D01*
G01X2372982Y686359D01*
G01X2369998Y686135D01*
G01X2367008Y686062D01*
G01X2287008Y686062D01*
G01X2284019Y686135D01*
G01X2281034Y686359D01*
G01X2278065Y686732D01*
G01X2275119Y687250D01*
G01X2272203Y687916D01*
G01X2269322Y688726D01*
G01X2266488Y689681D01*
G01X2263701Y690773D01*
G01X2260976Y692003D01*
G01X2258314Y693369D01*
G01X2255723Y694865D01*
G01X2253209Y696488D01*
G01X2250780Y698233D01*
G01X2248441Y700098D01*
G01X2246198Y702079D01*
G01X2244057Y704167D01*
G01X2242022Y706361D01*
G01X2240100Y708652D01*
G01X2238291Y711037D01*
G01X2236607Y713509D01*
G01X2235048Y716062D01*
G01X2233615Y718688D01*
G01X2232317Y721385D01*
G01X2231156Y724141D01*
G01X2230133Y726953D01*
G01X2229251Y729811D01*
G01X2228512Y732711D01*
G01X2227920Y735642D01*
G01X2227473Y738602D01*
G01X2227176Y741578D01*
G01X2227026Y744565D01*
G37*
G36*
G01X2672192Y750545D02*
G01X2672489Y753521D01*
G01X2672936Y756481D01*
G01X2673528Y759412D01*
G01X2674267Y762312D01*
G01X2675148Y765170D01*
G01X2676172Y767982D01*
G01X2677333Y770738D01*
G01X2678631Y773435D01*
G01X2680063Y776061D01*
G01X2681623Y778614D01*
G01X2683307Y781086D01*
G01X2685115Y783471D01*
G01X2687038Y785762D01*
G01X2689073Y787956D01*
G01X2691214Y790044D01*
G01X2693457Y792025D01*
G01X2695796Y793890D01*
G01X2698224Y795635D01*
G01X2700739Y797258D01*
G01X2703330Y798754D01*
G01X2705992Y800120D01*
G01X2708717Y801350D01*
G01X2711503Y802442D01*
G01X2714338Y803397D01*
G01X2717218Y804207D01*
G01X2720134Y804873D01*
G01X2723081Y805391D01*
G01X2726050Y805764D01*
G01X2729034Y805988D01*
G01X2732024Y806061D01*
G01X2762024Y806061D01*
G01X2765014Y805988D01*
G01X2767998Y805764D01*
G01X2770967Y805391D01*
G01X2773914Y804873D01*
G01X2776830Y804207D01*
G01X2779710Y803397D01*
G01X2782545Y802442D01*
G01X2785331Y801350D01*
G01X2788056Y800120D01*
G01X2790718Y798754D01*
G01X2793309Y797258D01*
G01X2795824Y795635D01*
G01X2798252Y793890D01*
G01X2800591Y792025D01*
G01X2802834Y790044D01*
G01X2804975Y787956D01*
G01X2807010Y785762D01*
G01X2808933Y783471D01*
G01X2810741Y781086D01*
G01X2812425Y778614D01*
G01X2813985Y776061D01*
G01X2815417Y773435D01*
G01X2816715Y770738D01*
G01X2817876Y767982D01*
G01X2818900Y765170D01*
G01X2819781Y762312D01*
G01X2820520Y759412D01*
G01X2821112Y756481D01*
G01X2821559Y753521D01*
G01X2821856Y750545D01*
G01X2822006Y747558D01*
G01X2822006Y744565D01*
G01X2821856Y741578D01*
G01X2821559Y738602D01*
G01X2821112Y735642D01*
G01X2820520Y732711D01*
G01X2819781Y729811D01*
G01X2818900Y726953D01*
G01X2817876Y724141D01*
G01X2816715Y721385D01*
G01X2815417Y718688D01*
G01X2813985Y716062D01*
G01X2812425Y713509D01*
G01X2810741Y711037D01*
G01X2808933Y708652D01*
G01X2807010Y706361D01*
G01X2804975Y704167D01*
G01X2802834Y702079D01*
G01X2800591Y700098D01*
G01X2798252Y698233D01*
G01X2795824Y696488D01*
G01X2793309Y694865D01*
G01X2790718Y693369D01*
G01X2788056Y692003D01*
G01X2785331Y690773D01*
G01X2782545Y689681D01*
G01X2779710Y688726D01*
G01X2776830Y687916D01*
G01X2773914Y687250D01*
G01X2770967Y686732D01*
G01X2767998Y686359D01*
G01X2765014Y686135D01*
G01X2762024Y686062D01*
G01X2732024Y686062D01*
G01X2729034Y686135D01*
G01X2726050Y686359D01*
G01X2723081Y686732D01*
G01X2720134Y687250D01*
G01X2717218Y687916D01*
G01X2714338Y688726D01*
G01X2711503Y689681D01*
G01X2708717Y690773D01*
G01X2705992Y692003D01*
G01X2703330Y693369D01*
G01X2700739Y694865D01*
G01X2698224Y696488D01*
G01X2695796Y698233D01*
G01X2693457Y700098D01*
G01X2691214Y702079D01*
G01X2689073Y704167D01*
G01X2687038Y706361D01*
G01X2685115Y708652D01*
G01X2683307Y711037D01*
G01X2681623Y713509D01*
G01X2680063Y716062D01*
G01X2678631Y718688D01*
G01X2677333Y721385D01*
G01X2676172Y724141D01*
G01X2675148Y726953D01*
G01X2674267Y729811D01*
G01X2673528Y732711D01*
G01X2672936Y735642D01*
G01X2672489Y738602D01*
G01X2672192Y741578D01*
G01X2672042Y744565D01*
G01X2672042Y747558D01*
G01X2672192Y750545D01*
G37*
G36*
G01X2672042Y1609562D02*
G01X2672042Y1612555D01*
G01X2672192Y1615542D01*
G01X2672489Y1618518D01*
G01X2672936Y1621478D01*
G01X2673528Y1624409D01*
G01X2674267Y1627309D01*
G01X2675148Y1630167D01*
G01X2676172Y1632979D01*
G01X2677333Y1635735D01*
G01X2678631Y1638432D01*
G01X2680063Y1641058D01*
G01X2681623Y1643611D01*
G01X2683307Y1646083D01*
G01X2685115Y1648468D01*
G01X2687038Y1650759D01*
G01X2689073Y1652953D01*
G01X2691214Y1655041D01*
G01X2693457Y1657022D01*
G01X2695796Y1658887D01*
G01X2698224Y1660632D01*
G01X2700739Y1662255D01*
G01X2703330Y1663751D01*
G01X2705992Y1665117D01*
G01X2708717Y1666347D01*
G01X2711503Y1667439D01*
G01X2714338Y1668394D01*
G01X2717218Y1669204D01*
G01X2720134Y1669870D01*
G01X2723081Y1670388D01*
G01X2726050Y1670761D01*
G01X2729034Y1670985D01*
G01X2732024Y1671058D01*
G01X2762024Y1671058D01*
G01X2765014Y1670985D01*
G01X2767998Y1670761D01*
G01X2770967Y1670388D01*
G01X2773914Y1669870D01*
G01X2776830Y1669204D01*
G01X2779710Y1668394D01*
G01X2782545Y1667439D01*
G01X2785331Y1666347D01*
G01X2788056Y1665117D01*
G01X2790718Y1663751D01*
G01X2793309Y1662255D01*
G01X2795824Y1660632D01*
G01X2798252Y1658887D01*
G01X2800591Y1657022D01*
G01X2802834Y1655041D01*
G01X2804975Y1652953D01*
G01X2807010Y1650759D01*
G01X2808933Y1648468D01*
G01X2810741Y1646083D01*
G01X2812425Y1643611D01*
G01X2813985Y1641058D01*
G01X2815417Y1638432D01*
G01X2816715Y1635735D01*
G01X2817876Y1632979D01*
G01X2818900Y1630167D01*
G01X2819781Y1627309D01*
G01X2820520Y1624409D01*
G01X2821112Y1621478D01*
G01X2821559Y1618518D01*
G01X2821856Y1615542D01*
G01X2822006Y1612555D01*
G01X2822006Y1609562D01*
G01X2821856Y1606575D01*
G01X2821559Y1603599D01*
G01X2821112Y1600639D01*
G01X2820520Y1597708D01*
G01X2819781Y1594808D01*
G01X2818900Y1591950D01*
G01X2817876Y1589138D01*
G01X2816715Y1586382D01*
G01X2815417Y1583685D01*
G01X2813985Y1581059D01*
G01X2812425Y1578506D01*
G01X2810741Y1576034D01*
G01X2808933Y1573649D01*
G01X2807010Y1571358D01*
G01X2804975Y1569164D01*
G01X2802834Y1567076D01*
G01X2800591Y1565095D01*
G01X2798252Y1563230D01*
G01X2795824Y1561485D01*
G01X2793309Y1559862D01*
G01X2790718Y1558366D01*
G01X2788056Y1557000D01*
G01X2785331Y1555770D01*
G01X2782545Y1554678D01*
G01X2779710Y1553723D01*
G01X2776830Y1552913D01*
G01X2773914Y1552247D01*
G01X2770967Y1551729D01*
G01X2767998Y1551356D01*
G01X2765014Y1551132D01*
G01X2762024Y1551059D01*
G01X2732024Y1551059D01*
G01X2729034Y1551132D01*
G01X2726050Y1551356D01*
G01X2723081Y1551729D01*
G01X2720134Y1552247D01*
G01X2717218Y1552913D01*
G01X2714338Y1553723D01*
G01X2711503Y1554678D01*
G01X2708717Y1555770D01*
G01X2705992Y1557000D01*
G01X2703330Y1558366D01*
G01X2700739Y1559862D01*
G01X2698224Y1561485D01*
G01X2695796Y1563230D01*
G01X2693457Y1565095D01*
G01X2691214Y1567076D01*
G01X2689073Y1569164D01*
G01X2687038Y1571358D01*
G01X2685115Y1573649D01*
G01X2683307Y1576034D01*
G01X2681623Y1578506D01*
G01X2680063Y1581059D01*
G01X2678631Y1583685D01*
G01X2677333Y1586382D01*
G01X2676172Y1589138D01*
G01X2675148Y1591950D01*
G01X2674267Y1594808D01*
G01X2673528Y1597708D01*
G01X2672936Y1600639D01*
G01X2672489Y1603599D01*
G01X2672192Y1606575D01*
G01X2672042Y1609562D01*
G37*

G04 Pad Start*
G54D10*
G01X2571852Y635000D03*
G01X2487828Y635000D03*
G01X2434692Y157480D03*
G01X2350668Y157480D03*
G01X1957331Y1554480D03*
G01X1873308Y1554480D03*
G01X1787071Y1554480D03*
G01X1703048Y1554480D03*
G01X1616812Y1554480D03*
G01X1532788Y1554480D03*
G54D11*
G01X1422400Y1014628D03*
G01X1422400Y1098652D03*
G54D10*
G01X1124537Y436636D03*
G01X1208560Y436636D03*
G54D11*
G01X2260600Y74828D03*
G01X2260600Y158852D03*
G54D10*
G01X874838Y436636D03*
G01X790815Y436636D03*
G54D12*
G01X2434679Y279400D03*
G01X2350681Y279400D03*
G54D13*
G01X1224041Y147320D03*
G01X686039Y147320D03*
G54D14*
G01X2509718Y381164D03*
G01X2509718Y431177D03*
G01X2509718Y481164D03*
G01X2509718Y531176D03*
G01X2319726Y531176D03*
G01X2319726Y481164D03*
G01X2319726Y431177D03*
G01X2319726Y381164D03*
G54D15*
G01X2414722Y456170D03*
G54D16*
G01X1942599Y1104832D03*
G01X1942599Y1154819D03*
G01X1942599Y1204832D03*
G01X1942599Y1254819D03*
G01X1942599Y1304832D03*
G01X1942599Y1354819D03*
G54D17*
G01X1867593Y1429825D03*
G01X1817605Y1429825D03*
G01X1767593Y1429825D03*
G01X1717606Y1429825D03*
G01X1667593Y1429825D03*
G01X1617606Y1429825D03*
G54D16*
G01X1542600Y1354819D03*
G01X1542600Y1304832D03*
G01X1542600Y1254819D03*
G01X1542600Y1204832D03*
G01X1542600Y1154819D03*
G01X1542600Y1104832D03*
G54D17*
G01X1617606Y1029826D03*
G01X1667593Y1029826D03*
G01X1717606Y1029826D03*
G01X1767593Y1029826D03*
G01X1817605Y1029826D03*
G01X1867593Y1029826D03*
G54D18*
G01X565125Y1038885D03*
G01X565125Y1358875D03*
G01X85115Y1038885D03*
G01X85115Y1358875D03*
G54D20*
G01X770407Y1023887D03*
G01X770407Y1073874D03*
G01X770407Y1123887D03*
G01X770407Y1173874D03*
G01X770407Y1223886D03*
G01X770407Y1273874D03*
G54D21*
G01X1027913Y1543876D03*
G01X1027913Y853885D03*
G54D20*
G01X770407Y1323861D03*
G01X770407Y1373873D03*
G54D22*
G01X1662633Y2196414D03*
G01X1527607Y2196414D03*
G01X1527607Y2111426D03*
G01X1662633Y2111426D03*
G54D23*
G01X1767611Y2153920D03*
G01X1422629Y2153920D03*
G54D24*
G01X1595120Y2276424D03*
G01X1595120Y2031416D03*
G54D10*
G01X2017636Y2056330D03*
G01X1933613Y2056330D03*
G01X2018878Y2168090D03*
G01X1934855Y2168090D03*
G04 Pad End*

M02*

