G04 Layer: BottomSilkscreenLayer*
G04 EasyEDA Pro v3.2.91, 2026-03-27 22:23:04*
G04 Gerber Generator version 0.3*
G04 Scale: 100 percent, Rotated: No, Reflected: No*
G04 Dimensions in millimeters*
G04 Leading zeros omitted, absolute positions, 4 integers and 5 decimals*
G04 Generated by one-click*
%FSLAX45Y45*%
%MOMM*%
%ADD10C,0.1524*%
%ADD11C,0.254*%
%ADD12C,0.6226*%
G75*


G04 Text Start*
G54D10*
G01X2676589Y422368D02*
G01X2611565Y422368D01*
G01X2676589Y400778D02*
G01X2676589Y444212D01*
G01X2676589Y474438D02*
G01X2611565Y474438D01*
G01X2676589Y474438D02*
G01X2676589Y514570D01*
G01X2645601Y474438D02*
G01X2645601Y499076D01*
G01X2664143Y544796D02*
G01X2667445Y550892D01*
G01X2676589Y560036D01*
G01X2611565Y560036D01*
G01X-187191Y1310280D02*
G01X-187191Y1245256D01*
G01X-187191Y1310280D02*
G01X-215131Y1310280D01*
G01X-224275Y1307232D01*
G01X-227323Y1304184D01*
G01X-230625Y1297834D01*
G01X-230625Y1291738D01*
G01X-227323Y1285642D01*
G01X-224275Y1282594D01*
G01X-215131Y1279292D01*
G01X-187191Y1279292D01*
G01X-208781Y1279292D02*
G01X-230625Y1245256D01*
G01X-260851Y1297834D02*
G01X-266947Y1301136D01*
G01X-276091Y1310280D01*
G01X-276091Y1245256D01*
G01X-306317Y1297834D02*
G01X-312413Y1301136D01*
G01X-321557Y1310280D01*
G01X-321557Y1245256D01*
G01X48260Y1638262D02*
G01X48260Y1573238D01*
G01X48260Y1638262D02*
G01X20320Y1638262D01*
G01X11176Y1635214D01*
G01X8128Y1632166D01*
G01X4826Y1625816D01*
G01X4826Y1619720D01*
G01X8128Y1613624D01*
G01X11176Y1610576D01*
G01X20320Y1607274D01*
G01X48260Y1607274D01*
G01X26670Y1607274D02*
G01X4826Y1573238D01*
G01X-25400Y1625816D02*
G01X-31496Y1629118D01*
G01X-40640Y1638262D01*
G01X-40640Y1573238D01*
G01X-73914Y1622768D02*
G01X-73914Y1625816D01*
G01X-76962Y1632166D01*
G01X-80010Y1635214D01*
G01X-86106Y1638262D01*
G01X-98552Y1638262D01*
G01X-104902Y1635214D01*
G01X-107950Y1632166D01*
G01X-110998Y1625816D01*
G01X-110998Y1619720D01*
G01X-107950Y1613624D01*
G01X-101600Y1604226D01*
G01X-70866Y1573238D01*
G01X-114046Y1573238D01*
G01X170180Y1650932D02*
G01X170180Y1585908D01*
G01X170180Y1650932D02*
G01X142240Y1650932D01*
G01X133096Y1647884D01*
G01X130048Y1644836D01*
G01X126746Y1638486D01*
G01X126746Y1632390D01*
G01X130048Y1626294D01*
G01X133096Y1623246D01*
G01X142240Y1619944D01*
G01X170180Y1619944D01*
G01X148590Y1619944D02*
G01X126746Y1585908D01*
G01X96520Y1638486D02*
G01X90424Y1641788D01*
G01X81280Y1650932D01*
G01X81280Y1585908D01*
G01X44958Y1650932D02*
G01X10922Y1650932D01*
G01X29464Y1626294D01*
G01X20320Y1626294D01*
G01X13970Y1623246D01*
G01X10922Y1619944D01*
G01X7874Y1610800D01*
G01X7874Y1604450D01*
G01X10922Y1595306D01*
G01X17018Y1588956D01*
G01X26416Y1585908D01*
G01X35814Y1585908D01*
G01X44958Y1588956D01*
G01X48006Y1592258D01*
G01X51054Y1598354D01*
G01X170180Y1872234D02*
G01X170180Y1807210D01*
G01X170180Y1872234D02*
G01X142240Y1872234D01*
G01X133096Y1869186D01*
G01X130048Y1866138D01*
G01X126746Y1859788D01*
G01X126746Y1853692D01*
G01X130048Y1847596D01*
G01X133096Y1844548D01*
G01X142240Y1841246D01*
G01X170180Y1841246D01*
G01X148590Y1841246D02*
G01X126746Y1807210D01*
G01X96520Y1859788D02*
G01X90424Y1863090D01*
G01X81280Y1872234D01*
G01X81280Y1807210D01*
G01X20320Y1872234D02*
G01X51054Y1829054D01*
G01X4826Y1829054D01*
G01X20320Y1872234D02*
G01X20320Y1807210D01*
G04 Text End*

G04 PolygonModel Start*
G54D11*
G01X1185357Y573197D02*
G01X1202301Y573197D01*
G01X1202301Y573197D02*
G01X1299657Y670552D01*
G01X1299657Y670552D02*
G01X1299657Y1597652D01*
G01X1299657Y1597652D02*
G01X1198057Y1699252D01*
G01X1198057Y1699252D02*
G01X1185357Y1699252D01*
G01X2300872Y1877050D02*
G01X2556955Y1877050D01*
G01X2556955Y1877050D02*
G01X2556955Y416555D01*
G01X1470871Y1877050D02*
G01X2054644Y1877050D01*
G01X1224643Y416555D02*
G01X1185357Y416555D01*
G01X1185357Y416555D02*
G01X1185357Y1877050D01*
G01X1185357Y1877050D02*
G01X1224643Y1877050D01*
G01X2054647Y416555D02*
G01X1470871Y416555D01*
G01X2556955Y416555D02*
G01X2300874Y416555D01*
G54D10*
G01X760019Y1264900D02*
G01X664131Y1264900D01*
G01X664131Y1264900D02*
G01X664131Y1397020D01*
G01X664131Y1397020D02*
G01X760019Y1397020D01*
G01X845261Y1264900D02*
G01X941149Y1264900D01*
G01X941149Y1264900D02*
G01X941149Y1397020D01*
G01X941149Y1397020D02*
G01X845261Y1397020D01*
G01X761789Y1563161D02*
G01X665902Y1563161D01*
G01X665902Y1563161D02*
G01X665902Y1695282D01*
G01X665902Y1695282D02*
G01X761789Y1695282D01*
G01X847032Y1563161D02*
G01X942919Y1563161D01*
G01X942919Y1563161D02*
G01X942919Y1695282D01*
G01X942919Y1695282D02*
G01X847032Y1695282D01*
G01X761789Y1414030D02*
G01X665902Y1414030D01*
G01X665902Y1414030D02*
G01X665902Y1546151D01*
G01X665902Y1546151D02*
G01X761789Y1546151D01*
G01X847032Y1414030D02*
G01X942919Y1414030D01*
G01X942919Y1414030D02*
G01X942919Y1546151D01*
G01X942919Y1546151D02*
G01X847032Y1546151D01*
G01X761789Y1712292D02*
G01X665902Y1712292D01*
G01X665902Y1712292D02*
G01X665902Y1844412D01*
G01X665902Y1844412D02*
G01X761789Y1844412D01*
G01X847032Y1712292D02*
G01X942919Y1712292D01*
G01X942919Y1712292D02*
G01X942919Y1844412D01*
G01X942919Y1844412D02*
G01X847032Y1844412D01*

M02*

