G04 Layer: BottomLayer*
G04 EasyEDA Pro v3.2.91, 2026-03-27 22:23:04*
G04 Gerber Generator version 0.3*
G04 Scale: 100 percent, Rotated: No, Reflected: No*
G04 Dimensions in millimeters*
G04 Leading zeros omitted, absolute positions, 4 integers and 5 decimals*
G04 Generated by one-click*
%FSLAX45Y45*%
%MOMM*%
%ADD10C,0.2032*%
%ADD11C,0.254*%
%ADD12O,2.0X1.1*%
%ADD13O,1.8X1.2*%
%ADD14R,1.5X0.8*%
%ADD15R,2.0X1.45001*%
%ADD16R,0.80648X0.86401*%
%ADD17C,0.4064*%
%ADD18C,0.6096*%
%ADD19C,0.1014*%
%ADD20C,0.1016*%
%ADD21C,0.127*%
G75*


G04 Copper Start*
G36*
G01X2424063Y130472D02*
G01X2411087Y125241D01*
G01X2399808Y116964D01*
G01X2390926Y106154D01*
G01X2384993Y93484D01*
G01X2382378Y79740D01*
G01X2383242Y65776D01*
G01X2387533Y52460D01*
G01X2394984Y40618D01*
G01X613257Y40618D01*
G01X613257Y694804D01*
G01X611365Y721248D01*
G01X605730Y747154D01*
G01X596465Y771994D01*
G01X583759Y795263D01*
G01X567871Y816486D01*
G01X549125Y835233D01*
G01X527901Y851121D01*
G01X504633Y863826D01*
G01X479792Y873091D01*
G01X453887Y878727D01*
G01X427443Y880618D01*
G01X30657Y880618D01*
G01X30657Y1490490D01*
G01X427443Y1490490D01*
G01X453887Y1492381D01*
G01X479792Y1498017D01*
G01X504633Y1507282D01*
G01X527901Y1519987D01*
G01X549125Y1535875D01*
G01X567871Y1554622D01*
G01X583759Y1575845D01*
G01X596465Y1599114D01*
G01X605730Y1623954D01*
G01X611365Y1649860D01*
G01X613257Y1676304D01*
G01X613257Y2340490D01*
G01X2591629Y2340490D01*
G01X2591629Y1724804D01*
G01X2593262Y1711402D01*
G01X2598065Y1698784D01*
G01X2605758Y1687688D01*
G01X2615890Y1678765D01*
G01X2627868Y1672535D01*
G01X2640992Y1669364D01*
G01X2630828Y1652901D01*
G01X2624179Y1634732D01*
G01X2621316Y1615597D01*
G01X2622356Y1596278D01*
G01X2627255Y1577561D01*
G01X2635815Y1560210D01*
G01X2647686Y1544932D01*
G01X2662384Y1532351D01*
G01X2679310Y1522979D01*
G01X2697774Y1517198D01*
G01X2717023Y1515245D01*
G01X2777023Y1515245D01*
G01X2796258Y1517195D01*
G01X2814711Y1522968D01*
G01X2831629Y1532328D01*
G01X2831629Y824792D01*
G01X2814711Y834152D01*
G01X2796258Y839925D01*
G01X2777023Y841875D01*
G01X2717023Y841875D01*
G01X2698026Y839973D01*
G01X2679783Y834342D01*
G01X2663019Y825206D01*
G01X2648399Y812927D01*
G01X2636503Y797994D01*
G01X2627805Y780998D01*
G01X2622650Y762615D01*
G01X2621241Y743575D01*
G01X2623636Y724634D01*
G01X2629738Y706543D01*
G01X2639306Y690022D01*
G01X2626548Y686559D01*
G01X2614962Y680193D01*
G01X2605198Y671280D01*
G01X2597804Y660321D01*
G01X2593194Y647931D01*
G01X2591629Y634804D01*
G01X2591629Y40618D01*
G01X2481816Y40618D01*
G01X2488386Y50657D01*
G01X2492672Y61863D01*
G01X2559913Y129104D01*
G01X2567623Y139151D01*
G01X2572469Y150852D01*
G01X2574122Y163408D01*
G01X2574122Y1213272D01*
G01X2572469Y1225828D01*
G01X2567623Y1237529D01*
G01X2559913Y1247576D01*
G01X2405569Y1401921D01*
G01X2419616Y1409545D01*
G01X2431596Y1420126D01*
G01X2440898Y1433124D01*
G01X2447048Y1447877D01*
G01X2449733Y1463633D01*
G01X2448816Y1479590D01*
G01X2444343Y1494935D01*
G01X2436543Y1508886D01*
G01X2425813Y1520733D01*
G01X2412700Y1529871D01*
G01X2428440Y1539907D01*
G01X2441796Y1552949D01*
G01X2452204Y1568446D01*
G01X2459222Y1585744D01*
G01X2462556Y1604111D01*
G01X2462063Y1622772D01*
G01X2457766Y1640938D01*
G01X2449845Y1657842D01*
G01X2438634Y1672768D01*
G01X2424609Y1685088D01*
G01X2408361Y1694279D01*
G01X2390577Y1699954D01*
G01X2372008Y1701872D01*
G01X2282008Y1701872D01*
G01X2264109Y1700091D01*
G01X2246913Y1694817D01*
G01X2231093Y1686257D01*
G01X2217270Y1674747D01*
G01X2205988Y1660738D01*
G01X2197687Y1644780D01*
G01X2192695Y1627499D01*
G01X2191207Y1609574D01*
G01X2193280Y1591706D01*
G01X2198835Y1574598D01*
G01X2207653Y1558920D01*
G01X2219387Y1545288D01*
G01X2062020Y1545288D01*
G01X2062020Y1735991D01*
G01X2069681Y1733270D01*
G01X2077758Y1732347D01*
G01X2277758Y1732347D01*
G01X2288825Y1734100D01*
G01X2298809Y1739187D01*
G01X2306732Y1747110D01*
G01X2311819Y1757094D01*
G01X2313572Y1768161D01*
G01X2313572Y1913162D01*
G01X2311819Y1924229D01*
G01X2306732Y1934213D01*
G01X2298809Y1942136D01*
G01X2288825Y1947223D01*
G01X2277758Y1948976D01*
G01X2077758Y1948976D01*
G01X2068543Y1947770D01*
G01X2064151Y1960938D01*
G01X2056662Y1972624D01*
G01X2046534Y1982116D01*
G01X2034387Y1988833D01*
G01X2020963Y1992364D01*
G01X2007083Y1992492D01*
G01X1993596Y1989212D01*
G01X1981326Y1982722D01*
G01X1971024Y1973419D01*
G01X1963320Y1961874D01*
G01X1958684Y1948790D01*
G01X1957400Y1934969D01*
G01X1959546Y1921256D01*
G01X1964992Y1908489D01*
G01X1964992Y1525013D01*
G01X1961694Y1518373D01*
G01X1923470Y1556597D01*
G01X1923470Y1868187D01*
G01X1934265Y1877393D01*
G01X1942408Y1889012D01*
G01X1947377Y1902301D01*
G01X1948856Y1916412D01*
G01X1946749Y1930443D01*
G01X1941192Y1943497D01*
G01X1932540Y1954741D01*
G01X1921345Y1963457D01*
G01X1908322Y1969087D01*
G01X1894303Y1971272D01*
G01X1880184Y1969873D01*
G01X1866867Y1964978D01*
G01X1855203Y1956901D01*
G01X1845936Y1946157D01*
G01X1839659Y1933433D01*
G01X1836773Y1919542D01*
G01X1837462Y1905371D01*
G01X1841682Y1891825D01*
G01X1841682Y1612608D01*
G01X1503907Y1950382D01*
G01X1501597Y1964684D01*
G01X1495704Y1977918D01*
G01X1486620Y1989203D01*
G01X1474951Y1997788D01*
G01X1461473Y2003100D01*
G01X1447084Y2004786D01*
G01X1432743Y2002734D01*
G01X1419405Y1997080D01*
G01X1407958Y1988200D01*
G01X1399165Y1976687D01*
G01X1393611Y1963307D01*
G01X1391667Y1948951D01*
G01X1247762Y1948951D01*
G01X1236695Y1947198D01*
G01X1226711Y1942111D01*
G01X1218788Y1934188D01*
G01X1213701Y1924204D01*
G01X1211948Y1913137D01*
G01X1211948Y1768136D01*
G01X1213701Y1757069D01*
G01X1218788Y1747085D01*
G01X1226711Y1739162D01*
G01X1236695Y1734075D01*
G01X1247762Y1732322D01*
G01X1447762Y1732322D01*
G01X1458829Y1734075D01*
G01X1468813Y1739162D01*
G01X1476736Y1747085D01*
G01X1481823Y1757069D01*
G01X1483576Y1768136D01*
G01X1483576Y1855048D01*
G01X1825590Y1513034D01*
G01X1829009Y1507358D01*
G01X1833299Y1502308D01*
G01X1952324Y1383283D01*
G01X1960796Y1376783D01*
G01X1970662Y1372698D01*
G01X1981249Y1371306D01*
G01X2152225Y1371342D01*
G01X2329315Y1194252D01*
G01X2320127Y1183359D01*
G01X2313977Y1170504D01*
G01X2311262Y1156514D01*
G01X2221484Y1066736D01*
G01X2221484Y1167566D01*
G01X2229459Y1179382D01*
G01X2234200Y1192826D01*
G01X2235402Y1207031D01*
G01X2232987Y1221081D01*
G01X2227111Y1234069D01*
G01X2218152Y1245158D01*
G01X2206689Y1253633D01*
G01X2193460Y1258946D01*
G01X2179320Y1260757D01*
G01X2165180Y1258946D01*
G01X2151951Y1253633D01*
G01X2140488Y1245158D01*
G01X2131529Y1234069D01*
G01X2125653Y1221081D01*
G01X2123238Y1207031D01*
G01X2124440Y1192826D01*
G01X2129181Y1179382D01*
G01X2137156Y1167566D01*
G01X2137156Y829930D01*
G01X2055027Y747800D01*
G01X2052285Y747556D01*
G01X2052285Y1141602D01*
G01X2051783Y1147995D01*
G01X2051783Y1240311D01*
G01X2050389Y1250896D01*
G01X2046304Y1260758D01*
G01X2039805Y1269228D01*
G01X1913596Y1395436D01*
G01X1905127Y1401935D01*
G01X1895264Y1406021D01*
G01X1884680Y1407414D01*
G01X1718315Y1407414D01*
G01X1715276Y1418146D01*
G01X1717737Y1425469D01*
G01X1718570Y1433149D01*
G01X1718570Y1513149D01*
G01X1716817Y1524216D01*
G01X1711730Y1534200D01*
G01X1703807Y1542123D01*
G01X1693823Y1547210D01*
G01X1682756Y1548963D01*
G01X1532757Y1548963D01*
G01X1521690Y1547210D01*
G01X1511706Y1542123D01*
G01X1503783Y1534200D01*
G01X1498696Y1524216D01*
G01X1496943Y1513149D01*
G01X1496943Y1433149D01*
G01X1497354Y1427734D01*
G01X1434259Y1427734D01*
G01X1054724Y1807268D01*
G01X1046255Y1813767D01*
G01X1036392Y1817853D01*
G01X1025808Y1819246D01*
G01X955885Y1819246D01*
G01X955885Y1821552D01*
G01X954132Y1832619D01*
G01X949045Y1842603D01*
G01X941122Y1850526D01*
G01X931138Y1855614D01*
G01X920071Y1857366D01*
G01X839423Y1857366D01*
G01X829809Y1856052D01*
G01X820901Y1852205D01*
G01X813353Y1846108D01*
G01X807718Y1838208D01*
G01X804411Y1829086D01*
G01X801103Y1838208D01*
G01X795468Y1846108D01*
G01X787920Y1852205D01*
G01X779012Y1856052D01*
G01X769398Y1857366D01*
G01X688750Y1857366D01*
G01X677683Y1855614D01*
G01X667700Y1850526D01*
G01X659776Y1842603D01*
G01X654689Y1832619D01*
G01X652936Y1821552D01*
G01X652936Y1735152D01*
G01X654203Y1725711D01*
G01X657914Y1716938D01*
G01X663806Y1709453D01*
G01X671462Y1703787D01*
G01X663806Y1698120D01*
G01X657914Y1690635D01*
G01X654203Y1681862D01*
G01X652936Y1672422D01*
G01X652936Y1586021D01*
G01X654203Y1576580D01*
G01X657914Y1567807D01*
G01X663806Y1560323D01*
G01X671462Y1554656D01*
G01X663806Y1548989D01*
G01X657914Y1541505D01*
G01X654203Y1532732D01*
G01X652936Y1523291D01*
G01X652936Y1436890D01*
G01X654139Y1427687D01*
G01X657666Y1419102D01*
G01X663281Y1411712D01*
G01X670607Y1406013D01*
G01X662599Y1400394D01*
G01X656410Y1392818D01*
G01X652502Y1383851D01*
G01X651166Y1374160D01*
G01X651166Y1337107D01*
G01X625850Y1362423D01*
G01X623085Y1376616D01*
G01X616786Y1389632D01*
G01X607371Y1400608D01*
G01X595464Y1408813D01*
G01X581856Y1413705D01*
G01X567450Y1414958D01*
G01X553202Y1412490D01*
G01X540057Y1406463D01*
G01X528888Y1397279D01*
G01X520436Y1385546D01*
G01X515261Y1372043D01*
G01X513708Y1357666D01*
G01X515879Y1343369D01*
G01X521630Y1330102D01*
G01X530579Y1318744D01*
G01X542133Y1310048D01*
G01X555525Y1304593D01*
G01X569867Y1302741D01*
G01X637993Y1234614D01*
G01X624700Y1233741D01*
G01X611987Y1229760D01*
G01X600570Y1222895D01*
G01X591093Y1213534D01*
G01X584088Y1202202D01*
G01X579950Y1189539D01*
G01X578913Y1176258D01*
G01X581035Y1163107D01*
G01X586196Y1150825D01*
G01X594106Y1140106D01*
G01X594106Y914379D01*
G01X595499Y903795D01*
G01X599585Y893932D01*
G01X606084Y885463D01*
G01X1098135Y393411D01*
G01X1066501Y393411D01*
G01X929798Y530115D01*
G01X928783Y544514D01*
G01X924130Y558178D01*
G01X916146Y570203D01*
G01X905359Y579795D01*
G01X892483Y586319D01*
G01X878369Y589344D01*
G01X863950Y588670D01*
G01X850180Y584341D01*
G01X837969Y576644D01*
G01X828125Y566087D01*
G01X821298Y553369D01*
G01X817940Y539331D01*
G01X818273Y524900D01*
G01X822275Y511031D01*
G01X829682Y498642D01*
G01X840003Y488551D01*
G01X852556Y481425D01*
G01X866511Y477736D01*
G01X1020646Y323601D01*
G01X1029116Y317102D01*
G01X1038978Y313017D01*
G01X1049563Y311623D01*
G01X1318790Y311623D01*
G01X1432040Y198374D01*
G01X1430374Y198374D01*
G01X1418648Y206842D01*
G01X1405148Y212033D01*
G01X1390770Y213602D01*
G01X1376468Y211445D01*
G01X1363191Y205705D01*
G01X1351823Y196764D01*
G01X1343116Y185214D01*
G01X1337649Y171823D01*
G01X1335786Y157480D01*
G01X1337649Y143137D01*
G01X1343116Y129746D01*
G01X1351823Y118196D01*
G01X1363191Y109255D01*
G01X1376468Y103515D01*
G01X1390770Y101358D01*
G01X1405148Y102927D01*
G01X1418648Y108118D01*
G01X1430374Y116586D01*
G01X1630680Y116586D01*
G01X1641264Y117979D01*
G01X1651127Y122065D01*
G01X1659596Y128564D01*
G01X1688285Y157253D01*
G01X1699666Y158777D01*
G01X1710499Y162586D01*
G01X1720329Y168520D01*
G01X1728747Y176329D01*
G01X1738177Y168957D01*
G01X1748955Y163751D01*
G01X1760593Y160949D01*
G01X1772559Y160678D01*
G01X1784311Y162950D01*
G01X1795315Y167662D01*
G01X1804538Y156739D01*
G01X1816221Y148500D01*
G01X1829607Y143479D01*
G01X1843827Y142002D01*
G01X1857959Y144166D01*
G01X1871086Y149829D01*
G01X1882356Y158625D01*
G01X1891040Y169982D01*
G01X1900289Y160148D01*
G01X1911620Y152807D01*
G01X1924375Y148383D01*
G01X1937818Y147133D01*
G01X1951171Y149128D01*
G01X1963661Y154254D01*
G01X1974565Y162214D01*
G01X1983254Y172548D01*
G01X1993319Y172909D01*
G01X2000961Y163121D01*
G01X2010569Y155253D01*
G01X2021671Y149689D01*
G01X2033724Y146702D01*
G01X2046139Y146439D01*
G01X2058309Y148912D01*
G01X2069637Y154000D01*
G01X2079569Y161454D01*
G01X2176781Y161454D01*
G01X2187366Y162847D01*
G01X2197228Y166933D01*
G01X2205698Y173431D01*
G01X2350517Y318250D01*
G01X2357015Y326719D01*
G01X2361101Y336582D01*
G01X2362494Y347166D01*
G01X2362494Y535837D01*
G01X2477094Y650437D01*
G01X2477094Y183504D01*
G01X2424063Y130472D01*
G37*
G36*
G01X736327Y1251946D02*
G01X767627Y1251946D01*
G01X777241Y1253260D01*
G01X786149Y1257107D01*
G01X793698Y1263204D01*
G01X799333Y1271104D01*
G01X802640Y1280226D01*
G01X805947Y1271104D01*
G01X811582Y1263204D01*
G01X819131Y1257107D01*
G01X828039Y1253260D01*
G01X837653Y1251946D01*
G01X849577Y1251946D01*
G01X1322364Y779159D01*
G01X1330833Y772660D01*
G01X1340696Y768575D01*
G01X1351280Y767182D01*
G01X1497444Y767182D01*
G01X1500237Y758152D01*
G01X1497776Y750829D01*
G01X1496943Y743148D01*
G01X1496943Y663148D01*
G01X1498696Y652081D01*
G01X1503783Y642097D01*
G01X1511706Y634174D01*
G01X1521690Y629087D01*
G01X1532757Y627334D01*
G01X1682756Y627334D01*
G01X1693823Y629087D01*
G01X1703807Y634174D01*
G01X1711730Y642097D01*
G01X1716817Y652081D01*
G01X1718570Y663148D01*
G01X1718570Y743148D01*
G01X1717737Y750829D01*
G01X1715276Y758152D01*
G01X1717638Y765039D01*
G01X1718559Y772262D01*
G01X1760706Y772262D01*
G01X1909417Y623550D01*
G01X1909417Y366169D01*
G01X1910810Y355585D01*
G01X1914896Y345722D01*
G01X1921394Y337253D01*
G01X1945386Y313261D01*
G01X1945386Y295337D01*
G01X1895862Y344860D01*
G01X1887393Y351359D01*
G01X1877530Y355445D01*
G01X1866946Y356838D01*
G01X1631435Y356838D01*
G01X1600494Y387779D01*
G01X1600494Y512588D01*
G01X1599101Y523172D01*
G01X1595015Y533035D01*
G01X1588517Y541504D01*
G01X1476184Y653837D01*
G01X1467715Y660336D01*
G01X1457852Y664421D01*
G01X1447268Y665814D01*
G01X1027779Y665814D01*
G01X853694Y839899D01*
G01X853694Y1117640D01*
G01X852301Y1128224D01*
G01X848215Y1138087D01*
G01X841716Y1146557D01*
G01X736327Y1251946D01*
G37*
G36*
G01X948570Y1268619D02*
G01X952305Y1276519D01*
G01X954014Y1285090D01*
G01X964831Y1276276D01*
G01X977486Y1270402D01*
G01X991200Y1267830D01*
G01X1005124Y1268720D01*
G01X1018398Y1273017D01*
G01X1030203Y1280455D01*
G01X1039808Y1290575D01*
G01X1046621Y1302751D01*
G01X1050221Y1316231D01*
G01X1050385Y1330182D01*
G01X1357924Y1022644D01*
G01X1366393Y1016145D01*
G01X1376256Y1012059D01*
G01X1386840Y1010666D01*
G01X1496943Y1010666D01*
G01X1496943Y993145D01*
G01X1497776Y985464D01*
G01X1500237Y978141D01*
G01X1497776Y970818D01*
G01X1496943Y963138D01*
G01X1496943Y883138D01*
G01X1497774Y875464D01*
G01X1500231Y868147D01*
G01X1497774Y860829D01*
G01X1496943Y853156D01*
G01X1496943Y848970D01*
G01X1368219Y848970D01*
G01X948570Y1268619D01*
G37*
G36*
G01X1211948Y538159D02*
G01X1211948Y413772D01*
G01X1193440Y413772D01*
G01X1063906Y543306D01*
G01X1212320Y543306D01*
G01X1211948Y538159D01*
G37*
G36*
G01X1718559Y992251D02*
G01X1855307Y992251D01*
G01X1929777Y917781D01*
G01X1929777Y718856D01*
G01X1806561Y842072D01*
G01X1798091Y848571D01*
G01X1788229Y852656D01*
G01X1777644Y854050D01*
G01X1718559Y854050D01*
G01X1717640Y861265D01*
G01X1715282Y868147D01*
G01X1717739Y875464D01*
G01X1718570Y883138D01*
G01X1718570Y963138D01*
G01X1717737Y970818D01*
G01X1715276Y978141D01*
G01X1717638Y985028D01*
G01X1718559Y992251D01*
G37*
G36*
G01X1718559Y1074039D02*
G01X1717638Y1081262D01*
G01X1715276Y1088149D01*
G01X1717737Y1095472D01*
G01X1718570Y1103152D01*
G01X1718570Y1183152D01*
G01X1717737Y1190833D01*
G01X1715276Y1198156D01*
G01X1717638Y1205043D01*
G01X1718559Y1212266D01*
G01X1854101Y1212266D01*
G01X1950137Y1116230D01*
G01X1950137Y1013087D01*
G01X1901162Y1062061D01*
G01X1892693Y1068560D01*
G01X1882830Y1072646D01*
G01X1872246Y1074039D01*
G01X1718559Y1074039D01*
G37*
G36*
G01X1715282Y1308151D02*
G01X1717739Y1315468D01*
G01X1718570Y1323142D01*
G01X1718570Y1325626D01*
G01X1867741Y1325626D01*
G01X1969995Y1223373D01*
G01X1969995Y1212038D01*
G01X1899957Y1282076D01*
G01X1891487Y1288575D01*
G01X1881624Y1292660D01*
G01X1871040Y1294054D01*
G01X1718559Y1294054D01*
G01X1717640Y1301270D01*
G01X1715282Y1308151D01*
G37*
G36*
G01X2031925Y518835D02*
G01X2041944Y516117D01*
G01X2041944Y453044D01*
G01X2031925Y463063D01*
G01X2031925Y518835D01*
G37*
G36*
G01X2094961Y302203D02*
G01X2101460Y310672D01*
G01X2105545Y320535D01*
G01X2106939Y331119D01*
G01X2106939Y357344D01*
G01X2245151Y357344D01*
G01X2181760Y293952D01*
G01X2105419Y293952D01*
G01X2094649Y301891D01*
G01X2094961Y302203D01*
G37*
G36*
G01X2102727Y594523D02*
G01X2107825Y598868D01*
G01X2205732Y696776D01*
G01X2217008Y682642D01*
G01X2230860Y671021D01*
G01X2246740Y662376D01*
G01X2264018Y657048D01*
G01X2282008Y655248D01*
G01X2337446Y655248D01*
G01X2272324Y590125D01*
G01X2266407Y582633D01*
G01X2262389Y573973D01*
G01X2107643Y573973D01*
G01X2106161Y584481D01*
G01X2102727Y594523D01*
G37*
G36*
G01X2370891Y1096885D02*
G01X2384881Y1099600D01*
G01X2397736Y1105750D01*
G01X2408629Y1114939D01*
G01X2417786Y1105781D01*
G01X2417786Y948839D01*
G01X2404347Y955705D01*
G01X2389759Y959569D01*
G01X2374683Y960253D01*
G01X2359805Y957728D01*
G01X2345799Y952107D01*
G01X2333303Y943646D01*
G01X2322883Y932729D01*
G01X2315013Y919852D01*
G01X2310050Y905600D01*
G01X2308220Y890621D01*
G01X2309606Y875593D01*
G01X2314144Y861200D01*
G01X2321629Y848096D01*
G01X2331721Y836875D01*
G01X2282008Y836875D01*
G01X2264486Y835169D01*
G01X2247622Y830114D01*
G01X2247622Y973617D01*
G01X2370891Y1096885D01*
G37*
G36*
G01X2331693Y1520245D02*
G01X2321042Y1508225D01*
G01X2313374Y1494115D01*
G01X2287245Y1520245D01*
G01X2331693Y1520245D01*
G37*
G54D10*
G01X2424063Y130472D02*
G03X2394984Y40618I14337J-54272D01*
G01X613257Y40618D01*
G01X613257Y694804D01*
G03X427443Y880618I-185814J0D01*
G01X30657Y880618D01*
G01X30657Y1490490D01*
G01X427443Y1490490D01*
G03X613257Y1676304I0J185814D01*
G01X613257Y2340490D01*
G01X2591629Y2340490D01*
G01X2591629Y1724804D01*
G03X2640992Y1669364I55814J0D01*
G03X2717023Y1515245I76031J-58306D01*
G01X2777023Y1515245D01*
G03X2831629Y1532328I0J95814D01*
G01X2831629Y824792D01*
G03X2777023Y841875I-54606J-78730D01*
G01X2717023Y841875D01*
G03X2639306Y690022I0J-95814D01*
G03X2591629Y634804I8136J-55218D01*
G01X2591629Y40618D01*
G01X2481816Y40618D01*
G03X2492672Y61863I-43416J35582D01*
G01X2559913Y129104D01*
G03X2574122Y163408I-34305J34305D01*
G01X2574122Y1213272D01*
G03X2559913Y1247576I-48514J0D01*
G01X2405569Y1401921D01*
G03X2449733Y1463633I-26541J65653D01*
G03X2412700Y1529871I-70705J3941D01*
G03X2372008Y1701872I-40692J81187D01*
G01X2282008Y1701872D01*
G03X2219387Y1545288I0J-90814D01*
G01X2062020Y1545288D01*
G01X2062020Y1735991D01*
G03X2077758Y1732347I15738J32171D01*
G01X2277758Y1732347D01*
G03X2313572Y1768161I0J35814D01*
G01X2313572Y1913162D01*
G03X2277758Y1948976I-35814J0D01*
G01X2077758Y1948976D01*
G03X2068543Y1947770I0J-35814D01*
G03X1993596Y1989212I-55037J-11043D01*
G03X1964992Y1908489I19910J-52484D01*
G01X1964992Y1525013D01*
G03X1961694Y1518373I48514J-28239D01*
G01X1923470Y1556597D01*
G01X1923470Y1868187D01*
G03X1908322Y1969087I-30734J46973D01*
G03X1841682Y1891825I-15586J-53927D01*
G01X1841682Y1612608D01*
G01X1503907Y1950382D01*
G03X1447084Y2004786I-56107J-1725D01*
G03X1391667Y1948951I716J-56129D01*
G01X1247762Y1948951D01*
G03X1211948Y1913137I0J-35814D01*
G01X1211948Y1768136D01*
G03X1247762Y1732322I35814J0D01*
G01X1447762Y1732322D01*
G03X1483576Y1768136I0J35814D01*
G01X1483576Y1855048D01*
G01X1825590Y1513034D01*
G03X1833299Y1502308I36625J18190D01*
G01X1952324Y1383283D01*
G03X1981249Y1371306I28916J28916D01*
G01X2152225Y1371342D01*
G01X2329315Y1194252D01*
G03X2311262Y1156514I37965J-41349D01*
G01X2221484Y1066736D01*
G01X2221484Y1167566D01*
G03X2179320Y1260757I-42164J37057D01*
G03X2137156Y1167566I0J-56134D01*
G01X2137156Y829930D01*
G01X2055027Y747800D01*
G03X2052285Y747556I3611J-56018D01*
G01X2052285Y1141602D01*
G03X2051783Y1147995I-40894J0D01*
G01X2051783Y1240311D01*
G03X2039805Y1269228I-40894J0D01*
G01X1913596Y1395436D01*
G03X1884680Y1407414I-28916J-28916D01*
G01X1718315Y1407414D01*
G03X1715276Y1418146I-35558J-4272D01*
G03X1718570Y1433149I-32520J15004D01*
G01X1718570Y1513149D01*
G03X1682756Y1548963I-35814J0D01*
G01X1532757Y1548963D01*
G03X1496943Y1513149I0J-35814D01*
G01X1496943Y1433149D01*
G03X1497354Y1427734I35814J0D01*
G01X1434259Y1427734D01*
G01X1054724Y1807268D01*
G03X1025808Y1819246I-28916J-28916D01*
G01X955885Y1819246D01*
G01X955885Y1821552D01*
G03X920071Y1857366I-35814J0D01*
G01X839423Y1857366D01*
G03X804411Y1829086I0J-35814D01*
G03X769398Y1857366I-35013J-7534D01*
G01X688750Y1857366D01*
G03X652936Y1821552I0J-35814D01*
G01X652936Y1735152D01*
G03X671462Y1703787I35814J0D01*
G03X652936Y1672422I17288J-31365D01*
G01X652936Y1586021D01*
G03X671462Y1554656I35814J0D01*
G03X652936Y1523291I17288J-31365D01*
G01X652936Y1436890D01*
G03X670607Y1406013I35814J0D01*
G03X651166Y1374160I16373J-31852D01*
G01X651166Y1337107D01*
G01X625850Y1362423D01*
G03X528888Y1397279I-56022J-3548D01*
G03X569867Y1302741I40941J-38404D01*
G01X637993Y1234614D01*
G03X584088Y1202202I-2993J-56054D01*
G03X594106Y1140106I50912J-23642D01*
G01X594106Y914379D01*
G03X606084Y885463I40894J0D01*
G01X1098135Y393411D01*
G01X1066501Y393411D01*
G01X929798Y530115D01*
G03X837969Y576644I-56038J3285D01*
G03X866511Y477736I35791J-43244D01*
G01X1020646Y323601D01*
G03X1049563Y311623I28916J28916D01*
G01X1318790Y311623D01*
G01X1432040Y198374D01*
G01X1430374Y198374D01*
G03X1335786Y157480I-38454J-40894D01*
G03X1430374Y116586I56134J0D01*
G01X1630680Y116586D01*
G03X1659596Y128564I0J40894D01*
G01X1688285Y157253D01*
G03X1710499Y162586I-1725J56107D01*
G03X1728747Y176329I-23939J50774D01*
G03X1760593Y160949I39093J40284D01*
G03X1795315Y167662I7247J55664D01*
G03X1843827Y142002I47152J30458D01*
G03X1891040Y169982I-1360J56118D01*
G03X1983254Y172548I45218J33263D01*
G03X1993319Y172909I3026J56052D01*
G03X2033724Y146702I47795J29439D01*
G03X2079569Y161454I7391J55645D01*
G01X2176781Y161454D01*
G03X2205698Y173431I0J40894D01*
G01X2350517Y318250D01*
G03X2362494Y347166I-28916J28916D01*
G01X2362494Y535837D01*
G01X2477094Y650437D01*
G01X2477094Y183504D01*
G01X2424063Y130472D01*
G01X736327Y1251946D02*
G01X767627Y1251946D01*
G03X802640Y1280226I0J35814D01*
G03X837653Y1251946I35013J7534D01*
G01X849577Y1251946D01*
G01X1322364Y779159D01*
G03X1351280Y767182I28916J28916D01*
G01X1497444Y767182D01*
G03X1500237Y758152I35312J5974D01*
G03X1496943Y743148I32520J-15004D01*
G01X1496943Y663148D01*
G03X1532757Y627334I35814J0D01*
G01X1682756Y627334D01*
G03X1718570Y663148I0J35814D01*
G01X1718570Y743148D01*
G03X1715276Y758152I-35814J0D01*
G03X1718559Y772262I-32520J15004D01*
G01X1760706Y772262D01*
G01X1909417Y623550D01*
G01X1909417Y366169D01*
G03X1921394Y337253I40894J0D01*
G01X1945386Y313261D01*
G01X1945386Y295337D01*
G01X1895862Y344860D01*
G03X1866946Y356838I-28916J-28916D01*
G01X1631435Y356838D01*
G01X1600494Y387779D01*
G01X1600494Y512588D01*
G03X1588517Y541504I-40894J0D01*
G01X1476184Y653837D01*
G03X1447268Y665814I-28916J-28916D01*
G01X1027779Y665814D01*
G01X853694Y839899D01*
G01X853694Y1117640D01*
G03X841716Y1146557I-40894J0D01*
G01X736327Y1251946D01*
G01X948570Y1268619D02*
G03X954014Y1285090I-30270J19141D01*
G03X1018398Y1273017I40593J38771D01*
G03X1050385Y1330182I-23790J50843D01*
G01X1357924Y1022644D01*
G03X1386840Y1010666I28916J28916D01*
G01X1496943Y1010666D01*
G01X1496943Y993145D01*
G03X1500237Y978141I35814J0D01*
G03X1496943Y963138I32520J-15004D01*
G01X1496943Y883138D01*
G03X1500231Y868147I35814J0D01*
G03X1496943Y853156I32526J-14991D01*
G01X1496943Y848970D01*
G01X1368219Y848970D01*
G01X948570Y1268619D01*
G01X1211948Y538159D02*
G01X1211948Y413772D01*
G01X1193440Y413772D01*
G01X1063906Y543306D01*
G01X1212320Y543306D01*
G03X1211948Y538159I35442J-5147D01*
G01X1718559Y992251D02*
G01X1855307Y992251D01*
G01X1929777Y917781D01*
G01X1929777Y718856D01*
G01X1806561Y842072D01*
G03X1777644Y854050I-28916J-28916D01*
G01X1718559Y854050D01*
G03X1715282Y868147I-35803J-894D01*
G03X1718570Y883138I-32526J14991D01*
G01X1718570Y963138D01*
G03X1715276Y978141I-35814J0D01*
G03X1718559Y992251I-32520J15004D01*
G01X1718559Y1074039D02*
G03X1715276Y1088149I-35803J-894D01*
G03X1718570Y1103152I-32520J15004D01*
G01X1718570Y1183152D01*
G03X1715276Y1198156I-35814J0D01*
G03X1718559Y1212266I-32520J15004D01*
G01X1854101Y1212266D01*
G01X1950137Y1116230D01*
G01X1950137Y1013087D01*
G01X1901162Y1062061D01*
G03X1872246Y1074039I-28916J-28916D01*
G01X1718559Y1074039D01*
G01X1715282Y1308151D02*
G03X1718570Y1323142I-32526J14991D01*
G01X1718570Y1325626D01*
G01X1867741Y1325626D01*
G01X1969995Y1223373D01*
G01X1969995Y1212038D01*
G01X1899957Y1282076D01*
G03X1871040Y1294054I-28916J-28916D01*
G01X1718559Y1294054D01*
G03X1715282Y1308151I-35803J-894D01*
G01X2031925Y518835D02*
G03X2041944Y516117I19642J52585D01*
G01X2041944Y453044D01*
G01X2031925Y463063D01*
G01X2031925Y518835D01*
G01X2094961Y302203D02*
G03X2106939Y331119I-28916J28916D01*
G01X2106939Y357344D01*
G01X2245151Y357344D01*
G01X2181760Y293952D01*
G01X2105419Y293952D01*
G03X2094649Y301891I-38454J-40894D01*
G01X2094961Y302203D01*
G01X2102727Y594523D02*
G03X2107825Y598868I-24716J34160D01*
G01X2205732Y696776D01*
G03X2282008Y655248I76276J49286D01*
G01X2337446Y655248D01*
G01X2272324Y590125D01*
G03X2262389Y573973I28916J-28916D01*
G01X2107643Y573973D01*
G03X2102727Y594523I-56076J-2552D01*
G01X2370891Y1096885D02*
G03X2408629Y1114939I-3611J56018D01*
G01X2417786Y1105781D01*
G01X2417786Y948839D01*
G03X2322883Y932729I-38758J-59267D01*
G03X2331721Y836875I56144J-43158D01*
G01X2282008Y836875D01*
G03X2247622Y830114I0J-90814D01*
G01X2247622Y973617D01*
G01X2370891Y1096885D01*
G01X2331693Y1520245D02*
G03X2313374Y1494115I47335J-52671D01*
G01X2287245Y1520245D01*
G01X2331693Y1520245D01*
G54D11*
G01X2327008Y746062D02*
G01X2327008Y665408D01*
G01X2327008Y746062D02*
G01X2327008Y826715D01*
G01X2327008Y1611059D02*
G01X2327008Y1530405D01*
G01X2327008Y1611059D02*
G01X2327008Y1691712D01*
G01X2327008Y1611059D02*
G01X2201355Y1611059D01*
G01X2327008Y1611059D02*
G01X2452662Y1611059D01*
G01X2747023Y1611059D02*
G01X2747023Y1525405D01*
G01X2747023Y1611059D02*
G01X2631369Y1611059D01*
G01X2747023Y746062D02*
G01X2747023Y831715D01*
G01X2747023Y746062D02*
G01X2631369Y746062D01*
G01X1347762Y1840636D02*
G01X1347762Y1742482D01*
G01X1347762Y1840636D02*
G01X1347762Y1938791D01*
G01X1347762Y1840636D02*
G01X1222108Y1840636D01*
G01X1347762Y1840636D02*
G01X1473416Y1840636D01*
G01X1347762Y465658D02*
G01X1222108Y465658D01*
G01X1607757Y923138D02*
G01X1507103Y923138D01*
G01X1607757Y923138D02*
G01X1708410Y923138D01*
G01X2177758Y465658D02*
G01X2177758Y367504D01*
G01X2177758Y465658D02*
G01X2177758Y563813D01*
G01X2177758Y465658D02*
G01X2052104Y465658D01*
G01X2177758Y1840662D02*
G01X2177758Y1742507D01*
G01X2177758Y1840662D02*
G01X2177758Y1938816D01*
G01X2177758Y1840662D02*
G01X2303412Y1840662D01*
G04 Copper End*

G04 Pad Start*
G54D12*
G01X2327008Y746062D03*
G01X2327008Y1611059D03*
G54D13*
G01X2747023Y746062D03*
G01X2747023Y1611059D03*
G54D14*
G01X1607757Y1473149D03*
G01X1607757Y1363142D03*
G01X1607757Y1253160D03*
G01X1607757Y1143152D03*
G01X1607757Y1033145D03*
G01X1607757Y923138D03*
G01X1607757Y813156D03*
G01X1607757Y703148D03*
G54D15*
G01X2177758Y465658D03*
G01X1347762Y465658D03*
G01X1347762Y1840636D03*
G01X2177758Y1840662D03*
G54D16*
G01X727304Y1330960D03*
G01X877976Y1330960D03*
G01X729074Y1629221D03*
G01X879747Y1629221D03*
G01X729074Y1480091D03*
G01X879747Y1480091D03*
G01X729074Y1778352D03*
G01X879747Y1778352D03*
G04 Pad End*

G04 Via Start*
G54D17*
G01X2573828Y380173D03*
G01X2462989Y572557D03*
G01X2438400Y76200D03*
G01X1616647Y214263D03*
G01X1767840Y216613D03*
G01X1842467Y198120D03*
G01X1888287Y231827D03*
G01X1686560Y213360D03*
G01X627735Y304800D03*
G01X720938Y304800D03*
G01X814142Y304800D03*
G01X907345Y304800D03*
G01X1000549Y304800D03*
G01X1093753Y304800D03*
G01X1186956Y304800D03*
G01X1280160Y304800D03*
G01X1337996Y259080D03*
G01X1341120Y191085D03*
G01X1341120Y123091D03*
G01X1432560Y106680D03*
G01X1391920Y157480D03*
G01X2352040Y96520D03*
G01X695960Y599440D03*
G01X569829Y1358875D03*
G01X294640Y1275080D03*
G01X294640Y1195718D03*
G01X294640Y1114051D03*
G01X635000Y1178560D03*
G01X2013506Y1496774D03*
G01X2179320Y1204623D03*
G01X2367280Y1152903D03*
G01X873760Y533400D03*
G01X1356360Y452120D03*
G01X1087120Y1239520D03*
G01X679410Y970280D03*
G01X772160Y960120D03*
G01X1936257Y203245D03*
G01X1765419Y1321266D03*
G01X1534355Y1550966D03*
G01X2054701Y628683D03*
G01X2058638Y691783D03*
G01X2057400Y1209040D03*
G01X994608Y1323861D03*
G01X2051567Y571420D03*
G01X2025445Y354293D03*
G01X2026880Y291954D03*
G01X1986280Y228600D03*
G01X2066965Y253058D03*
G01X2041115Y202348D03*
G01X1892736Y1915160D03*
G01X1447800Y1948657D03*
G01X1595120Y1965960D03*
G01X1833880Y2143760D03*
G01X1357641Y2147839D03*
G01X1595120Y2323444D03*
G01X2013506Y1936727D03*
G01X1742440Y909320D03*
G01X1772920Y1168400D03*
G01X1930801Y1610440D03*
G01X1703048Y1549400D03*
G01X2392680Y1041400D03*
G01X2692400Y1320800D03*
G01X949960Y1031240D03*
G01X1239520Y721360D03*
G01X2265680Y619760D03*
G01X1336040Y1645920D03*
G01X2103120Y1681480D03*
G54D18*
G01X1788173Y572453D03*
G01X1688173Y572453D03*
G01X1788147Y372478D03*
G01X1688173Y372478D03*
G01X1888173Y572453D03*
G01X1888173Y372453D03*
G01X1788173Y472453D03*
G01X1888122Y472504D03*
G01X1688173Y472453D03*
G04 Via End*

G04 Track Start*
G54D20*
G01X680980Y968710D02*
G01X679410Y970280D01*
G54D11*
G01X2013506Y1496774D02*
G01X2242106Y1496774D01*
G01X2301326Y1437554D01*
G01X2301326Y1435389D01*
G01X2346843Y1389873D01*
G01X2349007Y1389873D01*
G01X2525608Y1213272D02*
G01X2349007Y1389873D01*
G01X2438400Y76200D02*
G01X2525608Y163408D01*
G01X2525608Y1213272D01*
G54D20*
G01X873760Y533400D02*
G01X873760Y528320D01*
G01X877976Y1330960D02*
G01X877976Y1281379D01*
G01X1351280Y808076D01*
G01X879747Y1480091D02*
G01X958309Y1480091D01*
G01X1386840Y1051560D01*
G01X879747Y1629221D02*
G01X956499Y1629221D01*
G01X1330960Y1254760D01*
G54D11*
G01X727304Y1478320D02*
G01X729074Y1480091D01*
G01X729074Y1629221D02*
G01X729074Y1778352D01*
G01X727304Y1330960D02*
G01X727304Y1404847D01*
G01X727304Y1478320D01*
G01X927070Y1404847D02*
G01X727304Y1404847D01*
G01X927070Y1404847D02*
G01X994608Y1337309D01*
G01X994608Y1323861D01*
G01X729074Y1480091D02*
G01X729074Y1558881D01*
G01X729074Y1629221D01*
G01X729834Y1558121D02*
G01X729074Y1558881D01*
G01X729834Y1558121D02*
G01X931627Y1558121D01*
G01X1351676Y1138072D02*
G01X931627Y1558121D01*
G54D20*
G01X1606156Y1254760D02*
G01X1607757Y1253160D01*
G01X1606156Y1254760D02*
G01X1330960Y1254760D01*
G54D11*
G01X1602677Y1138072D02*
G01X1607757Y1143152D01*
G01X1602677Y1138072D02*
G01X1351676Y1138072D01*
G54D20*
G01X1589342Y1051560D02*
G01X1607757Y1033145D01*
G01X1589342Y1051560D02*
G01X1386840Y1051560D01*
G01X879747Y1778352D02*
G01X1025808Y1778352D01*
G01X1417320Y1386840D01*
G01X1584058Y1386840D01*
G01X1607757Y1363142D01*
G01X1611135Y1366520D02*
G01X1607757Y1363142D01*
G01X1884680Y1366520D02*
G01X1611135Y1366520D01*
G01X1602677Y808076D02*
G01X1607757Y813156D01*
G01X1351280Y808076D02*
G01X1602677Y808076D01*
G01X1607757Y1253160D02*
G01X1871040Y1253160D01*
G01X1607757Y1033145D02*
G01X1872246Y1033145D01*
G01X772160Y960120D02*
G01X772160Y834806D01*
G01X680980Y897193D02*
G01X680980Y968710D01*
G01X635000Y1178560D02*
G01X635000Y914379D01*
G01X680980Y897193D02*
G01X993973Y584200D01*
G01X1539240Y355600D02*
G01X1599256Y295584D01*
G01X1559600Y370840D02*
G01X1614496Y315944D01*
G01X772160Y834806D02*
G01X1002406Y604560D01*
G01X1614496Y315944D02*
G01X1866946Y315944D01*
G01X1935480Y247410D01*
G01X1729589Y254864D02*
G01X1767840Y216613D01*
G01X1513840Y345440D02*
G01X1584056Y275224D01*
G01X1807576Y275224D01*
G01X569829Y1358875D02*
G01X571566Y1358875D01*
G01X1462177Y254864D02*
G01X1729589Y254864D01*
G01X635000Y914379D02*
G01X1176502Y372878D01*
G01X1344162Y372878D01*
G01X1462177Y254864D01*
G01X873760Y528320D02*
G01X1049563Y352517D01*
G01X1335729Y352517D01*
G01X1473983Y214263D01*
G01X1616647Y214263D01*
G01X1686560Y213360D02*
G01X1630680Y157480D01*
G01X1391920Y157480D01*
G01X1986280Y228600D02*
G01X1986280Y326213D01*
G01X1983067Y329426D01*
G01X1983067Y333413D01*
G01X1777644Y813156D02*
G01X1607757Y813156D01*
G01X1871040Y1253160D02*
G01X1991031Y1133169D01*
G01X1872246Y1033145D02*
G01X1970671Y934720D01*
G01X2301240Y355600D02*
G01X2301240Y561209D01*
G01X2321600Y347166D02*
G01X2321600Y552775D01*
G01X2479040Y710215D01*
G01X2479040Y1131154D01*
G01X2301240Y561209D02*
G01X2458680Y718649D01*
G01X2458680Y1122720D01*
G01X2169160Y1412240D02*
G01X2458680Y1122720D01*
G01X2177634Y1432560D02*
G01X1989674Y1432560D01*
G01X2479040Y1131154D02*
G01X2177634Y1432560D01*
G01X993973Y584200D02*
G01X1430401Y584200D01*
G01X1513840Y500761D01*
G01X1513840Y345440D01*
G01X1002406Y604560D02*
G01X1438835Y604560D01*
G01X1539240Y504155D01*
G01X1539240Y355600D01*
G01X1010840Y624920D02*
G01X1447268Y624920D01*
G01X1559600Y512588D01*
G01X1559600Y370840D01*
G01X1983067Y333413D02*
G01X1950311Y366169D01*
G01X1950311Y640489D01*
G01X1777644Y813156D01*
G54D11*
G01X1788173Y572453D02*
G01X1688173Y572453D01*
G01X1688173Y472453D02*
G01X1788173Y472453D01*
G01X1788147Y372478D02*
G01X1688173Y372478D01*
G01X1788147Y372478D02*
G01X1788147Y472427D01*
G01X1788173Y472453D02*
G01X1788173Y572453D01*
G01X1788173Y472453D02*
G01X1888071Y472453D01*
G01X1625377Y635248D02*
G01X1521200Y635248D01*
G01X1435088Y721360D01*
G01X1239520Y721360D01*
G01X1788173Y572453D02*
G01X1798455Y582735D01*
G01X1798455Y629920D01*
G01X1916129Y372453D02*
G01X1916129Y472504D01*
G01X1688173Y343924D02*
G01X1878535Y343924D01*
G01X1870212Y629920D02*
G01X1798455Y629920D01*
G01X1630705Y629920D01*
G01X1688173Y572453D02*
G01X1630705Y629920D01*
G01X1625377Y635248D01*
G01X1888173Y572453D02*
G01X1888173Y611959D01*
G01X1870212Y629920D01*
G54D20*
G01X1935480Y247410D02*
G01X1935480Y204022D01*
G01X1936257Y203245D01*
G01X1807576Y275224D02*
G01X1842467Y240333D01*
G01X1842467Y198120D01*
G01X1599256Y295584D02*
G01X1824530Y295584D01*
G01X1888287Y231827D01*
G01X2041115Y202348D02*
G01X2176782Y202348D01*
G01X2321600Y347166D01*
G01X2066965Y253058D02*
G01X2198698Y253058D01*
G01X2301240Y355600D01*
G01X1970671Y934720D02*
G01X1970671Y409067D01*
G01X2025445Y354293D01*
G01X2026880Y291954D02*
G01X2066045Y331119D01*
G01X2066045Y371111D01*
G01X1991031Y446124D01*
G01X1991031Y1133169D01*
G54D21*
G01X2179320Y1204623D02*
G01X2179320Y812465D01*
G01X2058638Y691783D01*
G54D20*
G01X2010889Y1240311D02*
G01X1884680Y1366520D01*
G01X2011391Y1141602D02*
G01X2010889Y1142105D01*
G01X2010889Y1240311D01*
G01X2051567Y571420D02*
G01X2011391Y611596D01*
G01X2011391Y1141602D01*
G54D21*
G01X2054701Y628683D02*
G01X2078010Y628683D01*
G01X2205458Y756131D01*
G54D20*
G01X571566Y1358875D02*
G01X812800Y1117640D01*
G01X812800Y822960D01*
G01X1010840Y624920D01*
G54D11*
G01X2013506Y1496774D02*
G01X2013506Y1936727D01*
G54D20*
G01X1989674Y1432560D02*
G01X1882576Y1539658D01*
G01X1882576Y1905000D01*
G01X1892736Y1915160D01*
G01X2169160Y1412240D02*
G01X1981240Y1412200D01*
G01X1862216Y1531224D01*
G01X1862216Y1534241D01*
G01X1447800Y1948657D01*
G54D21*
G01X2205458Y756131D02*
G01X2205458Y991082D01*
G01X2367280Y1152903D01*
G04 Track End*

M02*

