G04 Layer: DrillDrawingLayer*
G04 EasyEDA Pro v3.2.91, 2026-03-27 22:23:04*
G04 Gerber Generator version 0.3*
G04 Scale: 100 percent, Rotated: No, Reflected: No*
G04 Dimensions in millimeters*
G04 Leading zeros omitted, absolute positions, 4 integers and 5 decimals*
G04 Generated by one-click*
%FSLAX45Y45*%
%MOMM*%
%AMIconRect*4,1,4,0.28,-0.28,-0.28,-0.28,-0.28,0.28,0.28,0.28,0.28,-0.28,0*4,0,4,0.233333,-0.233333,0.233333,0.233333,-0.233333,0.233333,-0.233333,-0.233333,0.233333,-0.233333,0*%
%AMIconTriangle*4,1,3,-0.339593,0.240473,0.339593,0.240473,0,-0.37884,-0.339593,0.240473,0*4,0,3,-0.265673,0.19404,0,-0.27342,0.266233,0.19404,-0.265673,0.19404,0*%
%AMIconStar6*4,1,12,0.12068,0.20888,0.298527,0.172713,0.241313,0,0.298527,-0.17206,0.12068,-0.208227,0,-0.344073,-0.120073,-0.208227,-0.298573,-0.17206,-0.240707,0,-0.298573,0.17206,-0.120073,0.20888,0,0.344073,0.12068,0.20888,0*4,0,12,-0.000467,0.273467,-0.090067,0.171733,-0.237533,0.136733,-0.193667,-0.007467,-0.237533,-0.1372,-0.090067,-0.171733,-0.000467,-0.273933,0.090067,-0.171733,0.237533,-0.1372,0.194133,0.007,0.237533,0.1372,0.090067,0.171267,-0.000467,0.273467,0*%
%AMIconStar4*4,1,8,-0.311733,0.311733,0,0.202533,0.311733,0.311733,0.202533,0,0.311733,-0.311733,0,-0.202533,-0.304407,-0.311733,-0.202533,0,-0.311733,0.311733,0*4,0,8,0.233333,-0.233333,0.1512,0,0.233333,0.233333,0,0.1512,-0.233333,0.233333,-0.1512,0,-0.233333,-0.233333,0,-0.1512,0.233333,-0.233333,0*%
%ADD10IconRect*%
%ADD11C,0.616X0.522667*%
%ADD12IconTriangle*%
%ADD13IconStar6*%
%ADD14IconStar4*%
%ADD15C,0.2032*%
%ADD16C,0.254*%
G75*


G04 Drill Drawing Start*
G54D10*
G01X2327016Y746067D03*
G01X2327018Y1611069D03*
G54D11*
G01X2747023Y746062D03*
G01X2747023Y1611059D03*
G54D12*
G01X2379028Y889572D03*
G01X2379028Y1467574D03*
G54D13*
G01X1688173Y372478D03*
G01X1688173Y472453D03*
G01X1688173Y572453D03*
G01X1788147Y372478D03*
G01X1788173Y472453D03*
G01X1788173Y572453D03*
G01X1888122Y472504D03*
G01X1888173Y372453D03*
G01X1888173Y572453D03*
G54D14*
G01X294640Y1114051D03*
G01X294640Y1195718D03*
G01X294640Y1275080D03*
G01X569829Y1358875D03*
G01X627735Y304800D03*
G01X635000Y1178560D03*
G01X679410Y970280D03*
G01X695960Y599440D03*
G01X720938Y304800D03*
G01X772160Y960120D03*
G01X814142Y304800D03*
G01X873760Y533400D03*
G01X907345Y304800D03*
G01X949960Y1031240D03*
G01X994608Y1323861D03*
G01X1000549Y304800D03*
G01X1087120Y1239520D03*
G01X1093753Y304800D03*
G01X1186956Y304800D03*
G01X1239520Y721360D03*
G01X1280160Y304800D03*
G01X1336040Y1645920D03*
G01X1337996Y259080D03*
G01X1341120Y123091D03*
G01X1341120Y191085D03*
G01X1356360Y452120D03*
G01X1357641Y2147839D03*
G01X1391920Y157480D03*
G01X1432560Y106680D03*
G01X1447800Y1948657D03*
G01X1534355Y1550966D03*
G01X1595120Y1965960D03*
G01X1595120Y2323444D03*
G01X1616647Y214263D03*
G01X1686560Y213360D03*
G01X1703048Y1549400D03*
G01X1742440Y909320D03*
G01X1765419Y1321266D03*
G01X1767840Y216613D03*
G01X1772920Y1168400D03*
G01X1833880Y2143760D03*
G01X1842467Y198120D03*
G01X1888287Y231827D03*
G01X1892736Y1915160D03*
G01X1930801Y1610440D03*
G01X1936257Y203245D03*
G01X1986280Y228600D03*
G01X2013506Y1496774D03*
G01X2013506Y1936727D03*
G01X2025445Y354293D03*
G01X2026880Y291954D03*
G01X2041115Y202348D03*
G01X2051567Y571420D03*
G01X2054701Y628683D03*
G01X2057400Y1209040D03*
G01X2058638Y691783D03*
G01X2066965Y253058D03*
G01X2103120Y1681480D03*
G01X2179320Y1204623D03*
G01X2265680Y619760D03*
G01X2352040Y96520D03*
G01X2367280Y1152903D03*
G01X2392680Y1041400D03*
G01X2438400Y76200D03*
G01X2462989Y572557D03*
G01X2573828Y380173D03*
G01X2692400Y1320800D03*
G04 Drill Drawing End*

G04 Text Start*
G54D15*
G01X5167888Y2154598D02*
G01X5167888Y2034456D01*
G01X5167888Y2154598D02*
G01X5213608Y2034456D01*
G01X5259328Y2154598D02*
G01X5213608Y2034456D01*
G01X5259328Y2154598D02*
G01X5259328Y2034456D01*
G01X5375660Y2114466D02*
G01X5375660Y2034456D01*
G01X5375660Y2097448D02*
G01X5364230Y2108878D01*
G01X5352800Y2114466D01*
G01X5335782Y2114466D01*
G01X5324352Y2108878D01*
G01X5312922Y2097448D01*
G01X5307080Y2080176D01*
G01X5307080Y2068746D01*
G01X5312922Y2051728D01*
G01X5324352Y2040298D01*
G01X5335782Y2034456D01*
G01X5352800Y2034456D01*
G01X5364230Y2040298D01*
G01X5375660Y2051728D01*
G01X5423412Y2114466D02*
G01X5423412Y2034456D01*
G01X5423412Y2080176D02*
G01X5429254Y2097448D01*
G01X5440684Y2108878D01*
G01X5452114Y2114466D01*
G01X5469132Y2114466D01*
G01X5516884Y2154598D02*
G01X5516884Y2034456D01*
G01X5574034Y2114466D02*
G01X5516884Y2057316D01*
G01X5539744Y2080176D02*
G01X5579876Y2034456D01*
G01X6705169Y2125896D02*
G01X6699327Y2137326D01*
G01X6687897Y2148756D01*
G01X6676467Y2154598D01*
G01X6653607Y2154598D01*
G01X6642177Y2148756D01*
G01X6630747Y2137326D01*
G01X6625159Y2125896D01*
G01X6619317Y2108878D01*
G01X6619317Y2080176D01*
G01X6625159Y2063158D01*
G01X6630747Y2051728D01*
G01X6642177Y2040298D01*
G01X6653607Y2034456D01*
G01X6676467Y2034456D01*
G01X6687897Y2040298D01*
G01X6699327Y2051728D01*
G01X6705169Y2063158D01*
G01X6781623Y2114466D02*
G01X6770193Y2108878D01*
G01X6758763Y2097448D01*
G01X6752921Y2080176D01*
G01X6752921Y2068746D01*
G01X6758763Y2051728D01*
G01X6770193Y2040298D01*
G01X6781623Y2034456D01*
G01X6798641Y2034456D01*
G01X6810071Y2040298D01*
G01X6821501Y2051728D01*
G01X6827343Y2068746D01*
G01X6827343Y2080176D01*
G01X6821501Y2097448D01*
G01X6810071Y2108878D01*
G01X6798641Y2114466D01*
G01X6781623Y2114466D01*
G01X6875095Y2114466D02*
G01X6875095Y2057316D01*
G01X6880937Y2040298D01*
G01X6892367Y2034456D01*
G01X6909385Y2034456D01*
G01X6920815Y2040298D01*
G01X6938087Y2057316D01*
G01X6938087Y2114466D02*
G01X6938087Y2034456D01*
G01X6985839Y2114466D02*
G01X6985839Y2034456D01*
G01X6985839Y2091606D02*
G01X7003111Y2108878D01*
G01X7014541Y2114466D01*
G01X7031559Y2114466D01*
G01X7042989Y2108878D01*
G01X7048831Y2091606D01*
G01X7048831Y2034456D01*
G01X7113855Y2154598D02*
G01X7113855Y2057316D01*
G01X7119443Y2040298D01*
G01X7130873Y2034456D01*
G01X7142303Y2034456D01*
G01X7096583Y2114466D02*
G01X7136715Y2114466D01*
G01X8113490Y2137326D02*
G01X8102060Y2148756D01*
G01X8085042Y2154598D01*
G01X8062182Y2154598D01*
G01X8044910Y2148756D01*
G01X8033480Y2137326D01*
G01X8033480Y2125896D01*
G01X8039322Y2114466D01*
G01X8044910Y2108878D01*
G01X8056340Y2103036D01*
G01X8090630Y2091606D01*
G01X8102060Y2086018D01*
G01X8107902Y2080176D01*
G01X8113490Y2068746D01*
G01X8113490Y2051728D01*
G01X8102060Y2040298D01*
G01X8085042Y2034456D01*
G01X8062182Y2034456D01*
G01X8044910Y2040298D01*
G01X8033480Y2051728D01*
G01X8161242Y2154598D02*
G01X8167084Y2148756D01*
G01X8172672Y2154598D01*
G01X8167084Y2160186D01*
G01X8161242Y2154598D01*
G01X8167084Y2114466D02*
G01X8167084Y2034456D01*
G01X8283416Y2114466D02*
G01X8220424Y2034456D01*
G01X8220424Y2114466D02*
G01X8283416Y2114466D01*
G01X8220424Y2034456D02*
G01X8283416Y2034456D01*
G01X8331168Y2080176D02*
G01X8399748Y2080176D01*
G01X8399748Y2091606D01*
G01X8394160Y2103036D01*
G01X8388318Y2108878D01*
G01X8376888Y2114466D01*
G01X8359870Y2114466D01*
G01X8348440Y2108878D01*
G01X8337010Y2097448D01*
G01X8331168Y2080176D01*
G01X8331168Y2068746D01*
G01X8337010Y2051728D01*
G01X8348440Y2040298D01*
G01X8359870Y2034456D01*
G01X8376888Y2034456D01*
G01X8388318Y2040298D01*
G01X8399748Y2051728D01*
G01X11870295Y2154598D02*
G01X11870295Y2034456D01*
G01X11870295Y2154598D02*
G01X11921857Y2154598D01*
G01X11938875Y2148756D01*
G01X11944717Y2143168D01*
G01X11950305Y2131738D01*
G01X11950305Y2114466D01*
G01X11944717Y2103036D01*
G01X11938875Y2097448D01*
G01X11921857Y2091606D01*
G01X11870295Y2091606D01*
G01X11998057Y2154598D02*
G01X11998057Y2034456D01*
G01X12114389Y2114466D02*
G01X12114389Y2034456D01*
G01X12114389Y2097448D02*
G01X12102959Y2108878D01*
G01X12091529Y2114466D01*
G01X12074511Y2114466D01*
G01X12063081Y2108878D01*
G01X12051651Y2097448D01*
G01X12045809Y2080176D01*
G01X12045809Y2068746D01*
G01X12051651Y2051728D01*
G01X12063081Y2040298D01*
G01X12074511Y2034456D01*
G01X12091529Y2034456D01*
G01X12102959Y2040298D01*
G01X12114389Y2051728D01*
G01X12179413Y2154598D02*
G01X12179413Y2057316D01*
G01X12185001Y2040298D01*
G01X12196431Y2034456D01*
G01X12207861Y2034456D01*
G01X12162141Y2114466D02*
G01X12202273Y2114466D01*
G01X12255613Y2080176D02*
G01X12324193Y2080176D01*
G01X12324193Y2091606D01*
G01X12318605Y2103036D01*
G01X12312763Y2108878D01*
G01X12301333Y2114466D01*
G01X12284315Y2114466D01*
G01X12272885Y2108878D01*
G01X12261455Y2097448D01*
G01X12255613Y2080176D01*
G01X12255613Y2068746D01*
G01X12261455Y2051728D01*
G01X12272885Y2040298D01*
G01X12284315Y2034456D01*
G01X12301333Y2034456D01*
G01X12312763Y2040298D01*
G01X12324193Y2051728D01*
G01X12440525Y2154598D02*
G01X12440525Y2034456D01*
G01X12440525Y2097448D02*
G01X12429095Y2108878D01*
G01X12417665Y2114466D01*
G01X12400647Y2114466D01*
G01X12389217Y2108878D01*
G01X12377787Y2097448D01*
G01X12371945Y2080176D01*
G01X12371945Y2068746D01*
G01X12377787Y2051728D01*
G01X12389217Y2040298D01*
G01X12400647Y2034456D01*
G01X12417665Y2034456D01*
G01X12429095Y2040298D01*
G01X12440525Y2051728D01*
G01X13411712Y2137326D02*
G01X13400282Y2148756D01*
G01X13383264Y2154598D01*
G01X13360404Y2154598D01*
G01X13343132Y2148756D01*
G01X13331702Y2137326D01*
G01X13331702Y2125896D01*
G01X13337544Y2114466D01*
G01X13343132Y2108878D01*
G01X13354562Y2103036D01*
G01X13388852Y2091606D01*
G01X13400282Y2086018D01*
G01X13406124Y2080176D01*
G01X13411712Y2068746D01*
G01X13411712Y2051728D01*
G01X13400282Y2040298D01*
G01X13383264Y2034456D01*
G01X13360404Y2034456D01*
G01X13343132Y2040298D01*
G01X13331702Y2051728D01*
G01X13459464Y2154598D02*
G01X13459464Y2034456D01*
G01X13459464Y2091606D02*
G01X13476736Y2108878D01*
G01X13488166Y2114466D01*
G01X13505184Y2114466D01*
G01X13516614Y2108878D01*
G01X13522456Y2091606D01*
G01X13522456Y2034456D01*
G01X13638788Y2114466D02*
G01X13638788Y2034456D01*
G01X13638788Y2097448D02*
G01X13627358Y2108878D01*
G01X13615928Y2114466D01*
G01X13598910Y2114466D01*
G01X13587480Y2108878D01*
G01X13576050Y2097448D01*
G01X13570208Y2080176D01*
G01X13570208Y2068746D01*
G01X13576050Y2051728D01*
G01X13587480Y2040298D01*
G01X13598910Y2034456D01*
G01X13615928Y2034456D01*
G01X13627358Y2040298D01*
G01X13638788Y2051728D01*
G01X13686540Y2114466D02*
G01X13686540Y1994578D01*
G01X13686540Y2097448D02*
G01X13697970Y2108878D01*
G01X13709400Y2114466D01*
G01X13726672Y2114466D01*
G01X13738102Y2108878D01*
G01X13749532Y2097448D01*
G01X13755120Y2080176D01*
G01X13755120Y2068746D01*
G01X13749532Y2051728D01*
G01X13738102Y2040298D01*
G01X13726672Y2034456D01*
G01X13709400Y2034456D01*
G01X13697970Y2040298D01*
G01X13686540Y2051728D01*
G01X13802872Y2080176D02*
G01X13871452Y2080176D01*
G01X13871452Y2091606D01*
G01X13865864Y2103036D01*
G01X13860022Y2108878D01*
G01X13848592Y2114466D01*
G01X13831574Y2114466D01*
G01X13820144Y2108878D01*
G01X13808714Y2097448D01*
G01X13802872Y2080176D01*
G01X13802872Y2068746D01*
G01X13808714Y2051728D01*
G01X13820144Y2040298D01*
G01X13831574Y2034456D01*
G01X13848592Y2034456D01*
G01X13860022Y2040298D01*
G01X13871452Y2051728D01*
G01X14762883Y2154598D02*
G01X14808603Y2034456D01*
G01X14854323Y2154598D02*
G01X14808603Y2034456D01*
G01X14902075Y2154598D02*
G01X14907917Y2148756D01*
G01X14913505Y2154598D01*
G01X14907917Y2160186D01*
G01X14902075Y2154598D01*
G01X14907917Y2114466D02*
G01X14907917Y2034456D01*
G01X15029837Y2114466D02*
G01X15029837Y2034456D01*
G01X15029837Y2097448D02*
G01X15018407Y2108878D01*
G01X15006977Y2114466D01*
G01X14989959Y2114466D01*
G01X14978529Y2108878D01*
G01X14967099Y2097448D01*
G01X14961257Y2080176D01*
G01X14961257Y2068746D01*
G01X14967099Y2051728D01*
G01X14978529Y2040298D01*
G01X14989959Y2034456D01*
G01X15006977Y2034456D01*
G01X15018407Y2040298D01*
G01X15029837Y2051728D01*
G01X15180459Y2177458D02*
G01X15077589Y1994578D01*
G01X15228211Y2154598D02*
G01X15228211Y2034456D01*
G01X15228211Y2154598D02*
G01X15279773Y2154598D01*
G01X15296791Y2148756D01*
G01X15302633Y2143168D01*
G01X15308221Y2131738D01*
G01X15308221Y2114466D01*
G01X15302633Y2103036D01*
G01X15296791Y2097448D01*
G01X15279773Y2091606D01*
G01X15228211Y2091606D01*
G01X15424553Y2114466D02*
G01X15424553Y2034456D01*
G01X15424553Y2097448D02*
G01X15413123Y2108878D01*
G01X15401693Y2114466D01*
G01X15384675Y2114466D01*
G01X15373245Y2108878D01*
G01X15361815Y2097448D01*
G01X15355973Y2080176D01*
G01X15355973Y2068746D01*
G01X15361815Y2051728D01*
G01X15373245Y2040298D01*
G01X15384675Y2034456D01*
G01X15401693Y2034456D01*
G01X15413123Y2040298D01*
G01X15424553Y2051728D01*
G01X15540885Y2154598D02*
G01X15540885Y2034456D01*
G01X15540885Y2097448D02*
G01X15529455Y2108878D01*
G01X15518025Y2114466D01*
G01X15501007Y2114466D01*
G01X15489577Y2108878D01*
G01X15478147Y2097448D01*
G01X15472305Y2080176D01*
G01X15472305Y2068746D01*
G01X15478147Y2051728D01*
G01X15489577Y2040298D01*
G01X15501007Y2034456D01*
G01X15518025Y2034456D01*
G01X15529455Y2040298D01*
G01X15540885Y2051728D01*
G01X16432063Y2154598D02*
G01X16432063Y2034456D01*
G01X16432063Y2154598D02*
G01X16483625Y2154598D01*
G01X16500643Y2148756D01*
G01X16506485Y2143168D01*
G01X16512073Y2131738D01*
G01X16512073Y2114466D01*
G01X16506485Y2103036D01*
G01X16500643Y2097448D01*
G01X16483625Y2091606D01*
G01X16432063Y2091606D01*
G01X16628405Y2114466D02*
G01X16628405Y2034456D01*
G01X16628405Y2097448D02*
G01X16616975Y2108878D01*
G01X16605545Y2114466D01*
G01X16588527Y2114466D01*
G01X16577097Y2108878D01*
G01X16565667Y2097448D01*
G01X16559825Y2080176D01*
G01X16559825Y2068746D01*
G01X16565667Y2051728D01*
G01X16577097Y2040298D01*
G01X16588527Y2034456D01*
G01X16605545Y2034456D01*
G01X16616975Y2040298D01*
G01X16628405Y2051728D01*
G01X16744737Y2154598D02*
G01X16744737Y2034456D01*
G01X16744737Y2097448D02*
G01X16733307Y2108878D01*
G01X16721877Y2114466D01*
G01X16704859Y2114466D01*
G01X16693429Y2108878D01*
G01X16681999Y2097448D01*
G01X16676157Y2080176D01*
G01X16676157Y2068746D01*
G01X16681999Y2051728D01*
G01X16693429Y2040298D01*
G01X16704859Y2034456D01*
G01X16721877Y2034456D01*
G01X16733307Y2040298D01*
G01X16744737Y2051728D01*
G01X17000515Y2137326D02*
G01X16989085Y2148756D01*
G01X16972067Y2154598D01*
G01X16949207Y2154598D01*
G01X16931935Y2148756D01*
G01X16920505Y2137326D01*
G01X16920505Y2125896D01*
G01X16926347Y2114466D01*
G01X16931935Y2108878D01*
G01X16943365Y2103036D01*
G01X16977655Y2091606D01*
G01X16989085Y2086018D01*
G01X16994927Y2080176D01*
G01X17000515Y2068746D01*
G01X17000515Y2051728D01*
G01X16989085Y2040298D01*
G01X16972067Y2034456D01*
G01X16949207Y2034456D01*
G01X16931935Y2040298D01*
G01X16920505Y2051728D01*
G01X17048267Y2154598D02*
G01X17048267Y2034456D01*
G01X17048267Y2091606D02*
G01X17065539Y2108878D01*
G01X17076969Y2114466D01*
G01X17093987Y2114466D01*
G01X17105417Y2108878D01*
G01X17111259Y2091606D01*
G01X17111259Y2034456D01*
G01X17227591Y2114466D02*
G01X17227591Y2034456D01*
G01X17227591Y2097448D02*
G01X17216161Y2108878D01*
G01X17204731Y2114466D01*
G01X17187713Y2114466D01*
G01X17176283Y2108878D01*
G01X17164853Y2097448D01*
G01X17159011Y2080176D01*
G01X17159011Y2068746D01*
G01X17164853Y2051728D01*
G01X17176283Y2040298D01*
G01X17187713Y2034456D01*
G01X17204731Y2034456D01*
G01X17216161Y2040298D01*
G01X17227591Y2051728D01*
G01X17275343Y2114466D02*
G01X17275343Y1994578D01*
G01X17275343Y2097448D02*
G01X17286773Y2108878D01*
G01X17298203Y2114466D01*
G01X17315475Y2114466D01*
G01X17326905Y2108878D01*
G01X17338335Y2097448D01*
G01X17343923Y2080176D01*
G01X17343923Y2068746D01*
G01X17338335Y2051728D01*
G01X17326905Y2040298D01*
G01X17315475Y2034456D01*
G01X17298203Y2034456D01*
G01X17286773Y2040298D01*
G01X17275343Y2051728D01*
G01X17391675Y2080176D02*
G01X17460255Y2080176D01*
G01X17460255Y2091606D01*
G01X17454667Y2103036D01*
G01X17448825Y2108878D01*
G01X17437395Y2114466D01*
G01X17420377Y2114466D01*
G01X17408947Y2108878D01*
G01X17397517Y2097448D01*
G01X17391675Y2080176D01*
G01X17391675Y2068746D01*
G01X17397517Y2051728D01*
G01X17408947Y2040298D01*
G01X17420377Y2034456D01*
G01X17437395Y2034456D01*
G01X17448825Y2040298D01*
G01X17460255Y2051728D01*
G01X18351432Y2154598D02*
G01X18351432Y2034456D01*
G01X18351432Y2034456D02*
G01X18420012Y2034456D01*
G01X18536344Y2114466D02*
G01X18536344Y2034456D01*
G01X18536344Y2097448D02*
G01X18524914Y2108878D01*
G01X18513484Y2114466D01*
G01X18496466Y2114466D01*
G01X18485036Y2108878D01*
G01X18473606Y2097448D01*
G01X18467764Y2080176D01*
G01X18467764Y2068746D01*
G01X18473606Y2051728D01*
G01X18485036Y2040298D01*
G01X18496466Y2034456D01*
G01X18513484Y2034456D01*
G01X18524914Y2040298D01*
G01X18536344Y2051728D01*
G01X18589938Y2114466D02*
G01X18624228Y2034456D01*
G01X18658518Y2114466D02*
G01X18624228Y2034456D01*
G01X18612798Y2011596D01*
G01X18601368Y2000166D01*
G01X18589938Y1994578D01*
G01X18584096Y1994578D01*
G01X18706270Y2080176D02*
G01X18774850Y2080176D01*
G01X18774850Y2091606D01*
G01X18769262Y2103036D01*
G01X18763420Y2108878D01*
G01X18751990Y2114466D01*
G01X18734972Y2114466D01*
G01X18723542Y2108878D01*
G01X18712112Y2097448D01*
G01X18706270Y2080176D01*
G01X18706270Y2068746D01*
G01X18712112Y2051728D01*
G01X18723542Y2040298D01*
G01X18734972Y2034456D01*
G01X18751990Y2034456D01*
G01X18763420Y2040298D01*
G01X18774850Y2051728D01*
G01X18822602Y2114466D02*
G01X18822602Y2034456D01*
G01X18822602Y2080176D02*
G01X18828444Y2097448D01*
G01X18839874Y2108878D01*
G01X18851304Y2114466D01*
G01X18868322Y2114466D01*
G01X19044090Y2154598D02*
G01X19044090Y2034456D01*
G01X19044090Y2154598D02*
G01X19095652Y2154598D01*
G01X19112670Y2148756D01*
G01X19118512Y2143168D01*
G01X19124100Y2131738D01*
G01X19124100Y2114466D01*
G01X19118512Y2103036D01*
G01X19112670Y2097448D01*
G01X19095652Y2091606D01*
G01X19044090Y2091606D01*
G01X19240432Y2114466D02*
G01X19240432Y2034456D01*
G01X19240432Y2097448D02*
G01X19229002Y2108878D01*
G01X19217572Y2114466D01*
G01X19200554Y2114466D01*
G01X19189124Y2108878D01*
G01X19177694Y2097448D01*
G01X19171852Y2080176D01*
G01X19171852Y2068746D01*
G01X19177694Y2051728D01*
G01X19189124Y2040298D01*
G01X19200554Y2034456D01*
G01X19217572Y2034456D01*
G01X19229002Y2040298D01*
G01X19240432Y2051728D01*
G01X19288184Y2154598D02*
G01X19294026Y2148756D01*
G01X19299614Y2154598D01*
G01X19294026Y2160186D01*
G01X19288184Y2154598D01*
G01X19294026Y2114466D02*
G01X19294026Y2034456D01*
G01X19347366Y2114466D02*
G01X19347366Y2034456D01*
G01X19347366Y2080176D02*
G01X19353208Y2097448D01*
G01X19364638Y2108878D01*
G01X19376068Y2114466D01*
G01X19393086Y2114466D01*
G01X6625159Y1545325D02*
G01X6625159Y1551167D01*
G01X6630747Y1562597D01*
G01X6636589Y1568185D01*
G01X6648019Y1574027D01*
G01X6670879Y1574027D01*
G01X6682309Y1568185D01*
G01X6687897Y1562597D01*
G01X6693739Y1551167D01*
G01X6693739Y1539737D01*
G01X6687897Y1528307D01*
G01X6676467Y1511035D01*
G01X6619317Y1453885D01*
G01X6699327Y1453885D01*
G01X8039322Y1545325D02*
G01X8039322Y1551167D01*
G01X8044910Y1562597D01*
G01X8050752Y1568185D01*
G01X8062182Y1574027D01*
G01X8085042Y1574027D01*
G01X8096472Y1568185D01*
G01X8102060Y1562597D01*
G01X8107902Y1551167D01*
G01X8107902Y1539737D01*
G01X8102060Y1528307D01*
G01X8090630Y1511035D01*
G01X8033480Y1453885D01*
G01X8113490Y1453885D01*
G01X8172672Y1574027D02*
G01X8235664Y1574027D01*
G01X8201374Y1528307D01*
G01X8218392Y1528307D01*
G01X8229822Y1522465D01*
G01X8235664Y1516877D01*
G01X8241252Y1499605D01*
G01X8241252Y1488175D01*
G01X8235664Y1471157D01*
G01X8224234Y1459727D01*
G01X8206962Y1453885D01*
G01X8189944Y1453885D01*
G01X8172672Y1459727D01*
G01X8167084Y1465315D01*
G01X8161242Y1476745D01*
G01X8294846Y1482587D02*
G01X8289004Y1476745D01*
G01X8294846Y1471157D01*
G01X8300434Y1476745D01*
G01X8294846Y1482587D01*
G01X8416766Y1556755D02*
G01X8411178Y1568185D01*
G01X8393906Y1574027D01*
G01X8382476Y1574027D01*
G01X8365458Y1568185D01*
G01X8354028Y1551167D01*
G01X8348186Y1522465D01*
G01X8348186Y1494017D01*
G01X8354028Y1471157D01*
G01X8365458Y1459727D01*
G01X8382476Y1453885D01*
G01X8388318Y1453885D01*
G01X8405336Y1459727D01*
G01X8416766Y1471157D01*
G01X8422608Y1488175D01*
G01X8422608Y1494017D01*
G01X8416766Y1511035D01*
G01X8405336Y1522465D01*
G01X8388318Y1528307D01*
G01X8382476Y1528307D01*
G01X8365458Y1522465D01*
G01X8354028Y1511035D01*
G01X8348186Y1494017D01*
G01X8470360Y1533895D02*
G01X8533352Y1453885D01*
G01X8533352Y1533895D02*
G01X8470360Y1453885D01*
G01X8649684Y1574027D02*
G01X8592534Y1574027D01*
G01X8586946Y1522465D01*
G01X8592534Y1528307D01*
G01X8609806Y1533895D01*
G01X8626824Y1533895D01*
G01X8644096Y1528307D01*
G01X8655526Y1516877D01*
G01X8661114Y1499605D01*
G01X8661114Y1488175D01*
G01X8655526Y1471157D01*
G01X8644096Y1459727D01*
G01X8626824Y1453885D01*
G01X8609806Y1453885D01*
G01X8592534Y1459727D01*
G01X8586946Y1465315D01*
G01X8581104Y1476745D01*
G01X8783288Y1533895D02*
G01X8777446Y1516877D01*
G01X8766016Y1505447D01*
G01X8748998Y1499605D01*
G01X8743156Y1499605D01*
G01X8726138Y1505447D01*
G01X8714708Y1516877D01*
G01X8708866Y1533895D01*
G01X8708866Y1539737D01*
G01X8714708Y1556755D01*
G01X8726138Y1568185D01*
G01X8743156Y1574027D01*
G01X8748998Y1574027D01*
G01X8766016Y1568185D01*
G01X8777446Y1556755D01*
G01X8783288Y1533895D01*
G01X8783288Y1505447D01*
G01X8777446Y1476745D01*
G01X8766016Y1459727D01*
G01X8748998Y1453885D01*
G01X8737568Y1453885D01*
G01X8720296Y1459727D01*
G01X8714708Y1471157D01*
G01X8836882Y1482587D02*
G01X8831040Y1476745D01*
G01X8836882Y1471157D01*
G01X8842470Y1476745D01*
G01X8836882Y1482587D01*
G01X8890222Y1551167D02*
G01X8901652Y1556755D01*
G01X8918924Y1574027D01*
G01X8918924Y1453885D01*
G01X8966676Y1533895D02*
G01X8966676Y1453885D01*
G01X8966676Y1511035D02*
G01X8983948Y1528307D01*
G01X8995378Y1533895D01*
G01X9012396Y1533895D01*
G01X9023826Y1528307D01*
G01X9029668Y1511035D01*
G01X9029668Y1453885D01*
G01X9029668Y1511035D02*
G01X9046686Y1528307D01*
G01X9058116Y1533895D01*
G01X9075388Y1533895D01*
G01X9086818Y1528307D01*
G01X9092406Y1511035D01*
G01X9092406Y1453885D01*
G01X9140158Y1574027D02*
G01X9146000Y1568185D01*
G01X9151588Y1574027D01*
G01X9146000Y1579615D01*
G01X9140158Y1574027D01*
G01X9146000Y1533895D02*
G01X9146000Y1453885D01*
G01X9199340Y1574027D02*
G01X9199340Y1453885D01*
G01X9287224Y1596887D02*
G01X9275794Y1585457D01*
G01X9264364Y1568185D01*
G01X9252934Y1545325D01*
G01X9247092Y1516877D01*
G01X9247092Y1494017D01*
G01X9252934Y1465315D01*
G01X9264364Y1442455D01*
G01X9275794Y1425437D01*
G01X9287224Y1414007D01*
G01X9369266Y1574027D02*
G01X9352248Y1568185D01*
G01X9340818Y1551167D01*
G01X9334976Y1522465D01*
G01X9334976Y1505447D01*
G01X9340818Y1476745D01*
G01X9352248Y1459727D01*
G01X9369266Y1453885D01*
G01X9380696Y1453885D01*
G01X9397968Y1459727D01*
G01X9409398Y1476745D01*
G01X9414986Y1505447D01*
G01X9414986Y1522465D01*
G01X9409398Y1551167D01*
G01X9397968Y1568185D01*
G01X9380696Y1574027D01*
G01X9369266Y1574027D01*
G01X9468580Y1482587D02*
G01X9462738Y1476745D01*
G01X9468580Y1471157D01*
G01X9474168Y1476745D01*
G01X9468580Y1482587D01*
G01X9590500Y1556755D02*
G01X9584912Y1568185D01*
G01X9567640Y1574027D01*
G01X9556210Y1574027D01*
G01X9539192Y1568185D01*
G01X9527762Y1551167D01*
G01X9521920Y1522465D01*
G01X9521920Y1494017D01*
G01X9527762Y1471157D01*
G01X9539192Y1459727D01*
G01X9556210Y1453885D01*
G01X9562052Y1453885D01*
G01X9579070Y1459727D01*
G01X9590500Y1471157D01*
G01X9596342Y1488175D01*
G01X9596342Y1494017D01*
G01X9590500Y1511035D01*
G01X9579070Y1522465D01*
G01X9562052Y1528307D01*
G01X9556210Y1528307D01*
G01X9539192Y1522465D01*
G01X9527762Y1511035D01*
G01X9521920Y1494017D01*
G01X9678384Y1574027D02*
G01X9661366Y1568185D01*
G01X9649936Y1551167D01*
G01X9644094Y1522465D01*
G01X9644094Y1505447D01*
G01X9649936Y1476745D01*
G01X9661366Y1459727D01*
G01X9678384Y1453885D01*
G01X9689814Y1453885D01*
G01X9707086Y1459727D01*
G01X9718516Y1476745D01*
G01X9724104Y1505447D01*
G01X9724104Y1522465D01*
G01X9718516Y1551167D01*
G01X9707086Y1568185D01*
G01X9689814Y1574027D01*
G01X9678384Y1574027D01*
G01X9806146Y1574027D02*
G01X9789128Y1568185D01*
G01X9777698Y1551167D01*
G01X9771856Y1522465D01*
G01X9771856Y1505447D01*
G01X9777698Y1476745D01*
G01X9789128Y1459727D01*
G01X9806146Y1453885D01*
G01X9817576Y1453885D01*
G01X9834848Y1459727D01*
G01X9846278Y1476745D01*
G01X9851866Y1505447D01*
G01X9851866Y1522465D01*
G01X9846278Y1551167D01*
G01X9834848Y1568185D01*
G01X9817576Y1574027D01*
G01X9806146Y1574027D01*
G01X9899618Y1533895D02*
G01X9962610Y1453885D01*
G01X9962610Y1533895D02*
G01X9899618Y1453885D01*
G01X10010362Y1551167D02*
G01X10021792Y1556755D01*
G01X10039064Y1574027D01*
G01X10039064Y1453885D01*
G01X10092658Y1482587D02*
G01X10086816Y1476745D01*
G01X10092658Y1471157D01*
G01X10098246Y1476745D01*
G01X10092658Y1482587D01*
G01X10214578Y1574027D02*
G01X10157428Y1574027D01*
G01X10151840Y1522465D01*
G01X10157428Y1528307D01*
G01X10174700Y1533895D01*
G01X10191718Y1533895D01*
G01X10208990Y1528307D01*
G01X10220420Y1516877D01*
G01X10226008Y1499605D01*
G01X10226008Y1488175D01*
G01X10220420Y1471157D01*
G01X10208990Y1459727D01*
G01X10191718Y1453885D01*
G01X10174700Y1453885D01*
G01X10157428Y1459727D01*
G01X10151840Y1465315D01*
G01X10145998Y1476745D01*
G01X10308050Y1574027D02*
G01X10291032Y1568185D01*
G01X10279602Y1551167D01*
G01X10273760Y1522465D01*
G01X10273760Y1505447D01*
G01X10279602Y1476745D01*
G01X10291032Y1459727D01*
G01X10308050Y1453885D01*
G01X10319480Y1453885D01*
G01X10336752Y1459727D01*
G01X10348182Y1476745D01*
G01X10353770Y1505447D01*
G01X10353770Y1522465D01*
G01X10348182Y1551167D01*
G01X10336752Y1568185D01*
G01X10319480Y1574027D01*
G01X10308050Y1574027D01*
G01X10435812Y1574027D02*
G01X10418794Y1568185D01*
G01X10407364Y1551167D01*
G01X10401522Y1522465D01*
G01X10401522Y1505447D01*
G01X10407364Y1476745D01*
G01X10418794Y1459727D01*
G01X10435812Y1453885D01*
G01X10447242Y1453885D01*
G01X10464514Y1459727D01*
G01X10475944Y1476745D01*
G01X10481532Y1505447D01*
G01X10481532Y1522465D01*
G01X10475944Y1551167D01*
G01X10464514Y1568185D01*
G01X10447242Y1574027D01*
G01X10435812Y1574027D01*
G01X10529284Y1533895D02*
G01X10529284Y1453885D01*
G01X10529284Y1511035D02*
G01X10546556Y1528307D01*
G01X10557986Y1533895D01*
G01X10575004Y1533895D01*
G01X10586434Y1528307D01*
G01X10592276Y1511035D01*
G01X10592276Y1453885D01*
G01X10592276Y1511035D02*
G01X10609294Y1528307D01*
G01X10620724Y1533895D01*
G01X10637996Y1533895D01*
G01X10649426Y1528307D01*
G01X10655014Y1511035D01*
G01X10655014Y1453885D01*
G01X10702766Y1533895D02*
G01X10702766Y1453885D01*
G01X10702766Y1511035D02*
G01X10720038Y1528307D01*
G01X10731468Y1533895D01*
G01X10748486Y1533895D01*
G01X10759916Y1528307D01*
G01X10765758Y1511035D01*
G01X10765758Y1453885D01*
G01X10765758Y1511035D02*
G01X10782776Y1528307D01*
G01X10794206Y1533895D01*
G01X10811478Y1533895D01*
G01X10822908Y1528307D01*
G01X10828496Y1511035D01*
G01X10828496Y1453885D01*
G01X10876248Y1596887D02*
G01X10887678Y1585457D01*
G01X10899108Y1568185D01*
G01X10910538Y1545325D01*
G01X10916380Y1516877D01*
G01X10916380Y1494017D01*
G01X10910538Y1465315D01*
G01X10899108Y1442455D01*
G01X10887678Y1425437D01*
G01X10876248Y1414007D01*
G01X11870295Y1574027D02*
G01X11870295Y1453885D01*
G01X11870295Y1574027D02*
G01X11921857Y1574027D01*
G01X11938875Y1568185D01*
G01X11944717Y1562597D01*
G01X11950305Y1551167D01*
G01X11950305Y1533895D01*
G01X11944717Y1522465D01*
G01X11938875Y1516877D01*
G01X11921857Y1511035D01*
G01X11870295Y1511035D01*
G01X12038189Y1574027D02*
G01X12038189Y1453885D01*
G01X11998057Y1574027D02*
G01X12078067Y1574027D01*
G01X12125819Y1574027D02*
G01X12125819Y1453885D01*
G01X12205829Y1574027D02*
G01X12205829Y1453885D01*
G01X12125819Y1516877D02*
G01X12205829Y1516877D01*
G01X13411712Y1556755D02*
G01X13400282Y1568185D01*
G01X13383264Y1574027D01*
G01X13360404Y1574027D01*
G01X13343132Y1568185D01*
G01X13331702Y1556755D01*
G01X13331702Y1545325D01*
G01X13337544Y1533895D01*
G01X13343132Y1528307D01*
G01X13354562Y1522465D01*
G01X13388852Y1511035D01*
G01X13400282Y1505447D01*
G01X13406124Y1499605D01*
G01X13411712Y1488175D01*
G01X13411712Y1471157D01*
G01X13400282Y1459727D01*
G01X13383264Y1453885D01*
G01X13360404Y1453885D01*
G01X13343132Y1459727D01*
G01X13331702Y1471157D01*
G01X13459464Y1574027D02*
G01X13459464Y1453885D01*
G01X13535918Y1533895D02*
G01X13524488Y1528307D01*
G01X13513058Y1516877D01*
G01X13507216Y1499605D01*
G01X13507216Y1488175D01*
G01X13513058Y1471157D01*
G01X13524488Y1459727D01*
G01X13535918Y1453885D01*
G01X13552936Y1453885D01*
G01X13564366Y1459727D01*
G01X13575796Y1471157D01*
G01X13581638Y1488175D01*
G01X13581638Y1499605D01*
G01X13575796Y1516877D01*
G01X13564366Y1528307D01*
G01X13552936Y1533895D01*
G01X13535918Y1533895D01*
G01X13646662Y1574027D02*
G01X13646662Y1476745D01*
G01X13652250Y1459727D01*
G01X13663680Y1453885D01*
G01X13675110Y1453885D01*
G01X13629390Y1533895D02*
G01X13669522Y1533895D01*
G01X14762883Y1574027D02*
G01X14762883Y1453885D01*
G01X14762883Y1574027D02*
G01X14814445Y1574027D01*
G01X14831463Y1568185D01*
G01X14837305Y1562597D01*
G01X14842893Y1551167D01*
G01X14842893Y1533895D01*
G01X14837305Y1522465D01*
G01X14831463Y1516877D01*
G01X14814445Y1511035D01*
G01X14762883Y1511035D01*
G01X14959225Y1533895D02*
G01X14959225Y1453885D01*
G01X14959225Y1516877D02*
G01X14947795Y1528307D01*
G01X14936365Y1533895D01*
G01X14919347Y1533895D01*
G01X14907917Y1528307D01*
G01X14896487Y1516877D01*
G01X14890645Y1499605D01*
G01X14890645Y1488175D01*
G01X14896487Y1471157D01*
G01X14907917Y1459727D01*
G01X14919347Y1453885D01*
G01X14936365Y1453885D01*
G01X14947795Y1459727D01*
G01X14959225Y1471157D01*
G01X15075557Y1574027D02*
G01X15075557Y1453885D01*
G01X15075557Y1516877D02*
G01X15064127Y1528307D01*
G01X15052697Y1533895D01*
G01X15035679Y1533895D01*
G01X15024249Y1528307D01*
G01X15012819Y1516877D01*
G01X15006977Y1499605D01*
G01X15006977Y1488175D01*
G01X15012819Y1471157D01*
G01X15024249Y1459727D01*
G01X15035679Y1453885D01*
G01X15052697Y1453885D01*
G01X15064127Y1459727D01*
G01X15075557Y1471157D01*
G01X16466353Y1574027D02*
G01X16454923Y1568185D01*
G01X16443493Y1556755D01*
G01X16437905Y1545325D01*
G01X16432063Y1528307D01*
G01X16432063Y1499605D01*
G01X16437905Y1482587D01*
G01X16443493Y1471157D01*
G01X16454923Y1459727D01*
G01X16466353Y1453885D01*
G01X16489213Y1453885D01*
G01X16500643Y1459727D01*
G01X16512073Y1471157D01*
G01X16517915Y1482587D01*
G01X16523503Y1499605D01*
G01X16523503Y1528307D01*
G01X16517915Y1545325D01*
G01X16512073Y1556755D01*
G01X16500643Y1568185D01*
G01X16489213Y1574027D01*
G01X16466353Y1574027D01*
G01X16571255Y1533895D02*
G01X16605545Y1453885D01*
G01X16639835Y1533895D02*
G01X16605545Y1453885D01*
G01X16756167Y1533895D02*
G01X16756167Y1453885D01*
G01X16756167Y1516877D02*
G01X16744737Y1528307D01*
G01X16733307Y1533895D01*
G01X16716289Y1533895D01*
G01X16704859Y1528307D01*
G01X16693429Y1516877D01*
G01X16687587Y1499605D01*
G01X16687587Y1488175D01*
G01X16693429Y1471157D01*
G01X16704859Y1459727D01*
G01X16716289Y1453885D01*
G01X16733307Y1453885D01*
G01X16744737Y1459727D01*
G01X16756167Y1471157D01*
G01X16803919Y1574027D02*
G01X16803919Y1453885D01*
G01X18391564Y1574027D02*
G01X18391564Y1453885D01*
G01X18351432Y1574027D02*
G01X18431442Y1574027D01*
G01X18507896Y1533895D02*
G01X18496466Y1528307D01*
G01X18485036Y1516877D01*
G01X18479194Y1499605D01*
G01X18479194Y1488175D01*
G01X18485036Y1471157D01*
G01X18496466Y1459727D01*
G01X18507896Y1453885D01*
G01X18524914Y1453885D01*
G01X18536344Y1459727D01*
G01X18547774Y1471157D01*
G01X18553616Y1488175D01*
G01X18553616Y1499605D01*
G01X18547774Y1516877D01*
G01X18536344Y1528307D01*
G01X18524914Y1533895D01*
G01X18507896Y1533895D01*
G01X18601368Y1533895D02*
G01X18601368Y1414007D01*
G01X18601368Y1516877D02*
G01X18612798Y1528307D01*
G01X18624228Y1533895D01*
G01X18641500Y1533895D01*
G01X18652930Y1528307D01*
G01X18664360Y1516877D01*
G01X18669948Y1499605D01*
G01X18669948Y1488175D01*
G01X18664360Y1471157D01*
G01X18652930Y1459727D01*
G01X18641500Y1453885D01*
G01X18624228Y1453885D01*
G01X18612798Y1459727D01*
G01X18601368Y1471157D01*
G01X18845716Y1574027D02*
G01X18845716Y1453885D01*
G01X18845716Y1453885D02*
G01X18914296Y1453885D01*
G01X19030628Y1533895D02*
G01X19030628Y1453885D01*
G01X19030628Y1516877D02*
G01X19019198Y1528307D01*
G01X19007768Y1533895D01*
G01X18990750Y1533895D01*
G01X18979320Y1528307D01*
G01X18967890Y1516877D01*
G01X18962048Y1499605D01*
G01X18962048Y1488175D01*
G01X18967890Y1471157D01*
G01X18979320Y1459727D01*
G01X18990750Y1453885D01*
G01X19007768Y1453885D01*
G01X19019198Y1459727D01*
G01X19030628Y1471157D01*
G01X19084222Y1533895D02*
G01X19118512Y1453885D01*
G01X19152802Y1533895D02*
G01X19118512Y1453885D01*
G01X19107082Y1431025D01*
G01X19095652Y1419595D01*
G01X19084222Y1414007D01*
G01X19078380Y1414007D01*
G01X19200554Y1499605D02*
G01X19269134Y1499605D01*
G01X19269134Y1511035D01*
G01X19263546Y1522465D01*
G01X19257704Y1528307D01*
G01X19246274Y1533895D01*
G01X19229256Y1533895D01*
G01X19217826Y1528307D01*
G01X19206396Y1516877D01*
G01X19200554Y1499605D01*
G01X19200554Y1488175D01*
G01X19206396Y1471157D01*
G01X19217826Y1459727D01*
G01X19229256Y1453885D01*
G01X19246274Y1453885D01*
G01X19257704Y1459727D01*
G01X19269134Y1471157D01*
G01X19316886Y1533895D02*
G01X19316886Y1453885D01*
G01X19316886Y1499605D02*
G01X19322728Y1516877D01*
G01X19334158Y1528307D01*
G01X19345588Y1533895D01*
G01X19362606Y1533895D01*
G01X19410358Y1505447D02*
G01X19513228Y1505447D01*
G01X19560980Y1574027D02*
G01X19560980Y1453885D01*
G01X19560980Y1574027D02*
G01X19612542Y1574027D01*
G01X19629560Y1568185D01*
G01X19635402Y1562597D01*
G01X19640990Y1551167D01*
G01X19640990Y1539737D01*
G01X19635402Y1528307D01*
G01X19629560Y1522465D01*
G01X19612542Y1516877D01*
G01X19560980Y1516877D02*
G01X19612542Y1516877D01*
G01X19629560Y1511035D01*
G01X19635402Y1505447D01*
G01X19640990Y1494017D01*
G01X19640990Y1476745D01*
G01X19635402Y1465315D01*
G01X19629560Y1459727D01*
G01X19612542Y1453885D01*
G01X19560980Y1453885D01*
G01X19717444Y1533895D02*
G01X19706014Y1528307D01*
G01X19694584Y1516877D01*
G01X19688742Y1499605D01*
G01X19688742Y1488175D01*
G01X19694584Y1471157D01*
G01X19706014Y1459727D01*
G01X19717444Y1453885D01*
G01X19734462Y1453885D01*
G01X19745892Y1459727D01*
G01X19757322Y1471157D01*
G01X19763164Y1488175D01*
G01X19763164Y1499605D01*
G01X19757322Y1516877D01*
G01X19745892Y1528307D01*
G01X19734462Y1533895D01*
G01X19717444Y1533895D01*
G01X19828188Y1574027D02*
G01X19828188Y1476745D01*
G01X19833776Y1459727D01*
G01X19845206Y1453885D01*
G01X19856636Y1453885D01*
G01X19810916Y1533895D02*
G01X19851048Y1533895D01*
G01X19921660Y1574027D02*
G01X19921660Y1476745D01*
G01X19927248Y1459727D01*
G01X19938678Y1453885D01*
G01X19950108Y1453885D01*
G01X19904388Y1533895D02*
G01X19944520Y1533895D01*
G01X20026562Y1533895D02*
G01X20015132Y1528307D01*
G01X20003702Y1516877D01*
G01X19997860Y1499605D01*
G01X19997860Y1488175D01*
G01X20003702Y1471157D01*
G01X20015132Y1459727D01*
G01X20026562Y1453885D01*
G01X20043580Y1453885D01*
G01X20055010Y1459727D01*
G01X20066440Y1471157D01*
G01X20072282Y1488175D01*
G01X20072282Y1499605D01*
G01X20066440Y1516877D01*
G01X20055010Y1528307D01*
G01X20043580Y1533895D01*
G01X20026562Y1533895D01*
G01X20120034Y1533895D02*
G01X20120034Y1453885D01*
G01X20120034Y1511035D02*
G01X20137306Y1528307D01*
G01X20148736Y1533895D01*
G01X20165754Y1533895D01*
G01X20177184Y1528307D01*
G01X20183026Y1511035D01*
G01X20183026Y1453885D01*
G01X20183026Y1511035D02*
G01X20200044Y1528307D01*
G01X20211474Y1533895D01*
G01X20228746Y1533895D01*
G01X20240176Y1528307D01*
G01X20245764Y1511035D01*
G01X20245764Y1453885D01*
G01X20421532Y1574027D02*
G01X20421532Y1453885D01*
G01X20421532Y1453885D02*
G01X20490112Y1453885D01*
G01X20606444Y1533895D02*
G01X20606444Y1453885D01*
G01X20606444Y1516877D02*
G01X20595014Y1528307D01*
G01X20583584Y1533895D01*
G01X20566566Y1533895D01*
G01X20555136Y1528307D01*
G01X20543706Y1516877D01*
G01X20537864Y1499605D01*
G01X20537864Y1488175D01*
G01X20543706Y1471157D01*
G01X20555136Y1459727D01*
G01X20566566Y1453885D01*
G01X20583584Y1453885D01*
G01X20595014Y1459727D01*
G01X20606444Y1471157D01*
G01X20660038Y1533895D02*
G01X20694328Y1453885D01*
G01X20728618Y1533895D02*
G01X20694328Y1453885D01*
G01X20682898Y1431025D01*
G01X20671468Y1419595D01*
G01X20660038Y1414007D01*
G01X20654196Y1414007D01*
G01X20776370Y1499605D02*
G01X20844950Y1499605D01*
G01X20844950Y1511035D01*
G01X20839362Y1522465D01*
G01X20833520Y1528307D01*
G01X20822090Y1533895D01*
G01X20805072Y1533895D01*
G01X20793642Y1528307D01*
G01X20782212Y1516877D01*
G01X20776370Y1499605D01*
G01X20776370Y1488175D01*
G01X20782212Y1471157D01*
G01X20793642Y1459727D01*
G01X20805072Y1453885D01*
G01X20822090Y1453885D01*
G01X20833520Y1459727D01*
G01X20844950Y1471157D01*
G01X20892702Y1533895D02*
G01X20892702Y1453885D01*
G01X20892702Y1499605D02*
G01X20898544Y1516877D01*
G01X20909974Y1528307D01*
G01X20921404Y1533895D01*
G01X20938422Y1533895D01*
G01X6625159Y964753D02*
G01X6625159Y970595D01*
G01X6630747Y982025D01*
G01X6636589Y987613D01*
G01X6648019Y993455D01*
G01X6670879Y993455D01*
G01X6682309Y987613D01*
G01X6687897Y982025D01*
G01X6693739Y970595D01*
G01X6693739Y959165D01*
G01X6687897Y947735D01*
G01X6676467Y930463D01*
G01X6619317Y873313D01*
G01X6699327Y873313D01*
G01X8039322Y964753D02*
G01X8039322Y970595D01*
G01X8044910Y982025D01*
G01X8050752Y987613D01*
G01X8062182Y993455D01*
G01X8085042Y993455D01*
G01X8096472Y987613D01*
G01X8102060Y982025D01*
G01X8107902Y970595D01*
G01X8107902Y959165D01*
G01X8102060Y947735D01*
G01X8090630Y930463D01*
G01X8033480Y873313D01*
G01X8113490Y873313D01*
G01X8172672Y993455D02*
G01X8235664Y993455D01*
G01X8201374Y947735D01*
G01X8218392Y947735D01*
G01X8229822Y941893D01*
G01X8235664Y936305D01*
G01X8241252Y919033D01*
G01X8241252Y907603D01*
G01X8235664Y890585D01*
G01X8224234Y879155D01*
G01X8206962Y873313D01*
G01X8189944Y873313D01*
G01X8172672Y879155D01*
G01X8167084Y884743D01*
G01X8161242Y896173D01*
G01X8294846Y902015D02*
G01X8289004Y896173D01*
G01X8294846Y890585D01*
G01X8300434Y896173D01*
G01X8294846Y902015D01*
G01X8416766Y976183D02*
G01X8411178Y987613D01*
G01X8393906Y993455D01*
G01X8382476Y993455D01*
G01X8365458Y987613D01*
G01X8354028Y970595D01*
G01X8348186Y941893D01*
G01X8348186Y913445D01*
G01X8354028Y890585D01*
G01X8365458Y879155D01*
G01X8382476Y873313D01*
G01X8388318Y873313D01*
G01X8405336Y879155D01*
G01X8416766Y890585D01*
G01X8422608Y907603D01*
G01X8422608Y913445D01*
G01X8416766Y930463D01*
G01X8405336Y941893D01*
G01X8388318Y947735D01*
G01X8382476Y947735D01*
G01X8365458Y941893D01*
G01X8354028Y930463D01*
G01X8348186Y913445D01*
G01X8470360Y953323D02*
G01X8533352Y873313D01*
G01X8533352Y953323D02*
G01X8470360Y873313D01*
G01X8638254Y993455D02*
G01X8581104Y913445D01*
G01X8666956Y913445D01*
G01X8638254Y993455D02*
G01X8638254Y873313D01*
G01X8794718Y993455D02*
G01X8737568Y873313D01*
G01X8714708Y993455D02*
G01X8794718Y993455D01*
G01X8848312Y902015D02*
G01X8842470Y896173D01*
G01X8848312Y890585D01*
G01X8853900Y896173D01*
G01X8848312Y902015D01*
G01X8907494Y964753D02*
G01X8907494Y970595D01*
G01X8913082Y982025D01*
G01X8918924Y987613D01*
G01X8930354Y993455D01*
G01X8953214Y993455D01*
G01X8964644Y987613D01*
G01X8970232Y982025D01*
G01X8976074Y970595D01*
G01X8976074Y959165D01*
G01X8970232Y947735D01*
G01X8958802Y930463D01*
G01X8901652Y873313D01*
G01X8981662Y873313D01*
G01X9029414Y953323D02*
G01X9029414Y873313D01*
G01X9029414Y930463D02*
G01X9046686Y947735D01*
G01X9058116Y953323D01*
G01X9075134Y953323D01*
G01X9086564Y947735D01*
G01X9092406Y930463D01*
G01X9092406Y873313D01*
G01X9092406Y930463D02*
G01X9109424Y947735D01*
G01X9120854Y953323D01*
G01X9138126Y953323D01*
G01X9149556Y947735D01*
G01X9155144Y930463D01*
G01X9155144Y873313D01*
G01X9202896Y993455D02*
G01X9208738Y987613D01*
G01X9214326Y993455D01*
G01X9208738Y999043D01*
G01X9202896Y993455D01*
G01X9208738Y953323D02*
G01X9208738Y873313D01*
G01X9262078Y993455D02*
G01X9262078Y873313D01*
G01X9349962Y1016315D02*
G01X9338532Y1004885D01*
G01X9327102Y987613D01*
G01X9315672Y964753D01*
G01X9309830Y936305D01*
G01X9309830Y913445D01*
G01X9315672Y884743D01*
G01X9327102Y861883D01*
G01X9338532Y844865D01*
G01X9349962Y833435D01*
G01X9432004Y993455D02*
G01X9414986Y987613D01*
G01X9403556Y970595D01*
G01X9397714Y941893D01*
G01X9397714Y924875D01*
G01X9403556Y896173D01*
G01X9414986Y879155D01*
G01X9432004Y873313D01*
G01X9443434Y873313D01*
G01X9460706Y879155D01*
G01X9472136Y896173D01*
G01X9477724Y924875D01*
G01X9477724Y941893D01*
G01X9472136Y970595D01*
G01X9460706Y987613D01*
G01X9443434Y993455D01*
G01X9432004Y993455D01*
G01X9531318Y902015D02*
G01X9525476Y896173D01*
G01X9531318Y890585D01*
G01X9536906Y896173D01*
G01X9531318Y902015D01*
G01X9653238Y976183D02*
G01X9647650Y987613D01*
G01X9630378Y993455D01*
G01X9618948Y993455D01*
G01X9601930Y987613D01*
G01X9590500Y970595D01*
G01X9584658Y941893D01*
G01X9584658Y913445D01*
G01X9590500Y890585D01*
G01X9601930Y879155D01*
G01X9618948Y873313D01*
G01X9624790Y873313D01*
G01X9641808Y879155D01*
G01X9653238Y890585D01*
G01X9659080Y907603D01*
G01X9659080Y913445D01*
G01X9653238Y930463D01*
G01X9641808Y941893D01*
G01X9624790Y947735D01*
G01X9618948Y947735D01*
G01X9601930Y941893D01*
G01X9590500Y930463D01*
G01X9584658Y913445D01*
G01X9741122Y993455D02*
G01X9724104Y987613D01*
G01X9712674Y970595D01*
G01X9706832Y941893D01*
G01X9706832Y924875D01*
G01X9712674Y896173D01*
G01X9724104Y879155D01*
G01X9741122Y873313D01*
G01X9752552Y873313D01*
G01X9769824Y879155D01*
G01X9781254Y896173D01*
G01X9786842Y924875D01*
G01X9786842Y941893D01*
G01X9781254Y970595D01*
G01X9769824Y987613D01*
G01X9752552Y993455D01*
G01X9741122Y993455D01*
G01X9868884Y993455D02*
G01X9851866Y987613D01*
G01X9840436Y970595D01*
G01X9834594Y941893D01*
G01X9834594Y924875D01*
G01X9840436Y896173D01*
G01X9851866Y879155D01*
G01X9868884Y873313D01*
G01X9880314Y873313D01*
G01X9897586Y879155D01*
G01X9909016Y896173D01*
G01X9914604Y924875D01*
G01X9914604Y941893D01*
G01X9909016Y970595D01*
G01X9897586Y987613D01*
G01X9880314Y993455D01*
G01X9868884Y993455D01*
G01X9962356Y953323D02*
G01X10025348Y873313D01*
G01X10025348Y953323D02*
G01X9962356Y873313D01*
G01X10073100Y970595D02*
G01X10084530Y976183D01*
G01X10101802Y993455D01*
G01X10101802Y873313D01*
G01X10155396Y902015D02*
G01X10149554Y896173D01*
G01X10155396Y890585D01*
G01X10160984Y896173D01*
G01X10155396Y902015D01*
G01X10214578Y964753D02*
G01X10214578Y970595D01*
G01X10220166Y982025D01*
G01X10226008Y987613D01*
G01X10237438Y993455D01*
G01X10260298Y993455D01*
G01X10271728Y987613D01*
G01X10277316Y982025D01*
G01X10283158Y970595D01*
G01X10283158Y959165D01*
G01X10277316Y947735D01*
G01X10265886Y930463D01*
G01X10208736Y873313D01*
G01X10288746Y873313D01*
G01X10370788Y993455D02*
G01X10353770Y987613D01*
G01X10342340Y970595D01*
G01X10336498Y941893D01*
G01X10336498Y924875D01*
G01X10342340Y896173D01*
G01X10353770Y879155D01*
G01X10370788Y873313D01*
G01X10382218Y873313D01*
G01X10399490Y879155D01*
G01X10410920Y896173D01*
G01X10416508Y924875D01*
G01X10416508Y941893D01*
G01X10410920Y970595D01*
G01X10399490Y987613D01*
G01X10382218Y993455D01*
G01X10370788Y993455D01*
G01X10498550Y993455D02*
G01X10481532Y987613D01*
G01X10470102Y970595D01*
G01X10464260Y941893D01*
G01X10464260Y924875D01*
G01X10470102Y896173D01*
G01X10481532Y879155D01*
G01X10498550Y873313D01*
G01X10509980Y873313D01*
G01X10527252Y879155D01*
G01X10538682Y896173D01*
G01X10544270Y924875D01*
G01X10544270Y941893D01*
G01X10538682Y970595D01*
G01X10527252Y987613D01*
G01X10509980Y993455D01*
G01X10498550Y993455D01*
G01X10592022Y953323D02*
G01X10592022Y873313D01*
G01X10592022Y930463D02*
G01X10609294Y947735D01*
G01X10620724Y953323D01*
G01X10637742Y953323D01*
G01X10649172Y947735D01*
G01X10655014Y930463D01*
G01X10655014Y873313D01*
G01X10655014Y930463D02*
G01X10672032Y947735D01*
G01X10683462Y953323D01*
G01X10700734Y953323D01*
G01X10712164Y947735D01*
G01X10717752Y930463D01*
G01X10717752Y873313D01*
G01X10765504Y953323D02*
G01X10765504Y873313D01*
G01X10765504Y930463D02*
G01X10782776Y947735D01*
G01X10794206Y953323D01*
G01X10811224Y953323D01*
G01X10822654Y947735D01*
G01X10828496Y930463D01*
G01X10828496Y873313D01*
G01X10828496Y930463D02*
G01X10845514Y947735D01*
G01X10856944Y953323D01*
G01X10874216Y953323D01*
G01X10885646Y947735D01*
G01X10891234Y930463D01*
G01X10891234Y873313D01*
G01X10938986Y1016315D02*
G01X10950416Y1004885D01*
G01X10961846Y987613D01*
G01X10973276Y964753D01*
G01X10979118Y936305D01*
G01X10979118Y913445D01*
G01X10973276Y884743D01*
G01X10961846Y861883D01*
G01X10950416Y844865D01*
G01X10938986Y833435D01*
G01X11870295Y993455D02*
G01X11870295Y873313D01*
G01X11870295Y993455D02*
G01X11921857Y993455D01*
G01X11938875Y987613D01*
G01X11944717Y982025D01*
G01X11950305Y970595D01*
G01X11950305Y953323D01*
G01X11944717Y941893D01*
G01X11938875Y936305D01*
G01X11921857Y930463D01*
G01X11870295Y930463D01*
G01X12038189Y993455D02*
G01X12038189Y873313D01*
G01X11998057Y993455D02*
G01X12078067Y993455D01*
G01X12125819Y993455D02*
G01X12125819Y873313D01*
G01X12205829Y993455D02*
G01X12205829Y873313D01*
G01X12125819Y936305D02*
G01X12205829Y936305D01*
G01X13411712Y976183D02*
G01X13400282Y987613D01*
G01X13383264Y993455D01*
G01X13360404Y993455D01*
G01X13343132Y987613D01*
G01X13331702Y976183D01*
G01X13331702Y964753D01*
G01X13337544Y953323D01*
G01X13343132Y947735D01*
G01X13354562Y941893D01*
G01X13388852Y930463D01*
G01X13400282Y924875D01*
G01X13406124Y919033D01*
G01X13411712Y907603D01*
G01X13411712Y890585D01*
G01X13400282Y879155D01*
G01X13383264Y873313D01*
G01X13360404Y873313D01*
G01X13343132Y879155D01*
G01X13331702Y890585D01*
G01X13459464Y993455D02*
G01X13459464Y873313D01*
G01X13535918Y953323D02*
G01X13524488Y947735D01*
G01X13513058Y936305D01*
G01X13507216Y919033D01*
G01X13507216Y907603D01*
G01X13513058Y890585D01*
G01X13524488Y879155D01*
G01X13535918Y873313D01*
G01X13552936Y873313D01*
G01X13564366Y879155D01*
G01X13575796Y890585D01*
G01X13581638Y907603D01*
G01X13581638Y919033D01*
G01X13575796Y936305D01*
G01X13564366Y947735D01*
G01X13552936Y953323D01*
G01X13535918Y953323D01*
G01X13646662Y993455D02*
G01X13646662Y896173D01*
G01X13652250Y879155D01*
G01X13663680Y873313D01*
G01X13675110Y873313D01*
G01X13629390Y953323D02*
G01X13669522Y953323D01*
G01X14762883Y993455D02*
G01X14762883Y873313D01*
G01X14762883Y993455D02*
G01X14814445Y993455D01*
G01X14831463Y987613D01*
G01X14837305Y982025D01*
G01X14842893Y970595D01*
G01X14842893Y953323D01*
G01X14837305Y941893D01*
G01X14831463Y936305D01*
G01X14814445Y930463D01*
G01X14762883Y930463D01*
G01X14959225Y953323D02*
G01X14959225Y873313D01*
G01X14959225Y936305D02*
G01X14947795Y947735D01*
G01X14936365Y953323D01*
G01X14919347Y953323D01*
G01X14907917Y947735D01*
G01X14896487Y936305D01*
G01X14890645Y919033D01*
G01X14890645Y907603D01*
G01X14896487Y890585D01*
G01X14907917Y879155D01*
G01X14919347Y873313D01*
G01X14936365Y873313D01*
G01X14947795Y879155D01*
G01X14959225Y890585D01*
G01X15075557Y993455D02*
G01X15075557Y873313D01*
G01X15075557Y936305D02*
G01X15064127Y947735D01*
G01X15052697Y953323D01*
G01X15035679Y953323D01*
G01X15024249Y947735D01*
G01X15012819Y936305D01*
G01X15006977Y919033D01*
G01X15006977Y907603D01*
G01X15012819Y890585D01*
G01X15024249Y879155D01*
G01X15035679Y873313D01*
G01X15052697Y873313D01*
G01X15064127Y879155D01*
G01X15075557Y890585D01*
G01X16466353Y993455D02*
G01X16454923Y987613D01*
G01X16443493Y976183D01*
G01X16437905Y964753D01*
G01X16432063Y947735D01*
G01X16432063Y919033D01*
G01X16437905Y902015D01*
G01X16443493Y890585D01*
G01X16454923Y879155D01*
G01X16466353Y873313D01*
G01X16489213Y873313D01*
G01X16500643Y879155D01*
G01X16512073Y890585D01*
G01X16517915Y902015D01*
G01X16523503Y919033D01*
G01X16523503Y947735D01*
G01X16517915Y964753D01*
G01X16512073Y976183D01*
G01X16500643Y987613D01*
G01X16489213Y993455D01*
G01X16466353Y993455D01*
G01X16571255Y953323D02*
G01X16605545Y873313D01*
G01X16639835Y953323D02*
G01X16605545Y873313D01*
G01X16756167Y953323D02*
G01X16756167Y873313D01*
G01X16756167Y936305D02*
G01X16744737Y947735D01*
G01X16733307Y953323D01*
G01X16716289Y953323D01*
G01X16704859Y947735D01*
G01X16693429Y936305D01*
G01X16687587Y919033D01*
G01X16687587Y907603D01*
G01X16693429Y890585D01*
G01X16704859Y879155D01*
G01X16716289Y873313D01*
G01X16733307Y873313D01*
G01X16744737Y879155D01*
G01X16756167Y890585D01*
G01X16803919Y993455D02*
G01X16803919Y873313D01*
G01X18391564Y993455D02*
G01X18391564Y873313D01*
G01X18351432Y993455D02*
G01X18431442Y993455D01*
G01X18507896Y953323D02*
G01X18496466Y947735D01*
G01X18485036Y936305D01*
G01X18479194Y919033D01*
G01X18479194Y907603D01*
G01X18485036Y890585D01*
G01X18496466Y879155D01*
G01X18507896Y873313D01*
G01X18524914Y873313D01*
G01X18536344Y879155D01*
G01X18547774Y890585D01*
G01X18553616Y907603D01*
G01X18553616Y919033D01*
G01X18547774Y936305D01*
G01X18536344Y947735D01*
G01X18524914Y953323D01*
G01X18507896Y953323D01*
G01X18601368Y953323D02*
G01X18601368Y833435D01*
G01X18601368Y936305D02*
G01X18612798Y947735D01*
G01X18624228Y953323D01*
G01X18641500Y953323D01*
G01X18652930Y947735D01*
G01X18664360Y936305D01*
G01X18669948Y919033D01*
G01X18669948Y907603D01*
G01X18664360Y890585D01*
G01X18652930Y879155D01*
G01X18641500Y873313D01*
G01X18624228Y873313D01*
G01X18612798Y879155D01*
G01X18601368Y890585D01*
G01X18845716Y993455D02*
G01X18845716Y873313D01*
G01X18845716Y873313D02*
G01X18914296Y873313D01*
G01X19030628Y953323D02*
G01X19030628Y873313D01*
G01X19030628Y936305D02*
G01X19019198Y947735D01*
G01X19007768Y953323D01*
G01X18990750Y953323D01*
G01X18979320Y947735D01*
G01X18967890Y936305D01*
G01X18962048Y919033D01*
G01X18962048Y907603D01*
G01X18967890Y890585D01*
G01X18979320Y879155D01*
G01X18990750Y873313D01*
G01X19007768Y873313D01*
G01X19019198Y879155D01*
G01X19030628Y890585D01*
G01X19084222Y953323D02*
G01X19118512Y873313D01*
G01X19152802Y953323D02*
G01X19118512Y873313D01*
G01X19107082Y850453D01*
G01X19095652Y839023D01*
G01X19084222Y833435D01*
G01X19078380Y833435D01*
G01X19200554Y919033D02*
G01X19269134Y919033D01*
G01X19269134Y930463D01*
G01X19263546Y941893D01*
G01X19257704Y947735D01*
G01X19246274Y953323D01*
G01X19229256Y953323D01*
G01X19217826Y947735D01*
G01X19206396Y936305D01*
G01X19200554Y919033D01*
G01X19200554Y907603D01*
G01X19206396Y890585D01*
G01X19217826Y879155D01*
G01X19229256Y873313D01*
G01X19246274Y873313D01*
G01X19257704Y879155D01*
G01X19269134Y890585D01*
G01X19316886Y953323D02*
G01X19316886Y873313D01*
G01X19316886Y919033D02*
G01X19322728Y936305D01*
G01X19334158Y947735D01*
G01X19345588Y953323D01*
G01X19362606Y953323D01*
G01X19410358Y924875D02*
G01X19513228Y924875D01*
G01X19560980Y993455D02*
G01X19560980Y873313D01*
G01X19560980Y993455D02*
G01X19612542Y993455D01*
G01X19629560Y987613D01*
G01X19635402Y982025D01*
G01X19640990Y970595D01*
G01X19640990Y959165D01*
G01X19635402Y947735D01*
G01X19629560Y941893D01*
G01X19612542Y936305D01*
G01X19560980Y936305D02*
G01X19612542Y936305D01*
G01X19629560Y930463D01*
G01X19635402Y924875D01*
G01X19640990Y913445D01*
G01X19640990Y896173D01*
G01X19635402Y884743D01*
G01X19629560Y879155D01*
G01X19612542Y873313D01*
G01X19560980Y873313D01*
G01X19717444Y953323D02*
G01X19706014Y947735D01*
G01X19694584Y936305D01*
G01X19688742Y919033D01*
G01X19688742Y907603D01*
G01X19694584Y890585D01*
G01X19706014Y879155D01*
G01X19717444Y873313D01*
G01X19734462Y873313D01*
G01X19745892Y879155D01*
G01X19757322Y890585D01*
G01X19763164Y907603D01*
G01X19763164Y919033D01*
G01X19757322Y936305D01*
G01X19745892Y947735D01*
G01X19734462Y953323D01*
G01X19717444Y953323D01*
G01X19828188Y993455D02*
G01X19828188Y896173D01*
G01X19833776Y879155D01*
G01X19845206Y873313D01*
G01X19856636Y873313D01*
G01X19810916Y953323D02*
G01X19851048Y953323D01*
G01X19921660Y993455D02*
G01X19921660Y896173D01*
G01X19927248Y879155D01*
G01X19938678Y873313D01*
G01X19950108Y873313D01*
G01X19904388Y953323D02*
G01X19944520Y953323D01*
G01X20026562Y953323D02*
G01X20015132Y947735D01*
G01X20003702Y936305D01*
G01X19997860Y919033D01*
G01X19997860Y907603D01*
G01X20003702Y890585D01*
G01X20015132Y879155D01*
G01X20026562Y873313D01*
G01X20043580Y873313D01*
G01X20055010Y879155D01*
G01X20066440Y890585D01*
G01X20072282Y907603D01*
G01X20072282Y919033D01*
G01X20066440Y936305D01*
G01X20055010Y947735D01*
G01X20043580Y953323D01*
G01X20026562Y953323D01*
G01X20120034Y953323D02*
G01X20120034Y873313D01*
G01X20120034Y930463D02*
G01X20137306Y947735D01*
G01X20148736Y953323D01*
G01X20165754Y953323D01*
G01X20177184Y947735D01*
G01X20183026Y930463D01*
G01X20183026Y873313D01*
G01X20183026Y930463D02*
G01X20200044Y947735D01*
G01X20211474Y953323D01*
G01X20228746Y953323D01*
G01X20240176Y947735D01*
G01X20245764Y930463D01*
G01X20245764Y873313D01*
G01X20421532Y993455D02*
G01X20421532Y873313D01*
G01X20421532Y873313D02*
G01X20490112Y873313D01*
G01X20606444Y953323D02*
G01X20606444Y873313D01*
G01X20606444Y936305D02*
G01X20595014Y947735D01*
G01X20583584Y953323D01*
G01X20566566Y953323D01*
G01X20555136Y947735D01*
G01X20543706Y936305D01*
G01X20537864Y919033D01*
G01X20537864Y907603D01*
G01X20543706Y890585D01*
G01X20555136Y879155D01*
G01X20566566Y873313D01*
G01X20583584Y873313D01*
G01X20595014Y879155D01*
G01X20606444Y890585D01*
G01X20660038Y953323D02*
G01X20694328Y873313D01*
G01X20728618Y953323D02*
G01X20694328Y873313D01*
G01X20682898Y850453D01*
G01X20671468Y839023D01*
G01X20660038Y833435D01*
G01X20654196Y833435D01*
G01X20776370Y919033D02*
G01X20844950Y919033D01*
G01X20844950Y930463D01*
G01X20839362Y941893D01*
G01X20833520Y947735D01*
G01X20822090Y953323D01*
G01X20805072Y953323D01*
G01X20793642Y947735D01*
G01X20782212Y936305D01*
G01X20776370Y919033D01*
G01X20776370Y907603D01*
G01X20782212Y890585D01*
G01X20793642Y879155D01*
G01X20805072Y873313D01*
G01X20822090Y873313D01*
G01X20833520Y879155D01*
G01X20844950Y890585D01*
G01X20892702Y953323D02*
G01X20892702Y873313D01*
G01X20892702Y919033D02*
G01X20898544Y936305D01*
G01X20909974Y947735D01*
G01X20921404Y953323D01*
G01X20938422Y953323D01*
G01X6625159Y384182D02*
G01X6625159Y390024D01*
G01X6630747Y401454D01*
G01X6636589Y407042D01*
G01X6648019Y412884D01*
G01X6670879Y412884D01*
G01X6682309Y407042D01*
G01X6687897Y401454D01*
G01X6693739Y390024D01*
G01X6693739Y378594D01*
G01X6687897Y367164D01*
G01X6676467Y349892D01*
G01X6619317Y292742D01*
G01X6699327Y292742D01*
G01X8039322Y384182D02*
G01X8039322Y390024D01*
G01X8044910Y401454D01*
G01X8050752Y407042D01*
G01X8062182Y412884D01*
G01X8085042Y412884D01*
G01X8096472Y407042D01*
G01X8102060Y401454D01*
G01X8107902Y390024D01*
G01X8107902Y378594D01*
G01X8102060Y367164D01*
G01X8090630Y349892D01*
G01X8033480Y292742D01*
G01X8113490Y292742D01*
G01X8241252Y412884D02*
G01X8184102Y292742D01*
G01X8161242Y412884D02*
G01X8241252Y412884D01*
G01X8294846Y321444D02*
G01X8289004Y315602D01*
G01X8294846Y310014D01*
G01X8300434Y315602D01*
G01X8294846Y321444D01*
G01X8416766Y395612D02*
G01X8411178Y407042D01*
G01X8393906Y412884D01*
G01X8382476Y412884D01*
G01X8365458Y407042D01*
G01X8354028Y390024D01*
G01X8348186Y361322D01*
G01X8348186Y332874D01*
G01X8354028Y310014D01*
G01X8365458Y298584D01*
G01X8382476Y292742D01*
G01X8388318Y292742D01*
G01X8405336Y298584D01*
G01X8416766Y310014D01*
G01X8422608Y327032D01*
G01X8422608Y332874D01*
G01X8416766Y349892D01*
G01X8405336Y361322D01*
G01X8388318Y367164D01*
G01X8382476Y367164D01*
G01X8365458Y361322D01*
G01X8354028Y349892D01*
G01X8348186Y332874D01*
G01X8470360Y372752D02*
G01X8470360Y292742D01*
G01X8470360Y349892D02*
G01X8487632Y367164D01*
G01X8499062Y372752D01*
G01X8516080Y372752D01*
G01X8527510Y367164D01*
G01X8533352Y349892D01*
G01X8533352Y292742D01*
G01X8533352Y349892D02*
G01X8550370Y367164D01*
G01X8561800Y372752D01*
G01X8579072Y372752D01*
G01X8590502Y367164D01*
G01X8596090Y349892D01*
G01X8596090Y292742D01*
G01X8643842Y412884D02*
G01X8649684Y407042D01*
G01X8655272Y412884D01*
G01X8649684Y418472D01*
G01X8643842Y412884D01*
G01X8649684Y372752D02*
G01X8649684Y292742D01*
G01X8703024Y412884D02*
G01X8703024Y292742D01*
G01X8790908Y435744D02*
G01X8779478Y424314D01*
G01X8768048Y407042D01*
G01X8756618Y384182D01*
G01X8750776Y355734D01*
G01X8750776Y332874D01*
G01X8756618Y304172D01*
G01X8768048Y281312D01*
G01X8779478Y264294D01*
G01X8790908Y252864D01*
G01X8872950Y412884D02*
G01X8855932Y407042D01*
G01X8844502Y390024D01*
G01X8838660Y361322D01*
G01X8838660Y344304D01*
G01X8844502Y315602D01*
G01X8855932Y298584D01*
G01X8872950Y292742D01*
G01X8884380Y292742D01*
G01X8901652Y298584D01*
G01X8913082Y315602D01*
G01X8918670Y344304D01*
G01X8918670Y361322D01*
G01X8913082Y390024D01*
G01X8901652Y407042D01*
G01X8884380Y412884D01*
G01X8872950Y412884D01*
G01X8972264Y321444D02*
G01X8966422Y315602D01*
G01X8972264Y310014D01*
G01X8977852Y315602D01*
G01X8972264Y321444D01*
G01X9105614Y412884D02*
G01X9048464Y292742D01*
G01X9025604Y412884D02*
G01X9105614Y412884D01*
G01X9187656Y412884D02*
G01X9170638Y407042D01*
G01X9159208Y390024D01*
G01X9153366Y361322D01*
G01X9153366Y344304D01*
G01X9159208Y315602D01*
G01X9170638Y298584D01*
G01X9187656Y292742D01*
G01X9199086Y292742D01*
G01X9216358Y298584D01*
G01X9227788Y315602D01*
G01X9233376Y344304D01*
G01X9233376Y361322D01*
G01X9227788Y390024D01*
G01X9216358Y407042D01*
G01X9199086Y412884D01*
G01X9187656Y412884D01*
G01X9315418Y412884D02*
G01X9298400Y407042D01*
G01X9286970Y390024D01*
G01X9281128Y361322D01*
G01X9281128Y344304D01*
G01X9286970Y315602D01*
G01X9298400Y298584D01*
G01X9315418Y292742D01*
G01X9326848Y292742D01*
G01X9344120Y298584D01*
G01X9355550Y315602D01*
G01X9361138Y344304D01*
G01X9361138Y361322D01*
G01X9355550Y390024D01*
G01X9344120Y407042D01*
G01X9326848Y412884D01*
G01X9315418Y412884D01*
G01X9408890Y372752D02*
G01X9408890Y292742D01*
G01X9408890Y349892D02*
G01X9426162Y367164D01*
G01X9437592Y372752D01*
G01X9454610Y372752D01*
G01X9466040Y367164D01*
G01X9471882Y349892D01*
G01X9471882Y292742D01*
G01X9471882Y349892D02*
G01X9488900Y367164D01*
G01X9500330Y372752D01*
G01X9517602Y372752D01*
G01X9529032Y367164D01*
G01X9534620Y349892D01*
G01X9534620Y292742D01*
G01X9582372Y372752D02*
G01X9582372Y292742D01*
G01X9582372Y349892D02*
G01X9599644Y367164D01*
G01X9611074Y372752D01*
G01X9628092Y372752D01*
G01X9639522Y367164D01*
G01X9645364Y349892D01*
G01X9645364Y292742D01*
G01X9645364Y349892D02*
G01X9662382Y367164D01*
G01X9673812Y372752D01*
G01X9691084Y372752D01*
G01X9702514Y367164D01*
G01X9708102Y349892D01*
G01X9708102Y292742D01*
G01X9755854Y435744D02*
G01X9767284Y424314D01*
G01X9778714Y407042D01*
G01X9790144Y384182D01*
G01X9795986Y355734D01*
G01X9795986Y332874D01*
G01X9790144Y304172D01*
G01X9778714Y281312D01*
G01X9767284Y264294D01*
G01X9755854Y252864D01*
G01X11870295Y412884D02*
G01X11870295Y292742D01*
G01X11870295Y412884D02*
G01X11950305Y292742D01*
G01X11950305Y412884D02*
G01X11950305Y292742D01*
G01X11998057Y412884D02*
G01X11998057Y292742D01*
G01X11998057Y412884D02*
G01X12049619Y412884D01*
G01X12066637Y407042D01*
G01X12072479Y401454D01*
G01X12078067Y390024D01*
G01X12078067Y372752D01*
G01X12072479Y361322D01*
G01X12066637Y355734D01*
G01X12049619Y349892D01*
G01X11998057Y349892D01*
G01X12165951Y412884D02*
G01X12165951Y292742D01*
G01X12125819Y412884D02*
G01X12205829Y412884D01*
G01X12253581Y412884D02*
G01X12253581Y292742D01*
G01X12333591Y412884D02*
G01X12333591Y292742D01*
G01X12253581Y355734D02*
G01X12333591Y355734D01*
G01X13331702Y412884D02*
G01X13331702Y292742D01*
G01X13331702Y412884D02*
G01X13383264Y412884D01*
G01X13400282Y407042D01*
G01X13406124Y401454D01*
G01X13411712Y390024D01*
G01X13411712Y378594D01*
G01X13406124Y367164D01*
G01X13400282Y361322D01*
G01X13383264Y355734D01*
G01X13331702Y355734D01*
G01X13371834Y355734D02*
G01X13411712Y292742D01*
G01X13488166Y372752D02*
G01X13476736Y367164D01*
G01X13465306Y355734D01*
G01X13459464Y338462D01*
G01X13459464Y327032D01*
G01X13465306Y310014D01*
G01X13476736Y298584D01*
G01X13488166Y292742D01*
G01X13505184Y292742D01*
G01X13516614Y298584D01*
G01X13528044Y310014D01*
G01X13533886Y327032D01*
G01X13533886Y338462D01*
G01X13528044Y355734D01*
G01X13516614Y367164D01*
G01X13505184Y372752D01*
G01X13488166Y372752D01*
G01X13581638Y372752D02*
G01X13581638Y315602D01*
G01X13587480Y298584D01*
G01X13598910Y292742D01*
G01X13615928Y292742D01*
G01X13627358Y298584D01*
G01X13644630Y315602D01*
G01X13644630Y372752D02*
G01X13644630Y292742D01*
G01X13692382Y372752D02*
G01X13692382Y292742D01*
G01X13692382Y349892D02*
G01X13709654Y367164D01*
G01X13721084Y372752D01*
G01X13738102Y372752D01*
G01X13749532Y367164D01*
G01X13755374Y349892D01*
G01X13755374Y292742D01*
G01X13871706Y412884D02*
G01X13871706Y292742D01*
G01X13871706Y355734D02*
G01X13860276Y367164D01*
G01X13848846Y372752D01*
G01X13831828Y372752D01*
G01X13820398Y367164D01*
G01X13808968Y355734D01*
G01X13803126Y338462D01*
G01X13803126Y327032D01*
G01X13808968Y310014D01*
G01X13820398Y298584D01*
G01X13831828Y292742D01*
G01X13848846Y292742D01*
G01X13860276Y298584D01*
G01X13871706Y310014D01*
G01X14762883Y412884D02*
G01X14808603Y292742D01*
G01X14854323Y412884D02*
G01X14808603Y292742D01*
G01X14902075Y412884D02*
G01X14907917Y407042D01*
G01X14913505Y412884D01*
G01X14907917Y418472D01*
G01X14902075Y412884D01*
G01X14907917Y372752D02*
G01X14907917Y292742D01*
G01X15029837Y372752D02*
G01X15029837Y292742D01*
G01X15029837Y355734D02*
G01X15018407Y367164D01*
G01X15006977Y372752D01*
G01X14989959Y372752D01*
G01X14978529Y367164D01*
G01X14967099Y355734D01*
G01X14961257Y338462D01*
G01X14961257Y327032D01*
G01X14967099Y310014D01*
G01X14978529Y298584D01*
G01X14989959Y292742D01*
G01X15006977Y292742D01*
G01X15018407Y298584D01*
G01X15029837Y310014D01*
G01X18391564Y412884D02*
G01X18391564Y292742D01*
G01X18351432Y412884D02*
G01X18431442Y412884D01*
G01X18507896Y372752D02*
G01X18496466Y367164D01*
G01X18485036Y355734D01*
G01X18479194Y338462D01*
G01X18479194Y327032D01*
G01X18485036Y310014D01*
G01X18496466Y298584D01*
G01X18507896Y292742D01*
G01X18524914Y292742D01*
G01X18536344Y298584D01*
G01X18547774Y310014D01*
G01X18553616Y327032D01*
G01X18553616Y338462D01*
G01X18547774Y355734D01*
G01X18536344Y367164D01*
G01X18524914Y372752D01*
G01X18507896Y372752D01*
G01X18601368Y372752D02*
G01X18601368Y252864D01*
G01X18601368Y355734D02*
G01X18612798Y367164D01*
G01X18624228Y372752D01*
G01X18641500Y372752D01*
G01X18652930Y367164D01*
G01X18664360Y355734D01*
G01X18669948Y338462D01*
G01X18669948Y327032D01*
G01X18664360Y310014D01*
G01X18652930Y298584D01*
G01X18641500Y292742D01*
G01X18624228Y292742D01*
G01X18612798Y298584D01*
G01X18601368Y310014D01*
G01X18845716Y412884D02*
G01X18845716Y292742D01*
G01X18845716Y292742D02*
G01X18914296Y292742D01*
G01X19030628Y372752D02*
G01X19030628Y292742D01*
G01X19030628Y355734D02*
G01X19019198Y367164D01*
G01X19007768Y372752D01*
G01X18990750Y372752D01*
G01X18979320Y367164D01*
G01X18967890Y355734D01*
G01X18962048Y338462D01*
G01X18962048Y327032D01*
G01X18967890Y310014D01*
G01X18979320Y298584D01*
G01X18990750Y292742D01*
G01X19007768Y292742D01*
G01X19019198Y298584D01*
G01X19030628Y310014D01*
G01X19084222Y372752D02*
G01X19118512Y292742D01*
G01X19152802Y372752D02*
G01X19118512Y292742D01*
G01X19107082Y269882D01*
G01X19095652Y258452D01*
G01X19084222Y252864D01*
G01X19078380Y252864D01*
G01X19200554Y338462D02*
G01X19269134Y338462D01*
G01X19269134Y349892D01*
G01X19263546Y361322D01*
G01X19257704Y367164D01*
G01X19246274Y372752D01*
G01X19229256Y372752D01*
G01X19217826Y367164D01*
G01X19206396Y355734D01*
G01X19200554Y338462D01*
G01X19200554Y327032D01*
G01X19206396Y310014D01*
G01X19217826Y298584D01*
G01X19229256Y292742D01*
G01X19246274Y292742D01*
G01X19257704Y298584D01*
G01X19269134Y310014D01*
G01X19316886Y372752D02*
G01X19316886Y292742D01*
G01X19316886Y338462D02*
G01X19322728Y355734D01*
G01X19334158Y367164D01*
G01X19345588Y372752D01*
G01X19362606Y372752D01*
G01X19410358Y344304D02*
G01X19513228Y344304D01*
G01X19560980Y412884D02*
G01X19560980Y292742D01*
G01X19560980Y412884D02*
G01X19612542Y412884D01*
G01X19629560Y407042D01*
G01X19635402Y401454D01*
G01X19640990Y390024D01*
G01X19640990Y378594D01*
G01X19635402Y367164D01*
G01X19629560Y361322D01*
G01X19612542Y355734D01*
G01X19560980Y355734D02*
G01X19612542Y355734D01*
G01X19629560Y349892D01*
G01X19635402Y344304D01*
G01X19640990Y332874D01*
G01X19640990Y315602D01*
G01X19635402Y304172D01*
G01X19629560Y298584D01*
G01X19612542Y292742D01*
G01X19560980Y292742D01*
G01X19717444Y372752D02*
G01X19706014Y367164D01*
G01X19694584Y355734D01*
G01X19688742Y338462D01*
G01X19688742Y327032D01*
G01X19694584Y310014D01*
G01X19706014Y298584D01*
G01X19717444Y292742D01*
G01X19734462Y292742D01*
G01X19745892Y298584D01*
G01X19757322Y310014D01*
G01X19763164Y327032D01*
G01X19763164Y338462D01*
G01X19757322Y355734D01*
G01X19745892Y367164D01*
G01X19734462Y372752D01*
G01X19717444Y372752D01*
G01X19828188Y412884D02*
G01X19828188Y315602D01*
G01X19833776Y298584D01*
G01X19845206Y292742D01*
G01X19856636Y292742D01*
G01X19810916Y372752D02*
G01X19851048Y372752D01*
G01X19921660Y412884D02*
G01X19921660Y315602D01*
G01X19927248Y298584D01*
G01X19938678Y292742D01*
G01X19950108Y292742D01*
G01X19904388Y372752D02*
G01X19944520Y372752D01*
G01X20026562Y372752D02*
G01X20015132Y367164D01*
G01X20003702Y355734D01*
G01X19997860Y338462D01*
G01X19997860Y327032D01*
G01X20003702Y310014D01*
G01X20015132Y298584D01*
G01X20026562Y292742D01*
G01X20043580Y292742D01*
G01X20055010Y298584D01*
G01X20066440Y310014D01*
G01X20072282Y327032D01*
G01X20072282Y338462D01*
G01X20066440Y355734D01*
G01X20055010Y367164D01*
G01X20043580Y372752D01*
G01X20026562Y372752D01*
G01X20120034Y372752D02*
G01X20120034Y292742D01*
G01X20120034Y349892D02*
G01X20137306Y367164D01*
G01X20148736Y372752D01*
G01X20165754Y372752D01*
G01X20177184Y367164D01*
G01X20183026Y349892D01*
G01X20183026Y292742D01*
G01X20183026Y349892D02*
G01X20200044Y367164D01*
G01X20211474Y372752D01*
G01X20228746Y372752D01*
G01X20240176Y367164D01*
G01X20245764Y349892D01*
G01X20245764Y292742D01*
G01X20421532Y412884D02*
G01X20421532Y292742D01*
G01X20421532Y292742D02*
G01X20490112Y292742D01*
G01X20606444Y372752D02*
G01X20606444Y292742D01*
G01X20606444Y355734D02*
G01X20595014Y367164D01*
G01X20583584Y372752D01*
G01X20566566Y372752D01*
G01X20555136Y367164D01*
G01X20543706Y355734D01*
G01X20537864Y338462D01*
G01X20537864Y327032D01*
G01X20543706Y310014D01*
G01X20555136Y298584D01*
G01X20566566Y292742D01*
G01X20583584Y292742D01*
G01X20595014Y298584D01*
G01X20606444Y310014D01*
G01X20660038Y372752D02*
G01X20694328Y292742D01*
G01X20728618Y372752D02*
G01X20694328Y292742D01*
G01X20682898Y269882D01*
G01X20671468Y258452D01*
G01X20660038Y252864D01*
G01X20654196Y252864D01*
G01X20776370Y338462D02*
G01X20844950Y338462D01*
G01X20844950Y349892D01*
G01X20839362Y361322D01*
G01X20833520Y367164D01*
G01X20822090Y372752D01*
G01X20805072Y372752D01*
G01X20793642Y367164D01*
G01X20782212Y355734D01*
G01X20776370Y338462D01*
G01X20776370Y327032D01*
G01X20782212Y310014D01*
G01X20793642Y298584D01*
G01X20805072Y292742D01*
G01X20822090Y292742D01*
G01X20833520Y298584D01*
G01X20844950Y310014D01*
G01X20892702Y372752D02*
G01X20892702Y292742D01*
G01X20892702Y338462D02*
G01X20898544Y355734D01*
G01X20909974Y367164D01*
G01X20921404Y372752D01*
G01X20938422Y372752D01*
G01X6693739Y-207820D02*
G01X6687897Y-224838D01*
G01X6676467Y-236268D01*
G01X6659449Y-242110D01*
G01X6653607Y-242110D01*
G01X6636589Y-236268D01*
G01X6625159Y-224838D01*
G01X6619317Y-207820D01*
G01X6619317Y-201978D01*
G01X6625159Y-184960D01*
G01X6636589Y-173530D01*
G01X6653607Y-167688D01*
G01X6659449Y-167688D01*
G01X6676467Y-173530D01*
G01X6687897Y-184960D01*
G01X6693739Y-207820D01*
G01X6693739Y-236268D01*
G01X6687897Y-264970D01*
G01X6676467Y-281988D01*
G01X6659449Y-287830D01*
G01X6648019Y-287830D01*
G01X6630747Y-281988D01*
G01X6625159Y-270558D01*
G01X8033480Y-190548D02*
G01X8044910Y-184960D01*
G01X8062182Y-167688D01*
G01X8062182Y-287830D01*
G01X8115776Y-196390D02*
G01X8115776Y-190548D01*
G01X8121364Y-179118D01*
G01X8127206Y-173530D01*
G01X8138636Y-167688D01*
G01X8161496Y-167688D01*
G01X8172926Y-173530D01*
G01X8178514Y-179118D01*
G01X8184356Y-190548D01*
G01X8184356Y-201978D01*
G01X8178514Y-213408D01*
G01X8167084Y-230680D01*
G01X8109934Y-287830D01*
G01X8189944Y-287830D01*
G01X8243538Y-259128D02*
G01X8237696Y-264970D01*
G01X8243538Y-270558D01*
G01X8249126Y-264970D01*
G01X8243538Y-259128D01*
G01X8331168Y-167688D02*
G01X8314150Y-173530D01*
G01X8302720Y-190548D01*
G01X8296878Y-219250D01*
G01X8296878Y-236268D01*
G01X8302720Y-264970D01*
G01X8314150Y-281988D01*
G01X8331168Y-287830D01*
G01X8342598Y-287830D01*
G01X8359870Y-281988D01*
G01X8371300Y-264970D01*
G01X8376888Y-236268D01*
G01X8376888Y-219250D01*
G01X8371300Y-190548D01*
G01X8359870Y-173530D01*
G01X8342598Y-167688D01*
G01X8331168Y-167688D01*
G01X8424640Y-207820D02*
G01X8424640Y-287830D01*
G01X8424640Y-230680D02*
G01X8441912Y-213408D01*
G01X8453342Y-207820D01*
G01X8470360Y-207820D01*
G01X8481790Y-213408D01*
G01X8487632Y-230680D01*
G01X8487632Y-287830D01*
G01X8487632Y-230680D02*
G01X8504650Y-213408D01*
G01X8516080Y-207820D01*
G01X8533352Y-207820D01*
G01X8544782Y-213408D01*
G01X8550370Y-230680D01*
G01X8550370Y-287830D01*
G01X8598122Y-167688D02*
G01X8603964Y-173530D01*
G01X8609552Y-167688D01*
G01X8603964Y-162100D01*
G01X8598122Y-167688D01*
G01X8603964Y-207820D02*
G01X8603964Y-287830D01*
G01X8657304Y-167688D02*
G01X8657304Y-287830D01*
G01X8745188Y-144828D02*
G01X8733758Y-156258D01*
G01X8722328Y-173530D01*
G01X8710898Y-196390D01*
G01X8705056Y-224838D01*
G01X8705056Y-247698D01*
G01X8710898Y-276400D01*
G01X8722328Y-299260D01*
G01X8733758Y-316278D01*
G01X8745188Y-327708D01*
G01X8827230Y-167688D02*
G01X8810212Y-173530D01*
G01X8798782Y-190548D01*
G01X8792940Y-219250D01*
G01X8792940Y-236268D01*
G01X8798782Y-264970D01*
G01X8810212Y-281988D01*
G01X8827230Y-287830D01*
G01X8838660Y-287830D01*
G01X8855932Y-281988D01*
G01X8867362Y-264970D01*
G01X8872950Y-236268D01*
G01X8872950Y-219250D01*
G01X8867362Y-190548D01*
G01X8855932Y-173530D01*
G01X8838660Y-167688D01*
G01X8827230Y-167688D01*
G01X8926544Y-259128D02*
G01X8920702Y-264970D01*
G01X8926544Y-270558D01*
G01X8932132Y-264970D01*
G01X8926544Y-259128D01*
G01X8991314Y-167688D02*
G01X9054306Y-167688D01*
G01X9020016Y-213408D01*
G01X9037034Y-213408D01*
G01X9048464Y-219250D01*
G01X9054306Y-224838D01*
G01X9059894Y-242110D01*
G01X9059894Y-253540D01*
G01X9054306Y-270558D01*
G01X9042876Y-281988D01*
G01X9025604Y-287830D01*
G01X9008586Y-287830D01*
G01X8991314Y-281988D01*
G01X8985726Y-276400D01*
G01X8979884Y-264970D01*
G01X9141936Y-167688D02*
G01X9124918Y-173530D01*
G01X9113488Y-190548D01*
G01X9107646Y-219250D01*
G01X9107646Y-236268D01*
G01X9113488Y-264970D01*
G01X9124918Y-281988D01*
G01X9141936Y-287830D01*
G01X9153366Y-287830D01*
G01X9170638Y-281988D01*
G01X9182068Y-264970D01*
G01X9187656Y-236268D01*
G01X9187656Y-219250D01*
G01X9182068Y-190548D01*
G01X9170638Y-173530D01*
G01X9153366Y-167688D01*
G01X9141936Y-167688D01*
G01X9303988Y-167688D02*
G01X9246838Y-167688D01*
G01X9241250Y-219250D01*
G01X9246838Y-213408D01*
G01X9264110Y-207820D01*
G01X9281128Y-207820D01*
G01X9298400Y-213408D01*
G01X9309830Y-224838D01*
G01X9315418Y-242110D01*
G01X9315418Y-253540D01*
G01X9309830Y-270558D01*
G01X9298400Y-281988D01*
G01X9281128Y-287830D01*
G01X9264110Y-287830D01*
G01X9246838Y-281988D01*
G01X9241250Y-276400D01*
G01X9235408Y-264970D01*
G01X9363170Y-207820D02*
G01X9363170Y-287830D01*
G01X9363170Y-230680D02*
G01X9380442Y-213408D01*
G01X9391872Y-207820D01*
G01X9408890Y-207820D01*
G01X9420320Y-213408D01*
G01X9426162Y-230680D01*
G01X9426162Y-287830D01*
G01X9426162Y-230680D02*
G01X9443180Y-213408D01*
G01X9454610Y-207820D01*
G01X9471882Y-207820D01*
G01X9483312Y-213408D01*
G01X9488900Y-230680D01*
G01X9488900Y-287830D01*
G01X9536652Y-207820D02*
G01X9536652Y-287830D01*
G01X9536652Y-230680D02*
G01X9553924Y-213408D01*
G01X9565354Y-207820D01*
G01X9582372Y-207820D01*
G01X9593802Y-213408D01*
G01X9599644Y-230680D01*
G01X9599644Y-287830D01*
G01X9599644Y-230680D02*
G01X9616662Y-213408D01*
G01X9628092Y-207820D01*
G01X9645364Y-207820D01*
G01X9656794Y-213408D01*
G01X9662382Y-230680D01*
G01X9662382Y-287830D01*
G01X9710134Y-144828D02*
G01X9721564Y-156258D01*
G01X9732994Y-173530D01*
G01X9744424Y-196390D01*
G01X9750266Y-224838D01*
G01X9750266Y-247698D01*
G01X9744424Y-276400D01*
G01X9732994Y-299260D01*
G01X9721564Y-316278D01*
G01X9710134Y-327708D01*
G01X11870295Y-167688D02*
G01X11870295Y-287830D01*
G01X11870295Y-167688D02*
G01X11921857Y-167688D01*
G01X11938875Y-173530D01*
G01X11944717Y-179118D01*
G01X11950305Y-190548D01*
G01X11950305Y-207820D01*
G01X11944717Y-219250D01*
G01X11938875Y-224838D01*
G01X11921857Y-230680D01*
G01X11870295Y-230680D01*
G01X12038189Y-167688D02*
G01X12038189Y-287830D01*
G01X11998057Y-167688D02*
G01X12078067Y-167688D01*
G01X12125819Y-167688D02*
G01X12125819Y-287830D01*
G01X12205829Y-167688D02*
G01X12205829Y-287830D01*
G01X12125819Y-224838D02*
G01X12205829Y-224838D01*
G01X13331702Y-167688D02*
G01X13331702Y-287830D01*
G01X13331702Y-167688D02*
G01X13383264Y-167688D01*
G01X13400282Y-173530D01*
G01X13406124Y-179118D01*
G01X13411712Y-190548D01*
G01X13411712Y-201978D01*
G01X13406124Y-213408D01*
G01X13400282Y-219250D01*
G01X13383264Y-224838D01*
G01X13331702Y-224838D01*
G01X13371834Y-224838D02*
G01X13411712Y-287830D01*
G01X13488166Y-207820D02*
G01X13476736Y-213408D01*
G01X13465306Y-224838D01*
G01X13459464Y-242110D01*
G01X13459464Y-253540D01*
G01X13465306Y-270558D01*
G01X13476736Y-281988D01*
G01X13488166Y-287830D01*
G01X13505184Y-287830D01*
G01X13516614Y-281988D01*
G01X13528044Y-270558D01*
G01X13533886Y-253540D01*
G01X13533886Y-242110D01*
G01X13528044Y-224838D01*
G01X13516614Y-213408D01*
G01X13505184Y-207820D01*
G01X13488166Y-207820D01*
G01X13581638Y-207820D02*
G01X13581638Y-264970D01*
G01X13587480Y-281988D01*
G01X13598910Y-287830D01*
G01X13615928Y-287830D01*
G01X13627358Y-281988D01*
G01X13644630Y-264970D01*
G01X13644630Y-207820D02*
G01X13644630Y-287830D01*
G01X13692382Y-207820D02*
G01X13692382Y-287830D01*
G01X13692382Y-230680D02*
G01X13709654Y-213408D01*
G01X13721084Y-207820D01*
G01X13738102Y-207820D01*
G01X13749532Y-213408D01*
G01X13755374Y-230680D01*
G01X13755374Y-287830D01*
G01X13871706Y-167688D02*
G01X13871706Y-287830D01*
G01X13871706Y-224838D02*
G01X13860276Y-213408D01*
G01X13848846Y-207820D01*
G01X13831828Y-207820D01*
G01X13820398Y-213408D01*
G01X13808968Y-224838D01*
G01X13803126Y-242110D01*
G01X13803126Y-253540D01*
G01X13808968Y-270558D01*
G01X13820398Y-281988D01*
G01X13831828Y-287830D01*
G01X13848846Y-287830D01*
G01X13860276Y-281988D01*
G01X13871706Y-270558D01*
G01X14762883Y-167688D02*
G01X14808603Y-287830D01*
G01X14854323Y-167688D02*
G01X14808603Y-287830D01*
G01X14902075Y-167688D02*
G01X14907917Y-173530D01*
G01X14913505Y-167688D01*
G01X14907917Y-162100D01*
G01X14902075Y-167688D01*
G01X14907917Y-207820D02*
G01X14907917Y-287830D01*
G01X15029837Y-207820D02*
G01X15029837Y-287830D01*
G01X15029837Y-224838D02*
G01X15018407Y-213408D01*
G01X15006977Y-207820D01*
G01X14989959Y-207820D01*
G01X14978529Y-213408D01*
G01X14967099Y-224838D01*
G01X14961257Y-242110D01*
G01X14961257Y-253540D01*
G01X14967099Y-270558D01*
G01X14978529Y-281988D01*
G01X14989959Y-287830D01*
G01X15006977Y-287830D01*
G01X15018407Y-281988D01*
G01X15029837Y-270558D01*
G01X18391564Y-167688D02*
G01X18391564Y-287830D01*
G01X18351432Y-167688D02*
G01X18431442Y-167688D01*
G01X18507896Y-207820D02*
G01X18496466Y-213408D01*
G01X18485036Y-224838D01*
G01X18479194Y-242110D01*
G01X18479194Y-253540D01*
G01X18485036Y-270558D01*
G01X18496466Y-281988D01*
G01X18507896Y-287830D01*
G01X18524914Y-287830D01*
G01X18536344Y-281988D01*
G01X18547774Y-270558D01*
G01X18553616Y-253540D01*
G01X18553616Y-242110D01*
G01X18547774Y-224838D01*
G01X18536344Y-213408D01*
G01X18524914Y-207820D01*
G01X18507896Y-207820D01*
G01X18601368Y-207820D02*
G01X18601368Y-327708D01*
G01X18601368Y-224838D02*
G01X18612798Y-213408D01*
G01X18624228Y-207820D01*
G01X18641500Y-207820D01*
G01X18652930Y-213408D01*
G01X18664360Y-224838D01*
G01X18669948Y-242110D01*
G01X18669948Y-253540D01*
G01X18664360Y-270558D01*
G01X18652930Y-281988D01*
G01X18641500Y-287830D01*
G01X18624228Y-287830D01*
G01X18612798Y-281988D01*
G01X18601368Y-270558D01*
G01X18845716Y-167688D02*
G01X18845716Y-287830D01*
G01X18845716Y-287830D02*
G01X18914296Y-287830D01*
G01X19030628Y-207820D02*
G01X19030628Y-287830D01*
G01X19030628Y-224838D02*
G01X19019198Y-213408D01*
G01X19007768Y-207820D01*
G01X18990750Y-207820D01*
G01X18979320Y-213408D01*
G01X18967890Y-224838D01*
G01X18962048Y-242110D01*
G01X18962048Y-253540D01*
G01X18967890Y-270558D01*
G01X18979320Y-281988D01*
G01X18990750Y-287830D01*
G01X19007768Y-287830D01*
G01X19019198Y-281988D01*
G01X19030628Y-270558D01*
G01X19084222Y-207820D02*
G01X19118512Y-287830D01*
G01X19152802Y-207820D02*
G01X19118512Y-287830D01*
G01X19107082Y-310690D01*
G01X19095652Y-322120D01*
G01X19084222Y-327708D01*
G01X19078380Y-327708D01*
G01X19200554Y-242110D02*
G01X19269134Y-242110D01*
G01X19269134Y-230680D01*
G01X19263546Y-219250D01*
G01X19257704Y-213408D01*
G01X19246274Y-207820D01*
G01X19229256Y-207820D01*
G01X19217826Y-213408D01*
G01X19206396Y-224838D01*
G01X19200554Y-242110D01*
G01X19200554Y-253540D01*
G01X19206396Y-270558D01*
G01X19217826Y-281988D01*
G01X19229256Y-287830D01*
G01X19246274Y-287830D01*
G01X19257704Y-281988D01*
G01X19269134Y-270558D01*
G01X19316886Y-207820D02*
G01X19316886Y-287830D01*
G01X19316886Y-242110D02*
G01X19322728Y-224838D01*
G01X19334158Y-213408D01*
G01X19345588Y-207820D01*
G01X19362606Y-207820D01*
G01X19410358Y-236268D02*
G01X19513228Y-236268D01*
G01X19560980Y-167688D02*
G01X19560980Y-287830D01*
G01X19560980Y-167688D02*
G01X19612542Y-167688D01*
G01X19629560Y-173530D01*
G01X19635402Y-179118D01*
G01X19640990Y-190548D01*
G01X19640990Y-201978D01*
G01X19635402Y-213408D01*
G01X19629560Y-219250D01*
G01X19612542Y-224838D01*
G01X19560980Y-224838D02*
G01X19612542Y-224838D01*
G01X19629560Y-230680D01*
G01X19635402Y-236268D01*
G01X19640990Y-247698D01*
G01X19640990Y-264970D01*
G01X19635402Y-276400D01*
G01X19629560Y-281988D01*
G01X19612542Y-287830D01*
G01X19560980Y-287830D01*
G01X19717444Y-207820D02*
G01X19706014Y-213408D01*
G01X19694584Y-224838D01*
G01X19688742Y-242110D01*
G01X19688742Y-253540D01*
G01X19694584Y-270558D01*
G01X19706014Y-281988D01*
G01X19717444Y-287830D01*
G01X19734462Y-287830D01*
G01X19745892Y-281988D01*
G01X19757322Y-270558D01*
G01X19763164Y-253540D01*
G01X19763164Y-242110D01*
G01X19757322Y-224838D01*
G01X19745892Y-213408D01*
G01X19734462Y-207820D01*
G01X19717444Y-207820D01*
G01X19828188Y-167688D02*
G01X19828188Y-264970D01*
G01X19833776Y-281988D01*
G01X19845206Y-287830D01*
G01X19856636Y-287830D01*
G01X19810916Y-207820D02*
G01X19851048Y-207820D01*
G01X19921660Y-167688D02*
G01X19921660Y-264970D01*
G01X19927248Y-281988D01*
G01X19938678Y-287830D01*
G01X19950108Y-287830D01*
G01X19904388Y-207820D02*
G01X19944520Y-207820D01*
G01X20026562Y-207820D02*
G01X20015132Y-213408D01*
G01X20003702Y-224838D01*
G01X19997860Y-242110D01*
G01X19997860Y-253540D01*
G01X20003702Y-270558D01*
G01X20015132Y-281988D01*
G01X20026562Y-287830D01*
G01X20043580Y-287830D01*
G01X20055010Y-281988D01*
G01X20066440Y-270558D01*
G01X20072282Y-253540D01*
G01X20072282Y-242110D01*
G01X20066440Y-224838D01*
G01X20055010Y-213408D01*
G01X20043580Y-207820D01*
G01X20026562Y-207820D01*
G01X20120034Y-207820D02*
G01X20120034Y-287830D01*
G01X20120034Y-230680D02*
G01X20137306Y-213408D01*
G01X20148736Y-207820D01*
G01X20165754Y-207820D01*
G01X20177184Y-213408D01*
G01X20183026Y-230680D01*
G01X20183026Y-287830D01*
G01X20183026Y-230680D02*
G01X20200044Y-213408D01*
G01X20211474Y-207820D01*
G01X20228746Y-207820D01*
G01X20240176Y-213408D01*
G01X20245764Y-230680D01*
G01X20245764Y-287830D01*
G01X20421532Y-167688D02*
G01X20421532Y-287830D01*
G01X20421532Y-287830D02*
G01X20490112Y-287830D01*
G01X20606444Y-207820D02*
G01X20606444Y-287830D01*
G01X20606444Y-224838D02*
G01X20595014Y-213408D01*
G01X20583584Y-207820D01*
G01X20566566Y-207820D01*
G01X20555136Y-213408D01*
G01X20543706Y-224838D01*
G01X20537864Y-242110D01*
G01X20537864Y-253540D01*
G01X20543706Y-270558D01*
G01X20555136Y-281988D01*
G01X20566566Y-287830D01*
G01X20583584Y-287830D01*
G01X20595014Y-281988D01*
G01X20606444Y-270558D01*
G01X20660038Y-207820D02*
G01X20694328Y-287830D01*
G01X20728618Y-207820D02*
G01X20694328Y-287830D01*
G01X20682898Y-310690D01*
G01X20671468Y-322120D01*
G01X20660038Y-327708D01*
G01X20654196Y-327708D01*
G01X20776370Y-242110D02*
G01X20844950Y-242110D01*
G01X20844950Y-230680D01*
G01X20839362Y-219250D01*
G01X20833520Y-213408D01*
G01X20822090Y-207820D01*
G01X20805072Y-207820D01*
G01X20793642Y-213408D01*
G01X20782212Y-224838D01*
G01X20776370Y-242110D01*
G01X20776370Y-253540D01*
G01X20782212Y-270558D01*
G01X20793642Y-281988D01*
G01X20805072Y-287830D01*
G01X20822090Y-287830D01*
G01X20833520Y-281988D01*
G01X20844950Y-270558D01*
G01X20892702Y-207820D02*
G01X20892702Y-287830D01*
G01X20892702Y-242110D02*
G01X20898544Y-224838D01*
G01X20909974Y-213408D01*
G01X20921404Y-207820D01*
G01X20938422Y-207820D01*
G01X6687897Y-765531D02*
G01X6682309Y-754101D01*
G01X6665037Y-748259D01*
G01X6653607Y-748259D01*
G01X6636589Y-754101D01*
G01X6625159Y-771119D01*
G01X6619317Y-799821D01*
G01X6619317Y-828269D01*
G01X6625159Y-851129D01*
G01X6636589Y-862559D01*
G01X6653607Y-868401D01*
G01X6659449Y-868401D01*
G01X6676467Y-862559D01*
G01X6687897Y-851129D01*
G01X6693739Y-834111D01*
G01X6693739Y-828269D01*
G01X6687897Y-811251D01*
G01X6676467Y-799821D01*
G01X6659449Y-793979D01*
G01X6653607Y-793979D01*
G01X6636589Y-799821D01*
G01X6625159Y-811251D01*
G01X6619317Y-828269D01*
G01X6821501Y-748259D02*
G01X6764351Y-868401D01*
G01X6741491Y-748259D02*
G01X6821501Y-748259D01*
G01X8033480Y-771119D02*
G01X8044910Y-765531D01*
G01X8062182Y-748259D01*
G01X8062182Y-868401D01*
G01X8144224Y-748259D02*
G01X8127206Y-754101D01*
G01X8115776Y-771119D01*
G01X8109934Y-799821D01*
G01X8109934Y-816839D01*
G01X8115776Y-845541D01*
G01X8127206Y-862559D01*
G01X8144224Y-868401D01*
G01X8155654Y-868401D01*
G01X8172926Y-862559D01*
G01X8184356Y-845541D01*
G01X8189944Y-816839D01*
G01X8189944Y-799821D01*
G01X8184356Y-771119D01*
G01X8172926Y-754101D01*
G01X8155654Y-748259D01*
G01X8144224Y-748259D01*
G01X8243538Y-839699D02*
G01X8237696Y-845541D01*
G01X8243538Y-851129D01*
G01X8249126Y-845541D01*
G01X8243538Y-839699D01*
G01X8331168Y-748259D02*
G01X8314150Y-754101D01*
G01X8302720Y-771119D01*
G01X8296878Y-799821D01*
G01X8296878Y-816839D01*
G01X8302720Y-845541D01*
G01X8314150Y-862559D01*
G01X8331168Y-868401D01*
G01X8342598Y-868401D01*
G01X8359870Y-862559D01*
G01X8371300Y-845541D01*
G01X8376888Y-816839D01*
G01X8376888Y-799821D01*
G01X8371300Y-771119D01*
G01X8359870Y-754101D01*
G01X8342598Y-748259D01*
G01X8331168Y-748259D01*
G01X8424640Y-788391D02*
G01X8424640Y-868401D01*
G01X8424640Y-811251D02*
G01X8441912Y-793979D01*
G01X8453342Y-788391D01*
G01X8470360Y-788391D01*
G01X8481790Y-793979D01*
G01X8487632Y-811251D01*
G01X8487632Y-868401D01*
G01X8487632Y-811251D02*
G01X8504650Y-793979D01*
G01X8516080Y-788391D01*
G01X8533352Y-788391D01*
G01X8544782Y-793979D01*
G01X8550370Y-811251D01*
G01X8550370Y-868401D01*
G01X8598122Y-748259D02*
G01X8603964Y-754101D01*
G01X8609552Y-748259D01*
G01X8603964Y-742671D01*
G01X8598122Y-748259D01*
G01X8603964Y-788391D02*
G01X8603964Y-868401D01*
G01X8657304Y-748259D02*
G01X8657304Y-868401D01*
G01X8745188Y-725399D02*
G01X8733758Y-736829D01*
G01X8722328Y-754101D01*
G01X8710898Y-776961D01*
G01X8705056Y-805409D01*
G01X8705056Y-828269D01*
G01X8710898Y-856971D01*
G01X8722328Y-879831D01*
G01X8733758Y-896849D01*
G01X8745188Y-908279D01*
G01X8827230Y-748259D02*
G01X8810212Y-754101D01*
G01X8798782Y-771119D01*
G01X8792940Y-799821D01*
G01X8792940Y-816839D01*
G01X8798782Y-845541D01*
G01X8810212Y-862559D01*
G01X8827230Y-868401D01*
G01X8838660Y-868401D01*
G01X8855932Y-862559D01*
G01X8867362Y-845541D01*
G01X8872950Y-816839D01*
G01X8872950Y-799821D01*
G01X8867362Y-771119D01*
G01X8855932Y-754101D01*
G01X8838660Y-748259D01*
G01X8827230Y-748259D01*
G01X8926544Y-839699D02*
G01X8920702Y-845541D01*
G01X8926544Y-851129D01*
G01X8932132Y-845541D01*
G01X8926544Y-839699D01*
G01X8985726Y-776961D02*
G01X8985726Y-771119D01*
G01X8991314Y-759689D01*
G01X8997156Y-754101D01*
G01X9008586Y-748259D01*
G01X9031446Y-748259D01*
G01X9042876Y-754101D01*
G01X9048464Y-759689D01*
G01X9054306Y-771119D01*
G01X9054306Y-782549D01*
G01X9048464Y-793979D01*
G01X9037034Y-811251D01*
G01X8979884Y-868401D01*
G01X9059894Y-868401D01*
G01X9176226Y-748259D02*
G01X9119076Y-748259D01*
G01X9113488Y-799821D01*
G01X9119076Y-793979D01*
G01X9136348Y-788391D01*
G01X9153366Y-788391D01*
G01X9170638Y-793979D01*
G01X9182068Y-805409D01*
G01X9187656Y-822681D01*
G01X9187656Y-834111D01*
G01X9182068Y-851129D01*
G01X9170638Y-862559D01*
G01X9153366Y-868401D01*
G01X9136348Y-868401D01*
G01X9119076Y-862559D01*
G01X9113488Y-856971D01*
G01X9107646Y-845541D01*
G01X9292558Y-748259D02*
G01X9235408Y-828269D01*
G01X9321260Y-828269D01*
G01X9292558Y-748259D02*
G01X9292558Y-868401D01*
G01X9369012Y-788391D02*
G01X9369012Y-868401D01*
G01X9369012Y-811251D02*
G01X9386284Y-793979D01*
G01X9397714Y-788391D01*
G01X9414732Y-788391D01*
G01X9426162Y-793979D01*
G01X9432004Y-811251D01*
G01X9432004Y-868401D01*
G01X9432004Y-811251D02*
G01X9449022Y-793979D01*
G01X9460452Y-788391D01*
G01X9477724Y-788391D01*
G01X9489154Y-793979D01*
G01X9494742Y-811251D01*
G01X9494742Y-868401D01*
G01X9542494Y-788391D02*
G01X9542494Y-868401D01*
G01X9542494Y-811251D02*
G01X9559766Y-793979D01*
G01X9571196Y-788391D01*
G01X9588214Y-788391D01*
G01X9599644Y-793979D01*
G01X9605486Y-811251D01*
G01X9605486Y-868401D01*
G01X9605486Y-811251D02*
G01X9622504Y-793979D01*
G01X9633934Y-788391D01*
G01X9651206Y-788391D01*
G01X9662636Y-793979D01*
G01X9668224Y-811251D01*
G01X9668224Y-868401D01*
G01X9715976Y-725399D02*
G01X9727406Y-736829D01*
G01X9738836Y-754101D01*
G01X9750266Y-776961D01*
G01X9756108Y-805409D01*
G01X9756108Y-828269D01*
G01X9750266Y-856971D01*
G01X9738836Y-879831D01*
G01X9727406Y-896849D01*
G01X9715976Y-908279D01*
G01X11870295Y-748259D02*
G01X11870295Y-868401D01*
G01X11870295Y-748259D02*
G01X11921857Y-748259D01*
G01X11938875Y-754101D01*
G01X11944717Y-759689D01*
G01X11950305Y-771119D01*
G01X11950305Y-788391D01*
G01X11944717Y-799821D01*
G01X11938875Y-805409D01*
G01X11921857Y-811251D01*
G01X11870295Y-811251D01*
G01X12038189Y-748259D02*
G01X12038189Y-868401D01*
G01X11998057Y-748259D02*
G01X12078067Y-748259D01*
G01X12125819Y-748259D02*
G01X12125819Y-868401D01*
G01X12205829Y-748259D02*
G01X12205829Y-868401D01*
G01X12125819Y-805409D02*
G01X12205829Y-805409D01*
G01X13331702Y-748259D02*
G01X13331702Y-868401D01*
G01X13331702Y-748259D02*
G01X13383264Y-748259D01*
G01X13400282Y-754101D01*
G01X13406124Y-759689D01*
G01X13411712Y-771119D01*
G01X13411712Y-782549D01*
G01X13406124Y-793979D01*
G01X13400282Y-799821D01*
G01X13383264Y-805409D01*
G01X13331702Y-805409D01*
G01X13371834Y-805409D02*
G01X13411712Y-868401D01*
G01X13488166Y-788391D02*
G01X13476736Y-793979D01*
G01X13465306Y-805409D01*
G01X13459464Y-822681D01*
G01X13459464Y-834111D01*
G01X13465306Y-851129D01*
G01X13476736Y-862559D01*
G01X13488166Y-868401D01*
G01X13505184Y-868401D01*
G01X13516614Y-862559D01*
G01X13528044Y-851129D01*
G01X13533886Y-834111D01*
G01X13533886Y-822681D01*
G01X13528044Y-805409D01*
G01X13516614Y-793979D01*
G01X13505184Y-788391D01*
G01X13488166Y-788391D01*
G01X13581638Y-788391D02*
G01X13581638Y-845541D01*
G01X13587480Y-862559D01*
G01X13598910Y-868401D01*
G01X13615928Y-868401D01*
G01X13627358Y-862559D01*
G01X13644630Y-845541D01*
G01X13644630Y-788391D02*
G01X13644630Y-868401D01*
G01X13692382Y-788391D02*
G01X13692382Y-868401D01*
G01X13692382Y-811251D02*
G01X13709654Y-793979D01*
G01X13721084Y-788391D01*
G01X13738102Y-788391D01*
G01X13749532Y-793979D01*
G01X13755374Y-811251D01*
G01X13755374Y-868401D01*
G01X13871706Y-748259D02*
G01X13871706Y-868401D01*
G01X13871706Y-805409D02*
G01X13860276Y-793979D01*
G01X13848846Y-788391D01*
G01X13831828Y-788391D01*
G01X13820398Y-793979D01*
G01X13808968Y-805409D01*
G01X13803126Y-822681D01*
G01X13803126Y-834111D01*
G01X13808968Y-851129D01*
G01X13820398Y-862559D01*
G01X13831828Y-868401D01*
G01X13848846Y-868401D01*
G01X13860276Y-862559D01*
G01X13871706Y-851129D01*
G01X14762883Y-748259D02*
G01X14808603Y-868401D01*
G01X14854323Y-748259D02*
G01X14808603Y-868401D01*
G01X14902075Y-748259D02*
G01X14907917Y-754101D01*
G01X14913505Y-748259D01*
G01X14907917Y-742671D01*
G01X14902075Y-748259D01*
G01X14907917Y-788391D02*
G01X14907917Y-868401D01*
G01X15029837Y-788391D02*
G01X15029837Y-868401D01*
G01X15029837Y-805409D02*
G01X15018407Y-793979D01*
G01X15006977Y-788391D01*
G01X14989959Y-788391D01*
G01X14978529Y-793979D01*
G01X14967099Y-805409D01*
G01X14961257Y-822681D01*
G01X14961257Y-834111D01*
G01X14967099Y-851129D01*
G01X14978529Y-862559D01*
G01X14989959Y-868401D01*
G01X15006977Y-868401D01*
G01X15018407Y-862559D01*
G01X15029837Y-851129D01*
G01X18391564Y-748259D02*
G01X18391564Y-868401D01*
G01X18351432Y-748259D02*
G01X18431442Y-748259D01*
G01X18507896Y-788391D02*
G01X18496466Y-793979D01*
G01X18485036Y-805409D01*
G01X18479194Y-822681D01*
G01X18479194Y-834111D01*
G01X18485036Y-851129D01*
G01X18496466Y-862559D01*
G01X18507896Y-868401D01*
G01X18524914Y-868401D01*
G01X18536344Y-862559D01*
G01X18547774Y-851129D01*
G01X18553616Y-834111D01*
G01X18553616Y-822681D01*
G01X18547774Y-805409D01*
G01X18536344Y-793979D01*
G01X18524914Y-788391D01*
G01X18507896Y-788391D01*
G01X18601368Y-788391D02*
G01X18601368Y-908279D01*
G01X18601368Y-805409D02*
G01X18612798Y-793979D01*
G01X18624228Y-788391D01*
G01X18641500Y-788391D01*
G01X18652930Y-793979D01*
G01X18664360Y-805409D01*
G01X18669948Y-822681D01*
G01X18669948Y-834111D01*
G01X18664360Y-851129D01*
G01X18652930Y-862559D01*
G01X18641500Y-868401D01*
G01X18624228Y-868401D01*
G01X18612798Y-862559D01*
G01X18601368Y-851129D01*
G01X18845716Y-748259D02*
G01X18845716Y-868401D01*
G01X18845716Y-868401D02*
G01X18914296Y-868401D01*
G01X19030628Y-788391D02*
G01X19030628Y-868401D01*
G01X19030628Y-805409D02*
G01X19019198Y-793979D01*
G01X19007768Y-788391D01*
G01X18990750Y-788391D01*
G01X18979320Y-793979D01*
G01X18967890Y-805409D01*
G01X18962048Y-822681D01*
G01X18962048Y-834111D01*
G01X18967890Y-851129D01*
G01X18979320Y-862559D01*
G01X18990750Y-868401D01*
G01X19007768Y-868401D01*
G01X19019198Y-862559D01*
G01X19030628Y-851129D01*
G01X19084222Y-788391D02*
G01X19118512Y-868401D01*
G01X19152802Y-788391D02*
G01X19118512Y-868401D01*
G01X19107082Y-891261D01*
G01X19095652Y-902691D01*
G01X19084222Y-908279D01*
G01X19078380Y-908279D01*
G01X19200554Y-822681D02*
G01X19269134Y-822681D01*
G01X19269134Y-811251D01*
G01X19263546Y-799821D01*
G01X19257704Y-793979D01*
G01X19246274Y-788391D01*
G01X19229256Y-788391D01*
G01X19217826Y-793979D01*
G01X19206396Y-805409D01*
G01X19200554Y-822681D01*
G01X19200554Y-834111D01*
G01X19206396Y-851129D01*
G01X19217826Y-862559D01*
G01X19229256Y-868401D01*
G01X19246274Y-868401D01*
G01X19257704Y-862559D01*
G01X19269134Y-851129D01*
G01X19316886Y-788391D02*
G01X19316886Y-868401D01*
G01X19316886Y-822681D02*
G01X19322728Y-805409D01*
G01X19334158Y-793979D01*
G01X19345588Y-788391D01*
G01X19362606Y-788391D01*
G01X19410358Y-816839D02*
G01X19513228Y-816839D01*
G01X19560980Y-748259D02*
G01X19560980Y-868401D01*
G01X19560980Y-748259D02*
G01X19612542Y-748259D01*
G01X19629560Y-754101D01*
G01X19635402Y-759689D01*
G01X19640990Y-771119D01*
G01X19640990Y-782549D01*
G01X19635402Y-793979D01*
G01X19629560Y-799821D01*
G01X19612542Y-805409D01*
G01X19560980Y-805409D02*
G01X19612542Y-805409D01*
G01X19629560Y-811251D01*
G01X19635402Y-816839D01*
G01X19640990Y-828269D01*
G01X19640990Y-845541D01*
G01X19635402Y-856971D01*
G01X19629560Y-862559D01*
G01X19612542Y-868401D01*
G01X19560980Y-868401D01*
G01X19717444Y-788391D02*
G01X19706014Y-793979D01*
G01X19694584Y-805409D01*
G01X19688742Y-822681D01*
G01X19688742Y-834111D01*
G01X19694584Y-851129D01*
G01X19706014Y-862559D01*
G01X19717444Y-868401D01*
G01X19734462Y-868401D01*
G01X19745892Y-862559D01*
G01X19757322Y-851129D01*
G01X19763164Y-834111D01*
G01X19763164Y-822681D01*
G01X19757322Y-805409D01*
G01X19745892Y-793979D01*
G01X19734462Y-788391D01*
G01X19717444Y-788391D01*
G01X19828188Y-748259D02*
G01X19828188Y-845541D01*
G01X19833776Y-862559D01*
G01X19845206Y-868401D01*
G01X19856636Y-868401D01*
G01X19810916Y-788391D02*
G01X19851048Y-788391D01*
G01X19921660Y-748259D02*
G01X19921660Y-845541D01*
G01X19927248Y-862559D01*
G01X19938678Y-868401D01*
G01X19950108Y-868401D01*
G01X19904388Y-788391D02*
G01X19944520Y-788391D01*
G01X20026562Y-788391D02*
G01X20015132Y-793979D01*
G01X20003702Y-805409D01*
G01X19997860Y-822681D01*
G01X19997860Y-834111D01*
G01X20003702Y-851129D01*
G01X20015132Y-862559D01*
G01X20026562Y-868401D01*
G01X20043580Y-868401D01*
G01X20055010Y-862559D01*
G01X20066440Y-851129D01*
G01X20072282Y-834111D01*
G01X20072282Y-822681D01*
G01X20066440Y-805409D01*
G01X20055010Y-793979D01*
G01X20043580Y-788391D01*
G01X20026562Y-788391D01*
G01X20120034Y-788391D02*
G01X20120034Y-868401D01*
G01X20120034Y-811251D02*
G01X20137306Y-793979D01*
G01X20148736Y-788391D01*
G01X20165754Y-788391D01*
G01X20177184Y-793979D01*
G01X20183026Y-811251D01*
G01X20183026Y-868401D01*
G01X20183026Y-811251D02*
G01X20200044Y-793979D01*
G01X20211474Y-788391D01*
G01X20228746Y-788391D01*
G01X20240176Y-793979D01*
G01X20245764Y-811251D01*
G01X20245764Y-868401D01*
G01X20421532Y-748259D02*
G01X20421532Y-868401D01*
G01X20421532Y-868401D02*
G01X20490112Y-868401D01*
G01X20606444Y-788391D02*
G01X20606444Y-868401D01*
G01X20606444Y-805409D02*
G01X20595014Y-793979D01*
G01X20583584Y-788391D01*
G01X20566566Y-788391D01*
G01X20555136Y-793979D01*
G01X20543706Y-805409D01*
G01X20537864Y-822681D01*
G01X20537864Y-834111D01*
G01X20543706Y-851129D01*
G01X20555136Y-862559D01*
G01X20566566Y-868401D01*
G01X20583584Y-868401D01*
G01X20595014Y-862559D01*
G01X20606444Y-851129D01*
G01X20660038Y-788391D02*
G01X20694328Y-868401D01*
G01X20728618Y-788391D02*
G01X20694328Y-868401D01*
G01X20682898Y-891261D01*
G01X20671468Y-902691D01*
G01X20660038Y-908279D01*
G01X20654196Y-908279D01*
G01X20776370Y-822681D02*
G01X20844950Y-822681D01*
G01X20844950Y-811251D01*
G01X20839362Y-799821D01*
G01X20833520Y-793979D01*
G01X20822090Y-788391D01*
G01X20805072Y-788391D01*
G01X20793642Y-793979D01*
G01X20782212Y-805409D01*
G01X20776370Y-822681D01*
G01X20776370Y-834111D01*
G01X20782212Y-851129D01*
G01X20793642Y-862559D01*
G01X20805072Y-868401D01*
G01X20822090Y-868401D01*
G01X20833520Y-862559D01*
G01X20844950Y-851129D01*
G01X20892702Y-788391D02*
G01X20892702Y-868401D01*
G01X20892702Y-822681D02*
G01X20898544Y-805409D01*
G01X20909974Y-793979D01*
G01X20921404Y-788391D01*
G01X20938422Y-788391D01*

G04 Image Start*
G36*
G01X5454705Y-348300D02*
G01X5349092Y-336819D01*
G01X5306217Y-434025D01*
G01X5263341Y-336819D01*
G01X5157728Y-348300D01*
G01X5220492Y-262575D01*
G01X5180769Y-208320D01*
G01X5212262Y-208320D01*
G01X5251962Y-262575D01*
G01X5212262Y-316829D01*
G01X5279089Y-309565D01*
G01X5279089Y-309565D01*
G01X5306217Y-371058D01*
G01X5333344Y-309565D01*
G01X5400171Y-316829D01*
G01X5360471Y-262575D01*
G01X5400146Y-208346D01*
G01X5333318Y-215610D01*
G01X5306217Y-154091D01*
G01X5279089Y-215585D01*
G01X5212262Y-208320D01*
G01X5180769Y-208320D01*
G01X5157728Y-176850D01*
G01X5263367Y-188331D01*
G01X5306217Y-91125D01*
G01X5349092Y-188331D01*
G01X5454705Y-176850D01*
G01X5391942Y-262575D01*
G01X5454705Y-348300D01*
G37*
G36*
G01X5325712Y766005D02*
G01X5317971Y765416D01*
G01X5310128Y765218D01*
G01X5302285Y765416D01*
G01X5294545Y766005D01*
G01X5286918Y766974D01*
G01X5279412Y768314D01*
G01X5264806Y772069D01*
G01X5250804Y777193D01*
G01X5237482Y783611D01*
G01X5224917Y791244D01*
G01X5213185Y800017D01*
G01X5202362Y809852D01*
G01X5192527Y820675D01*
G01X5183754Y832407D01*
G01X5176121Y844972D01*
G01X5169704Y858294D01*
G01X5164579Y872296D01*
G01X5160824Y886902D01*
G01X5159484Y894407D01*
G01X5158515Y902035D01*
G01X5157927Y909775D01*
G01X5157728Y917618D01*
G01X5183128Y917618D01*
G01X5183785Y904652D01*
G01X5185713Y892055D01*
G01X5188848Y879894D01*
G01X5193124Y868231D01*
G01X5198479Y857132D01*
G01X5204848Y846661D01*
G01X5212165Y836881D01*
G01X5220368Y827858D01*
G01X5229391Y819655D01*
G01X5239171Y812337D01*
G01X5249642Y805969D01*
G01X5260742Y800614D01*
G01X5272404Y796337D01*
G01X5284566Y793203D01*
G01X5284566Y793203D01*
G01X5297162Y791275D01*
G01X5310128Y790618D01*
G01X5323095Y791275D01*
G01X5335691Y793203D01*
G01X5347852Y796337D01*
G01X5359515Y800614D01*
G01X5370614Y805969D01*
G01X5381086Y812337D01*
G01X5390865Y819655D01*
G01X5399889Y827858D01*
G01X5408091Y836881D01*
G01X5415409Y846661D01*
G01X5421777Y857132D01*
G01X5427132Y868231D01*
G01X5431409Y879894D01*
G01X5434543Y892055D01*
G01X5436471Y904652D01*
G01X5437128Y917618D01*
G01X5436471Y930585D01*
G01X5434543Y943181D01*
G01X5431409Y955342D01*
G01X5427132Y967005D01*
G01X5421777Y978104D01*
G01X5415409Y988576D01*
G01X5408091Y998355D01*
G01X5399889Y1007379D01*
G01X5390865Y1015581D01*
G01X5381086Y1022899D01*
G01X5370614Y1029267D01*
G01X5359515Y1034622D01*
G01X5347852Y1038899D01*
G01X5335691Y1042033D01*
G01X5323095Y1043961D01*
G01X5310128Y1044618D01*
G01X5297162Y1043961D01*
G01X5284566Y1042033D01*
G01X5272404Y1038899D01*
G01X5260742Y1034622D01*
G01X5249642Y1029267D01*
G01X5239171Y1022899D01*
G01X5229391Y1015581D01*
G01X5220368Y1007379D01*
G01X5212165Y998355D01*
G01X5204848Y988576D01*
G01X5198479Y978104D01*
G01X5193124Y967005D01*
G01X5188848Y955342D01*
G01X5185713Y943181D01*
G01X5183785Y930585D01*
G01X5183128Y917618D01*
G01X5157728Y917618D01*
G01X5157927Y925461D01*
G01X5158515Y933201D01*
G01X5159484Y940829D01*
G01X5160824Y948334D01*
G01X5164579Y962940D01*
G01X5169704Y976942D01*
G01X5176121Y990264D01*
G01X5183754Y1002830D01*
G01X5192527Y1014562D01*
G01X5202362Y1025384D01*
G01X5213185Y1035220D01*
G01X5224917Y1043993D01*
G01X5237482Y1051626D01*
G01X5250804Y1058043D01*
G01X5264806Y1063167D01*
G01X5279412Y1066922D01*
G01X5286918Y1068262D01*
G01X5294545Y1069231D01*
G01X5302285Y1069820D01*
G01X5310128Y1070018D01*
G01X5317971Y1069820D01*
G01X5325712Y1069231D01*
G01X5333339Y1068262D01*
G01X5340844Y1066922D01*
G01X5355450Y1063167D01*
G01X5369452Y1058043D01*
G01X5382774Y1051626D01*
G01X5395340Y1043993D01*
G01X5407072Y1035220D01*
G01X5417894Y1025384D01*
G01X5427730Y1014562D01*
G01X5436503Y1002830D01*
G01X5444136Y990264D01*
G01X5450553Y976942D01*
G01X5455677Y962940D01*
G01X5459432Y948334D01*
G01X5460772Y940829D01*
G01X5461742Y933201D01*
G01X5462330Y925461D01*
G01X5462528Y917618D01*
G01X5462330Y909775D01*
G01X5461742Y902035D01*
G01X5460772Y894407D01*
G01X5459432Y886902D01*
G01X5455677Y872296D01*
G01X5450553Y858294D01*
G01X5444136Y844972D01*
G01X5436503Y832407D01*
G01X5427730Y820675D01*
G01X5417894Y809852D01*
G01X5407072Y800017D01*
G01X5395340Y791244D01*
G01X5382774Y783611D01*
G01X5369452Y777193D01*
G01X5355450Y772069D01*
G01X5340844Y768314D01*
G01X5333339Y766974D01*
G01X5325712Y766005D01*
G37*
G36*
G01X5462528Y-671696D02*
G01X5392500Y-824096D01*
G01X5462528Y-976496D01*
G01X5310128Y-906468D01*
G01X5157728Y-976496D01*
G01X5181491Y-924782D01*
G01X5209443Y-924782D01*
G01X5299511Y-883380D01*
G01X5310128Y-878503D01*
G01X5320745Y-883380D01*
G01X5410814Y-924782D01*
G01X5369412Y-834713D01*
G01X5364535Y-824096D01*
G01X5369412Y-813479D01*
G01X5410814Y-723411D01*
G01X5320745Y-764813D01*
G01X5310128Y-769689D01*
G01X5299511Y-764813D01*
G01X5209443Y-723411D01*
G01X5250845Y-813479D01*
G01X5255721Y-824096D01*
G01X5255721Y-824096D01*
G01X5250845Y-834713D01*
G01X5209443Y-924782D01*
G01X5181491Y-924782D01*
G01X5227756Y-824096D01*
G01X5157728Y-671696D01*
G01X5310128Y-741724D01*
G01X5462528Y-671696D01*
G37*
G36*
G01X5157728Y489447D02*
G01X5462528Y489447D01*
G01X5310128Y225490D01*
G01X5172393Y464047D01*
G01X5201721Y464047D01*
G01X5310128Y276290D01*
G01X5418535Y464047D01*
G01X5418535Y464047D01*
G01X5201721Y464047D01*
G01X5172393Y464047D01*
G01X5157728Y489447D01*
G37*
G36*
G01X5157728Y1650590D02*
G01X5437128Y1650590D01*
G01X5437128Y1371190D01*
G01X5157728Y1371190D01*
G01X5157728Y1625190D01*
G01X5183128Y1625190D01*
G01X5183128Y1396590D01*
G01X5411728Y1396590D01*
G01X5411728Y1625190D01*
G01X5411728Y1625190D01*
G01X5183128Y1625190D01*
G01X5157728Y1625190D01*
G01X5157728Y1650590D01*
G37*

G04 PolygonModel Start*
G54D16*
G01X4867443Y-1107125D02*
G01X21529153Y-1107125D01*
G01X4867443Y-526553D02*
G01X21529153Y-526553D01*
G01X4867443Y54018D02*
G01X21529153Y54018D01*
G01X4867443Y634590D02*
G01X21529153Y634590D01*
G01X4867443Y1215161D02*
G01X21529153Y1215161D01*
G01X4867443Y1795732D02*
G01X21529153Y1795732D01*
G01X4867443Y2376304D02*
G01X21529153Y2376304D01*
G01X4867443Y2376304D02*
G01X4867443Y-1081725D01*
G01X6318871Y2376304D02*
G01X6318871Y-1081725D01*
G01X7733034Y2376304D02*
G01X7733034Y-1081725D01*
G01X11569849Y2376304D02*
G01X11569849Y-1081725D01*
G01X13031257Y2376304D02*
G01X13031257Y-1081725D01*
G01X14462438Y2376304D02*
G01X14462438Y-1081725D01*
G01X16131617Y2376304D02*
G01X16131617Y-1081725D01*
G01X18050986Y2376304D02*
G01X18050986Y-1081725D01*
G01X21529153Y2376304D02*
G01X21529153Y-1081725D01*

M02*

